<svg width="693" height="451" viewBox="0 0 693 451" fill="none" xmlns="http://www.w3.org/2000/svg">
<g clip-path="url(#clip0)">
<path d="M212.733 421.938C217.422 411.81 222.107 401.532 224.142 390.559C226.177 379.586 225.323 367.677 219.495 358.16C213.667 348.642 202.192 342.188 191.241 344.34C182.247 346.107 175.025 353.191 170.796 361.323C166.567 369.456 164.871 378.628 163.226 387.646C162.694 377.401 162.132 366.992 158.728 357.315C155.325 347.637 148.624 338.619 139.074 334.874C129.524 331.13 117.1 334.074 112.066 343.013C104.975 355.606 114.378 373.269 106.224 385.201C104.825 373.232 92.3088 363.776 80.4132 365.701C68.5176 367.626 59.6221 380.547 62.0692 392.346C63.5253 399.367 68.3155 405.338 74.0426 409.653C79.7696 413.967 86.4305 418.967 93.0195 421.795L212.733 421.938Z" fill="#F2F2F2"/>
<path d="M68.3148 374.157C77.764 377.46 87.3 380.8 95.9266 385.964C103.658 390.592 110.543 396.823 114.891 404.802C117.273 409.083 118.688 413.834 119.035 418.721C119.098 419.743 120.697 419.75 120.633 418.721C120.074 409.621 115.639 401.293 109.498 394.706C102.765 387.485 94.0396 382.553 85.0311 378.727C79.6898 376.458 74.2157 374.53 68.7398 372.616C67.7667 372.276 67.3484 373.819 68.3148 374.157H68.3148Z" fill="white"/>
<path d="M122.82 336.461C128.625 346.133 133.274 356.453 136.671 367.21C140.074 377.963 142.218 389.074 143.059 400.321C143.525 406.618 143.576 412.937 143.211 419.24C143.152 420.268 144.751 420.265 144.81 419.24C145.455 407.876 144.767 396.476 142.761 385.273C140.758 374.07 137.465 363.137 132.949 352.691C130.414 346.824 127.491 341.133 124.2 335.654C124.089 335.479 123.915 335.353 123.713 335.304C123.512 335.255 123.299 335.286 123.12 335.391C122.941 335.495 122.809 335.665 122.753 335.865C122.697 336.065 122.721 336.278 122.82 336.461Z" fill="white"/>
<path d="M201.059 345.643C192.847 364.093 187.068 383.532 183.868 403.472C182.969 409.073 182.274 414.701 181.781 420.357C181.692 421.382 183.291 421.376 183.379 420.357C185.12 400.462 189.42 380.874 196.173 362.08C198.07 356.795 200.159 351.585 202.439 346.45C202.853 345.518 201.476 344.704 201.059 345.643Z" fill="white"/>
<path d="M484.571 443.712L484.442 433.788L437.655 434.393L437.784 444.317L484.571 443.712Z" fill="#E6E6E6"/>
<path d="M501.197 445.926L494.515 445.907L490.385 438.538L494.849 431.194L501.057 431.212C499.503 429.234 497.368 427.792 494.953 427.089C492.537 426.386 489.962 426.456 487.589 427.29C485.215 428.123 483.162 429.679 481.718 431.739C480.273 433.798 479.509 436.258 479.533 438.774C479.557 441.289 480.367 443.734 481.851 445.766C483.334 447.798 485.416 449.314 487.805 450.103C490.194 450.892 492.77 450.913 495.171 450.164C497.573 449.415 499.68 447.933 501.197 445.926V445.926Z" fill="#E6E6E6"/>
<path d="M421.03 445.926L427.712 445.907L431.842 438.538L427.378 431.194L421.17 431.212C422.725 429.234 424.859 427.792 427.275 427.089C429.69 426.386 432.265 426.456 434.638 427.29C437.012 428.123 439.065 429.679 440.51 431.739C441.954 433.798 442.718 436.258 442.694 438.774C442.671 441.289 441.86 443.734 440.377 445.766C438.893 447.798 436.811 449.314 434.422 450.103C432.033 450.892 429.457 450.913 427.056 450.164C424.654 449.415 422.547 447.933 421.03 445.926V445.926Z" fill="#E6E6E6"/>
<path d="M691.996 422.8H1.00435C0.737978 422.8 0.482518 422.694 0.294166 422.505C0.105814 422.317 0 422.062 0 421.795C0 421.529 0.105814 421.273 0.294166 421.085C0.482518 420.897 0.737978 420.791 1.00435 420.791H691.996C692.262 420.791 692.517 420.897 692.706 421.085C692.894 421.273 693 421.529 693 421.795C693 422.062 692.894 422.317 692.706 422.505C692.517 422.694 692.262 422.8 691.996 422.8Z" fill="#3F3D56"/>
<path d="M542.837 231.973C561.141 231.973 575.98 217.135 575.98 198.83C575.98 180.525 561.141 165.686 542.837 165.686C524.532 165.686 509.693 180.525 509.693 198.83C509.693 217.135 524.532 231.973 542.837 231.973Z" fill="#2F2E41"/>
<path d="M556.268 384.892L558.821 396.937L606.497 392.825L602.73 375.047L556.268 384.892Z" fill="#FFB8B8"/>
<path d="M552.559 422.539L544.536 384.681L559.163 381.582L564.086 404.812C564.908 408.692 564.155 412.739 561.993 416.063C559.832 419.387 556.438 421.717 552.559 422.539L552.559 422.539Z" fill="#2F2E41"/>
<path d="M526.399 384.249L521.032 395.332L475.732 379.909L483.653 363.553L526.399 384.249Z" fill="#FFB8B8"/>
<path d="M514.034 401.715L524.383 380.342L537.84 386.857L520.976 421.688C519.208 420.832 517.627 419.637 516.322 418.17C515.017 416.703 514.013 414.993 513.368 413.139C512.724 411.284 512.451 409.321 512.565 407.361C512.679 405.4 513.179 403.482 514.034 401.715Z" fill="#2F2E41"/>
<path d="M437.152 362.362C438.703 362.651 440.298 362.596 441.825 362.201C443.352 361.807 444.774 361.082 445.991 360.079C447.208 359.075 448.19 357.817 448.868 356.393C449.547 354.969 449.904 353.413 449.916 351.836L524.613 282.967L506.063 268.599L438.433 340.855C435.782 341.011 433.28 342.134 431.401 344.011C429.523 345.888 428.398 348.389 428.24 351.04C428.082 353.691 428.902 356.307 430.545 358.394C432.187 360.481 434.538 361.893 437.152 362.362H437.152Z" fill="#FFB8B8"/>
<path d="M538.676 233.47C552.299 233.47 563.344 222.426 563.344 208.802C563.344 195.179 552.299 184.134 538.676 184.134C525.052 184.134 514.008 195.179 514.008 208.802C514.008 222.426 525.052 233.47 538.676 233.47Z" fill="#FFB8B8"/>
<path d="M560.814 353.805C543.511 353.805 522.671 350.16 509.815 335.247L509.525 334.911L509.823 334.582C509.92 334.474 519.378 323.666 509.935 304.39L496.951 308.385L484.024 291.322L491.185 269.84L520.489 246.234C524.688 242.87 529.8 240.845 535.163 240.42C544.87 239.481 554.325 236.788 563.069 232.472C567.07 230.528 571.477 229.565 575.924 229.662L576.501 229.678C577.853 229.716 579.184 230.028 580.412 230.596C581.64 231.164 582.74 231.975 583.646 232.981C584.551 233.986 585.243 235.165 585.679 236.446C586.115 237.727 586.287 239.083 586.183 240.432C584.196 266.173 580.687 328.356 590.995 349.767L591.262 350.32L590.667 350.471C580.869 352.675 570.857 353.793 560.814 353.805Z" fill="#039BE5"/>
<path d="M513.208 334.919C513.208 334.919 447.926 328.893 440.895 347.976C433.865 367.058 441.9 376.097 453.952 380.115C466.004 384.132 495.13 389.154 495.13 389.154L508.187 373.084L542.334 375.093C542.334 375.093 580.384 397.162 590.904 420.764C593.161 425.873 596.761 430.273 601.319 433.499C605.878 436.724 611.226 438.654 616.794 439.082C625.229 439.669 632.726 436.484 632.726 423.302C632.726 393.171 590.543 349.984 590.543 349.984L513.208 334.919Z" fill="#2F2E41"/>
<path d="M463.493 364.547C463.493 364.547 480.567 359.526 507.684 372.582L463.493 364.547Z" fill="#2F2E41"/>
<path d="M514.067 193.071C523.701 198.952 534.562 202.53 545.804 203.528L542.459 199.52C544.894 200.42 547.458 200.929 550.053 201.028C551.352 201.065 552.642 200.798 553.819 200.247C554.996 199.696 556.028 198.877 556.832 197.855C557.488 196.794 557.877 195.59 557.968 194.345C558.058 193.101 557.846 191.853 557.349 190.709C556.33 188.426 554.743 186.442 552.74 184.945C549.19 182.137 544.999 180.25 540.543 179.454C536.087 178.657 531.502 178.976 527.199 180.381C524.247 181.263 521.603 182.959 519.57 185.274C518.571 186.44 517.877 187.836 517.551 189.337C517.224 190.838 517.275 192.396 517.7 193.872" fill="#2F2E41"/>
<path d="M542.658 173.354C547.041 163.177 553.602 154.085 561.878 146.717C567.193 141.994 573.401 137.936 580.405 136.711C587.409 135.486 595.302 137.585 599.598 143.251C603.111 147.884 603.769 154.091 603.382 159.892C602.994 165.693 601.698 171.438 601.822 177.251C601.949 183.183 603.555 188.988 606.494 194.141C609.434 199.294 613.614 203.632 618.655 206.759C623.696 209.887 629.438 211.707 635.361 212.052C641.283 212.398 647.198 211.259 652.569 208.739C646.521 212.082 641.808 217.374 636.193 221.402C630.578 225.429 623.174 228.191 616.797 225.53C610.05 222.714 606.955 215.065 604.538 208.165L593.759 177.392C591.927 172.161 590.004 166.774 586.265 162.683C582.526 158.591 576.458 156.097 571.311 158.154C567.41 159.713 564.87 163.435 562.643 166.997C560.416 170.559 558.066 174.348 554.303 176.216C550.541 178.084 544.965 176.934 543.735 172.917" fill="#2F2E41"/>
<path d="M541.972 322.589L535.045 329.697L568.556 362.352L575.483 355.244L541.972 322.589Z" fill="#E6E6E6"/>
<path d="M568.973 355.829C567.603 357.235 566.681 359.016 566.323 360.946C565.965 362.876 566.187 364.869 566.962 366.673C567.736 368.477 569.028 370.01 570.675 371.08C572.321 372.149 574.247 372.706 576.21 372.681C578.173 372.655 580.084 372.049 581.702 370.937C583.32 369.825 584.572 368.259 585.3 366.436C586.027 364.612 586.198 362.614 585.79 360.694C585.382 358.774 584.414 357.018 583.008 355.648C581.123 353.811 578.585 352.798 575.953 352.832C573.321 352.866 570.81 353.944 568.973 355.829ZM579.128 365.725C578.541 366.328 577.788 366.742 576.965 366.917C576.142 367.092 575.286 367.019 574.505 366.707C573.723 366.395 573.052 365.859 572.576 365.165C572.099 364.472 571.839 363.653 571.828 362.811C571.817 361.97 572.056 361.145 572.514 360.439C572.973 359.734 573.63 359.18 574.403 358.848C575.176 358.516 576.03 358.421 576.857 358.574C577.685 358.727 578.448 359.123 579.05 359.71C579.858 360.497 580.32 361.573 580.335 362.701C580.349 363.829 579.915 364.917 579.128 365.725Z" fill="#E6E6E6"/>
<path d="M531.782 309.267L536.493 314.006L534.203 322.137L525.853 324.173L521.476 319.771C521.177 322.269 521.667 324.797 522.878 327.003C524.088 329.208 525.959 330.979 528.227 332.068C530.494 333.156 533.046 333.508 535.524 333.073C538.002 332.639 540.282 331.439 542.043 329.644C543.805 327.848 544.961 325.546 545.349 323.061C545.737 320.575 545.337 318.03 544.205 315.783C543.074 313.536 541.267 311.7 539.04 310.532C536.812 309.363 534.274 308.921 531.782 309.267Z" fill="#E6E6E6"/>
<path d="M551.122 353.891C550.696 353.891 550.271 353.867 549.848 353.82C547.369 353.533 545.059 352.416 543.295 350.651C541.53 348.886 540.413 346.576 540.126 344.097C539.949 342.55 540.102 340.984 540.573 339.5C541.044 338.016 541.824 336.649 542.86 335.487C543.897 334.325 545.167 333.396 546.588 332.76C548.009 332.123 549.548 331.794 551.105 331.794C551.597 331.796 552.089 331.833 552.577 331.904L586.302 296.003L582.781 284.268L600.463 276.342L605.418 288.454C607.078 292.557 607.372 297.086 606.254 301.369C605.136 305.652 602.668 309.461 599.214 312.229L562.092 341.758C562.131 342.118 562.151 342.48 562.152 342.841C562.151 344.395 561.823 345.931 561.189 347.35C560.555 348.768 559.629 350.037 558.473 351.074C556.458 352.894 553.837 353.898 551.122 353.891Z" fill="#FFB8B8"/>
<path d="M577.486 234.484C578.656 233.965 579.918 233.687 581.197 233.667C582.477 233.648 583.747 233.887 584.932 234.37C586.116 234.854 587.191 235.572 588.091 236.482C588.991 237.391 589.698 238.473 590.169 239.663L607.617 283.697L580.499 301.776L577.486 234.484Z" fill="#039BE5"/>
<path d="M450.437 244.766V25.3721C450.427 18.6459 447.751 12.198 442.995 7.44184C438.239 2.6857 431.791 0.00951699 425.064 0H80.3018C73.5756 0.00951964 67.1277 2.6857 62.3715 7.44184C57.6154 12.198 54.9392 18.6459 54.9297 25.3721V244.766C54.9392 251.493 57.6154 257.941 62.3715 262.697C67.1277 267.453 73.5756 270.129 80.3018 270.139H425.064C431.791 270.129 438.239 267.453 442.995 262.697C447.751 257.941 450.427 251.493 450.437 244.766ZM80.3018 267.154C74.3666 267.146 68.6765 264.785 64.4797 260.589C60.2828 256.392 57.9219 250.702 57.9147 244.766V25.3721C57.9219 19.4369 60.2828 13.7468 64.4797 9.54998C68.6765 5.35313 74.3666 2.99216 80.3018 2.98494H425.064C431 2.99216 436.69 5.35313 440.887 9.54998C445.083 13.7468 447.444 19.4369 447.452 25.3721V244.766C447.444 250.702 445.083 256.392 440.887 260.589C436.69 264.785 431 267.146 425.064 267.154H80.3018Z" fill="#3F3D56"/>
<path d="M447.451 39.4742H57.9143C57.5185 39.4742 57.1389 39.3169 56.859 39.037C56.5791 38.7571 56.4219 38.3775 56.4219 37.9817C56.4219 37.5859 56.5791 37.2063 56.859 36.9264C57.1389 36.6465 57.5185 36.4893 57.9143 36.4893H447.451C447.847 36.4893 448.227 36.6465 448.507 36.9264C448.786 37.2063 448.944 37.5859 448.944 37.9817C448.944 38.3775 448.786 38.7571 448.507 39.037C448.227 39.3169 447.847 39.4742 447.451 39.4742Z" fill="#3F3D56"/>
<path d="M83.2866 28.3571C87.408 28.3571 90.749 25.016 90.749 20.8947C90.749 16.7733 87.408 13.4323 83.2866 13.4323C79.1652 13.4323 75.8242 16.7733 75.8242 20.8947C75.8242 25.016 79.1652 28.3571 83.2866 28.3571Z" fill="#039BE5"/>
<path d="M108.658 28.3571C112.779 28.3571 116.12 25.016 116.12 20.8947C116.12 16.7733 112.779 13.4323 108.658 13.4323C104.536 13.4323 101.195 16.7733 101.195 20.8947C101.195 25.016 104.536 28.3571 108.658 28.3571Z" fill="#039BE5"/>
<path d="M134.031 28.3571C138.152 28.3571 141.493 25.016 141.493 20.8947C141.493 16.7733 138.152 13.4323 134.031 13.4323C129.909 13.4323 126.568 16.7733 126.568 20.8947C126.568 25.016 129.909 28.3571 134.031 28.3571Z" fill="#039BE5"/>
<path d="M189.802 200.098C189.67 200.098 189.539 200.072 189.417 200.021C189.295 199.971 189.185 199.897 189.091 199.804C188.998 199.711 188.924 199.6 188.874 199.478C188.823 199.356 188.797 199.225 188.797 199.094C188.797 188.621 184.207 182.781 176.8 176.75C176.697 176.667 176.612 176.564 176.549 176.448C176.486 176.332 176.447 176.204 176.433 176.073C176.419 175.941 176.432 175.809 176.47 175.682C176.507 175.555 176.57 175.438 176.653 175.335C176.737 175.233 176.839 175.148 176.956 175.085C177.072 175.022 177.2 174.983 177.331 174.97C177.463 174.957 177.595 174.97 177.722 175.008C177.848 175.046 177.966 175.109 178.068 175.192C185.932 181.595 190.806 187.827 190.806 199.094C190.806 199.225 190.78 199.356 190.73 199.478C190.679 199.6 190.605 199.711 190.512 199.804C190.419 199.897 190.308 199.971 190.186 200.021C190.064 200.072 189.934 200.098 189.802 200.098Z" fill="black"/>
<path d="M103.766 200.098C103.634 200.098 103.504 200.072 103.382 200.021C103.26 199.971 103.149 199.897 103.056 199.804C102.963 199.711 102.889 199.6 102.838 199.478C102.788 199.356 102.762 199.225 102.762 199.094C102.762 187.827 107.635 181.595 115.499 175.192C115.602 175.109 115.719 175.046 115.846 175.008C115.972 174.97 116.105 174.957 116.237 174.97C116.368 174.983 116.496 175.022 116.612 175.085C116.728 175.148 116.831 175.233 116.914 175.335C116.998 175.438 117.06 175.555 117.098 175.682C117.136 175.809 117.148 175.941 117.135 176.073C117.121 176.204 117.082 176.332 117.019 176.448C116.956 176.564 116.87 176.667 116.768 176.75C109.361 182.781 104.77 188.622 104.77 199.094C104.77 199.225 104.744 199.356 104.694 199.478C104.644 199.6 104.57 199.711 104.476 199.804C104.383 199.897 104.272 199.971 104.15 200.021C104.029 200.072 103.898 200.098 103.766 200.098Z" fill="black"/>
<path d="M181.198 131.27C180.991 131.27 180.788 131.206 180.619 131.086C180.449 130.967 180.321 130.797 180.251 130.602C180.182 130.407 180.175 130.195 180.23 129.995C180.286 129.795 180.403 129.618 180.563 129.487C188.177 123.288 188.796 114.483 188.796 104.455C188.796 104.188 188.902 103.933 189.091 103.745C189.279 103.556 189.534 103.451 189.801 103.451C190.067 103.451 190.323 103.556 190.511 103.745C190.699 103.933 190.805 104.188 190.805 104.455C190.805 115.005 190.13 124.288 181.832 131.044C181.653 131.19 181.429 131.27 181.198 131.27Z" fill="black"/>
<path d="M112.369 130.732C112.138 130.733 111.914 130.653 111.736 130.507C103.437 123.75 102.762 114.711 102.762 104.455C102.762 104.188 102.868 103.933 103.056 103.745C103.244 103.556 103.5 103.451 103.766 103.451C104.032 103.451 104.288 103.556 104.476 103.745C104.665 103.933 104.77 104.188 104.77 104.455C104.77 114.535 105.377 122.74 113.004 128.949C113.165 129.08 113.281 129.258 113.337 129.457C113.393 129.657 113.385 129.869 113.316 130.065C113.246 130.26 113.118 130.429 112.948 130.549C112.779 130.668 112.577 130.732 112.369 130.732V130.732Z" fill="black"/>
<path d="M202.706 152.814H181.198C180.931 152.814 180.676 152.708 180.488 152.519C180.299 152.331 180.193 152.076 180.193 151.809C180.193 151.543 180.299 151.287 180.488 151.099C180.676 150.911 180.931 150.805 181.198 150.805H202.706C202.973 150.805 203.228 150.911 203.417 151.099C203.605 151.287 203.711 151.543 203.711 151.809C203.711 152.076 203.605 152.331 203.417 152.519C203.228 152.708 202.973 152.814 202.706 152.814Z" fill="black"/>
<path d="M112.37 152.814H90.8618C90.5954 152.814 90.34 152.708 90.1516 152.519C89.9633 152.331 89.8574 152.076 89.8574 151.809C89.8574 151.543 89.9633 151.287 90.1516 151.099C90.34 150.911 90.5954 150.805 90.8618 150.805H112.37C112.637 150.805 112.892 150.911 113.081 151.099C113.269 151.287 113.375 151.543 113.375 151.809C113.375 152.076 113.269 152.331 113.081 152.519C112.892 152.708 112.637 152.814 112.37 152.814Z" fill="black"/>
<path d="M146.783 195.796C146.651 195.796 146.52 195.77 146.398 195.72C146.276 195.669 146.166 195.595 146.072 195.502C145.979 195.409 145.905 195.298 145.855 195.176C145.804 195.054 145.778 194.924 145.778 194.792V125.964C145.778 125.698 145.884 125.442 146.073 125.254C146.261 125.065 146.516 124.96 146.783 124.96C147.049 124.96 147.305 125.065 147.493 125.254C147.681 125.442 147.787 125.698 147.787 125.964V194.792C147.787 194.924 147.761 195.054 147.711 195.176C147.66 195.298 147.586 195.409 147.493 195.502C147.4 195.595 147.289 195.669 147.167 195.72C147.045 195.77 146.915 195.796 146.783 195.796Z" fill="black"/>
<path d="M146.783 195.796C137.393 195.785 128.39 192.05 121.751 185.41C115.111 178.77 111.376 169.768 111.365 160.378V134.548C111.365 118.009 124.937 107.734 146.783 107.734C169.623 107.734 182.202 117.257 182.202 134.548V160.378C182.191 169.768 178.456 178.771 171.816 185.41C165.176 192.05 156.173 195.785 146.783 195.796ZM146.783 109.742C130.632 109.742 113.374 116.259 113.374 134.548V160.378C113.371 164.767 114.234 169.113 115.912 173.168C117.59 177.224 120.05 180.909 123.153 184.014C126.255 187.118 129.939 189.58 133.994 191.261C138.049 192.941 142.394 193.805 146.783 193.805C151.172 193.805 155.518 192.941 159.573 191.261C163.628 189.58 167.311 187.118 170.414 184.014C173.517 180.909 175.977 177.224 177.655 173.168C179.333 169.113 180.195 164.767 180.193 160.378V134.548C180.193 112.965 159.261 109.742 146.783 109.742Z" fill="black"/>
<path d="M126.196 113.934C125.995 113.934 125.799 113.874 125.633 113.761C125.466 113.649 125.338 113.488 125.263 113.302C124.683 111.85 124.348 110.312 124.271 108.75C124.288 102.796 126.657 97.0896 130.863 92.8741C135.068 88.6587 140.769 86.2755 146.723 86.2437H146.838C152.785 86.2721 158.48 88.6468 162.685 92.8515C166.891 97.0563 169.266 102.751 169.295 108.698C169.243 110.151 168.934 111.583 168.381 112.927C168.278 113.172 168.083 113.366 167.838 113.467C167.593 113.568 167.318 113.568 167.073 113.467C166.828 113.366 166.632 113.173 166.529 112.928C166.426 112.684 166.424 112.409 166.523 112.163C166.982 111.05 167.241 109.864 167.287 108.661C167.252 103.251 165.084 98.0746 161.255 94.2538C157.427 90.4329 152.245 88.2764 146.836 88.2524H146.726C141.31 88.2794 136.125 90.4427 132.296 94.2721C128.467 98.1015 126.304 103.287 126.278 108.703C126.349 110.025 126.636 111.328 127.129 112.557C127.189 112.71 127.212 112.875 127.194 113.038C127.176 113.201 127.119 113.357 127.027 113.493C126.935 113.628 126.811 113.74 126.666 113.817C126.522 113.894 126.36 113.934 126.196 113.934H126.196Z" fill="black"/>
<path d="M248.788 108.472H236.736C234.871 108.472 233.083 107.732 231.764 106.413C230.446 105.095 229.705 103.306 229.705 101.442C229.705 99.5772 230.446 97.789 231.764 96.4706C233.083 95.1521 234.871 94.4114 236.736 94.4114H248.788C250.652 94.4114 252.44 95.1521 253.759 96.4706C255.077 97.789 255.818 99.5772 255.818 101.442C255.818 103.306 255.077 105.095 253.759 106.413C252.44 107.732 250.652 108.472 248.788 108.472Z" fill="#CCCCCC"/>
<path d="M331.144 138.101H319.092C317.227 138.101 315.439 137.36 314.121 136.041C312.802 134.723 312.062 132.935 312.062 131.07C312.062 129.205 312.802 127.417 314.121 126.099C315.439 124.78 317.227 124.04 319.092 124.04H331.144C333.009 124.04 334.797 124.78 336.115 126.099C337.434 127.417 338.175 129.205 338.175 131.07C338.175 132.935 337.434 134.723 336.115 136.041C334.797 137.36 333.009 138.101 331.144 138.101Z" fill="#CCCCCC"/>
<path d="M369.309 138.101H357.257C355.392 138.101 353.604 137.36 352.286 136.041C350.967 134.723 350.227 132.935 350.227 131.07C350.227 129.205 350.967 127.417 352.286 126.099C353.604 124.78 355.392 124.04 357.257 124.04H369.309C371.174 124.04 372.962 124.78 374.28 126.099C375.599 127.417 376.34 129.205 376.34 131.07C376.34 132.935 375.599 134.723 374.28 136.041C372.962 137.36 371.174 138.101 369.309 138.101Z" fill="#CCCCCC"/>
<path d="M407.474 138.101H395.422C393.557 138.101 391.769 137.36 390.451 136.041C389.132 134.723 388.392 132.935 388.392 131.07C388.392 129.205 389.132 127.417 390.451 126.099C391.769 124.78 393.557 124.04 395.422 124.04H407.474C409.339 124.04 411.127 124.78 412.445 126.099C413.764 127.417 414.505 129.205 414.505 131.07C414.505 132.935 413.764 134.723 412.445 136.041C411.127 137.36 409.339 138.101 407.474 138.101Z" fill="#CCCCCC"/>
<path d="M332.148 108.974H275.904C274.04 108.974 272.252 108.234 270.933 106.915C269.615 105.597 268.874 103.809 268.874 101.944C268.874 100.079 269.615 98.2912 270.933 96.9728C272.252 95.6543 274.04 94.9136 275.904 94.9136H332.148C334.013 94.9136 335.801 95.6543 337.119 96.9728C338.438 98.2912 339.178 100.079 339.178 101.944C339.178 103.809 338.438 105.597 337.119 106.915C335.801 108.234 334.013 108.974 332.148 108.974Z" fill="#CCCCCC"/>
<path d="M292.979 137.096H236.736C234.871 137.096 233.083 136.355 231.764 135.037C230.446 133.719 229.705 131.93 229.705 130.066C229.705 128.201 230.446 126.413 231.764 125.094C233.083 123.776 234.871 123.035 236.736 123.035H292.979C294.844 123.035 296.632 123.776 297.95 125.094C299.269 126.413 300.009 128.201 300.009 130.066C300.009 131.93 299.269 133.719 297.95 135.037C296.632 136.355 294.844 137.096 292.979 137.096Z" fill="#CCCCCC"/>
<path d="M403.458 108.974H360.271C358.406 108.974 356.618 108.234 355.299 106.915C353.981 105.597 353.24 103.809 353.24 101.944C353.24 100.079 353.981 98.2912 355.299 96.9728C356.618 95.6543 358.406 94.9136 360.271 94.9136H403.458C405.322 94.9136 407.11 95.6543 408.429 96.9728C409.747 98.2912 410.488 100.079 410.488 101.944C410.488 103.809 409.747 105.597 408.429 106.915C407.11 108.234 405.322 108.974 403.458 108.974Z" fill="#CCCCCC"/>
<path d="M248.788 167.729H236.736C234.871 167.729 233.083 166.988 231.764 165.67C230.446 164.351 229.705 162.563 229.705 160.698C229.705 158.834 230.446 157.046 231.764 155.727C233.083 154.409 234.871 153.668 236.736 153.668H248.788C250.652 153.668 252.44 154.409 253.759 155.727C255.077 157.046 255.818 158.834 255.818 160.698C255.818 162.563 255.077 164.351 253.759 165.67C252.44 166.988 250.652 167.729 248.788 167.729Z" fill="#CCCCCC"/>
<path d="M332.148 168.231H275.904C274.04 168.231 272.252 167.49 270.933 166.172C269.615 164.853 268.874 163.065 268.874 161.201C268.874 159.336 269.615 157.548 270.933 156.229C272.252 154.911 274.04 154.17 275.904 154.17H332.148C334.013 154.17 335.801 154.911 337.119 156.229C338.438 157.548 339.178 159.336 339.178 161.201C339.178 163.065 338.438 164.853 337.119 166.172C335.801 167.49 334.013 168.231 332.148 168.231Z" fill="#CCCCCC"/>
<path d="M403.458 168.231H360.271C358.406 168.231 356.618 167.49 355.299 166.172C353.981 164.853 353.24 163.065 353.24 161.201C353.24 159.336 353.981 157.548 355.299 156.229C356.618 154.911 358.406 154.17 360.271 154.17H403.458C405.322 154.17 407.11 154.911 408.429 156.229C409.747 157.548 410.488 159.336 410.488 161.201C410.488 163.065 409.747 164.853 408.429 166.172C407.11 167.49 405.322 168.231 403.458 168.231Z" fill="#CCCCCC"/>
<path d="M384.375 191.833C384.377 189.969 385.118 188.182 386.436 186.864C387.754 185.546 389.541 184.805 391.405 184.803H403.458C405.322 184.803 407.11 185.543 408.429 186.862C409.747 188.18 410.488 189.969 410.488 191.833C410.488 193.698 409.747 195.486 408.429 196.804C407.11 198.123 405.322 198.864 403.458 198.864H391.405C389.541 198.861 387.754 198.12 386.436 196.802C385.118 195.484 384.377 193.697 384.375 191.833Z" fill="#CCCCCC"/>
<path d="M301.014 192.335C301.016 190.471 301.757 188.684 303.075 187.366C304.393 186.048 306.18 185.307 308.044 185.305H364.288C366.152 185.305 367.94 186.046 369.259 187.364C370.577 188.683 371.318 190.471 371.318 192.335C371.318 194.2 370.577 195.988 369.259 197.307C367.94 198.625 366.152 199.366 364.288 199.366H308.044C306.18 199.364 304.393 198.622 303.075 197.304C301.757 195.986 301.016 194.199 301.014 192.335Z" fill="#CCCCCC"/>
<path d="M229.705 192.335C229.707 190.471 230.449 188.684 231.767 187.366C233.085 186.048 234.872 185.307 236.736 185.305H279.922C281.787 185.305 283.575 186.046 284.894 187.364C286.212 188.683 286.953 190.471 286.953 192.335C286.953 194.2 286.212 195.988 284.894 197.307C283.575 198.625 281.787 199.366 279.922 199.366H236.736C234.872 199.364 233.085 198.622 231.767 197.304C230.449 195.986 229.707 194.199 229.705 192.335Z" fill="#CCCCCC"/>
</g>
<defs>
<clipPath id="clip0">
<rect width="693" height="450.71" fill="white"/>
</clipPath>
</defs>
</svg>
