<svg width="72" height="72" viewBox="0 0 72 72" fill="none" xmlns="http://www.w3.org/2000/svg">
<circle cx="36" cy="36" r="36" fill="#039BE5"/>
<g clip-path="url(#clip0)">
<path d="M41.6 41.6H40V40H41.6V41.6Z" fill="white"/>
<path d="M36.7998 41.6H38.3998V40H36.7998V41.6Z" fill="white"/>
<path d="M44.8002 41.6H43.2002V40H44.8002V41.6Z" fill="white"/>
<path fill-rule="evenodd" clip-rule="evenodd" d="M28.8 33.6V29.6C28.8 28.8646 28.9448 28.1364 29.2263 27.457C29.5077 26.7775 29.9202 26.1602 30.4402 25.6402C30.9602 25.1202 31.5775 24.7077 32.257 24.4263C32.9364 24.1448 33.6646 24 34.4 24C35.1354 24 35.8636 24.1448 36.543 24.4263C37.2225 24.7077 37.8398 25.1202 38.3598 25.6402C38.8798 26.1602 39.2923 26.7775 39.5737 27.457C39.8552 28.1364 40 28.8646 40 29.6V33.6H42.4C43.0365 33.6 43.647 33.8529 44.0971 34.3029C44.5471 34.753 44.8 35.3635 44.8 36V36.88C45.7042 37.0636 46.5172 37.5542 47.1011 38.2686C47.685 38.983 48.004 39.8773 48.004 40.8C48.004 41.7227 47.685 42.617 47.1011 43.3314C46.5172 44.0458 45.7042 44.5364 44.8 44.72V45.6C44.8 46.2365 44.5471 46.847 44.0971 47.2971C43.647 47.7471 43.0365 48 42.4 48H26.4C25.7635 48 25.153 47.7471 24.7029 47.2971C24.2529 46.847 24 46.2365 24 45.6V36C24 35.3635 24.2529 34.753 24.7029 34.3029C25.153 33.8529 25.7635 33.6 26.4 33.6H28.8ZM30.4 29.6C30.4 28.5391 30.8214 27.5217 31.5716 26.7716C32.3217 26.0214 33.3391 25.6 34.4 25.6C35.4609 25.6 36.4783 26.0214 37.2284 26.7716C37.9786 27.5217 38.4 28.5391 38.4 29.6V33.6H30.4V29.6ZM37.6 38.4C36.9635 38.4 36.353 38.6529 35.9029 39.1029C35.4529 39.553 35.2 40.1635 35.2 40.8C35.2 41.4365 35.4529 42.047 35.9029 42.4971C36.353 42.9471 36.9635 43.2 37.6 43.2H44C44.6365 43.2 45.247 42.9471 45.6971 42.4971C46.1471 42.047 46.4 41.4365 46.4 40.8C46.4 40.1635 46.1471 39.553 45.6971 39.1029C45.247 38.6529 44.6365 38.4 44 38.4H37.6Z" fill="white"/>
</g>
<defs>
<clipPath id="clip0">
<rect width="24" height="24" fill="white" transform="translate(24 24)"/>
</clipPath>
</defs>
</svg>
