<svg width="664" height="507" viewBox="0 0 664 507" fill="none" xmlns="http://www.w3.org/2000/svg">
<g clip-path="url(#clip0)">
<path d="M61.2763 506.208L61.2454 506.409C61.2086 506.214 61.1732 506.013 61.1396 505.816C61.0782 505.497 61.0249 505.178 60.9746 504.857C58.9808 492.308 60.078 479.463 64.1712 467.434C64.958 465.086 65.8541 462.781 66.8595 460.519C70.7047 451.76 76.1556 443.797 82.9309 437.043C85.1308 434.792 87.6408 432.867 90.3849 431.325C90.7878 431.112 91.1929 430.909 91.607 430.723C94.1449 429.492 97.0021 429.078 99.7851 429.538C100.796 429.728 101.776 430.057 102.697 430.515C103.02 430.672 103.331 430.845 103.636 431.029C105.496 432.248 107.084 433.838 108.301 435.7C109.518 437.561 110.337 439.654 110.708 441.847C111.237 445.118 111.116 448.461 110.352 451.685C110.287 451.993 110.216 452.3 110.141 452.606C109.6 454.754 108.92 456.866 108.105 458.927C99.9508 479.902 82.4272 498.511 61.2763 506.208Z" fill="#F2F2F2"/>
<path d="M102.643 430.583C96.2803 439.723 90.2699 449.095 84.6117 458.7C78.9604 468.296 73.6786 478.097 68.7663 488.103C66.0184 493.702 63.3906 499.357 60.8829 505.069C60.6053 505.701 61.5419 506.251 61.8231 505.611C66.3015 495.414 71.1615 485.397 76.4031 475.56C81.6415 465.732 87.2478 456.113 93.2219 446.701C96.5646 441.436 100.018 436.244 103.583 431.124C103.982 430.552 103.04 430.012 102.643 430.583Z" fill="white"/>
<path d="M109.451 451.74C104.67 457.952 97.632 462.03 89.8635 463.089C87.6962 463.385 85.502 463.428 83.3247 463.219C82.6281 463.153 82.6232 464.238 83.3139 464.303C91.4165 464.985 99.461 462.443 105.701 457.231C107.451 455.769 109.025 454.108 110.391 452.282C110.81 451.725 109.867 451.187 109.451 451.74Z" fill="white"/>
<path d="M68.6144 485.438C67.5027 483.855 66.5791 482.148 65.8622 480.351C64.2243 476.255 63.6429 471.813 64.1714 467.434C64.9582 465.086 65.8544 462.781 66.8598 460.519C66.9207 460.608 66.9573 460.711 66.9661 460.819C66.9749 460.926 66.9555 461.034 66.9099 461.132C66.2019 462.829 65.693 464.602 65.3931 466.416C64.317 472.884 65.811 479.517 69.5565 484.9C69.6039 484.958 69.6354 485.028 69.648 485.103C69.6607 485.177 69.654 485.254 69.6286 485.325C69.5867 485.419 69.5208 485.501 69.4375 485.562C69.3542 485.623 69.2564 485.661 69.1539 485.672C69.0513 485.683 68.9475 485.668 68.8529 485.627C68.7582 485.586 68.676 485.52 68.6144 485.438Z" fill="white"/>
<path d="M90.5472 430.638C89.2389 435.851 89.6285 441.346 91.6593 446.322C91.7312 446.446 91.8492 446.537 91.9878 446.575C92.1263 446.613 92.2741 446.594 92.3992 446.524C92.5215 446.45 92.6107 446.332 92.6483 446.194C92.6859 446.056 92.669 445.909 92.6012 445.784C90.6996 441.062 90.3468 435.859 91.5936 430.923C91.626 430.786 91.6039 430.642 91.532 430.521C91.4602 430.4 91.3441 430.312 91.2084 430.275C91.0726 430.238 90.9278 430.255 90.8044 430.323C90.681 430.39 90.5888 430.503 90.5471 430.638H90.5472Z" fill="white"/>
<path d="M61.1432 480.012L61.2091 480.205C61.0857 480.049 60.9613 479.887 60.8398 479.728C60.6373 479.474 60.4417 479.216 60.2479 478.955C52.6515 468.769 47.6546 456.884 45.6901 444.331C45.2959 441.886 45.0184 439.429 44.8578 436.959C44.1928 427.416 45.3201 417.834 48.1816 408.706C49.0839 405.691 50.412 402.82 52.1257 400.181C52.3834 399.805 52.6481 399.437 52.9282 399.08C54.6036 396.811 56.9415 395.118 59.6199 394.233C60.6034 393.932 61.6239 393.768 62.6524 393.746C63.0113 393.735 63.3667 393.744 63.7222 393.765C65.9362 393.981 68.0817 394.652 70.0244 395.735C71.9671 396.818 73.6651 398.291 75.0122 400.061C77.0001 402.712 78.4464 405.728 79.2686 408.938C79.3536 409.242 79.4338 409.546 79.5091 409.851C80.0282 412.006 80.4071 414.192 80.6434 416.395C83.1683 438.756 76.297 463.374 61.1432 480.012Z" fill="#F2F2F2"/>
<path d="M62.6358 393.831C61.2485 404.88 60.2808 415.971 59.7327 427.104C59.1869 438.226 59.0638 449.359 59.3632 460.501C59.5311 466.735 59.8317 472.963 60.265 479.186C60.3129 479.875 61.3978 479.927 61.3494 479.229C60.5775 468.12 60.2269 456.993 60.2976 445.847C60.3701 434.711 60.8651 423.589 61.7825 412.48C62.2961 406.265 62.942 400.063 63.7201 393.874C63.807 393.182 62.7224 393.141 62.6358 393.831V393.831Z" fill="white"/>
<path d="M78.4958 409.406C77.1482 417.127 72.8105 424.007 66.4232 428.552C64.6412 429.82 62.7183 430.878 60.6929 431.703C60.0454 431.969 60.5454 432.932 61.1873 432.669C68.6793 429.51 74.6224 423.523 77.7262 416.01C78.5966 413.902 79.2188 411.7 79.5802 409.449C79.692 408.762 78.6069 408.723 78.4958 409.406V409.406Z" fill="white"/>
<path d="M57.9902 458.211C56.2702 457.325 54.6591 456.242 53.1895 454.985C49.8358 452.118 47.257 448.454 45.6903 444.331C45.296 441.886 45.0185 439.429 44.8579 436.959C44.9532 437.009 45.0336 437.084 45.0913 437.175C45.149 437.266 45.182 437.37 45.187 437.478C45.3485 439.31 45.7216 441.116 46.299 442.862C48.3516 449.09 52.7565 454.27 58.5745 457.297C58.6438 457.327 58.7042 457.374 58.75 457.434C58.7957 457.494 58.8253 457.565 58.8359 457.64C58.8425 457.743 58.8222 457.846 58.7767 457.938C58.7313 458.031 58.6623 458.11 58.5768 458.168C58.4913 458.226 58.3922 458.26 58.2893 458.268C58.1863 458.275 58.0833 458.256 57.9902 458.211Z" fill="white"/>
<path d="M51.95 399.497C53.2134 404.721 56.1116 409.406 60.2227 412.869C60.3442 412.946 60.491 412.972 60.6313 412.941C60.7715 412.91 60.894 412.825 60.972 412.705C61.0461 412.582 61.0703 412.437 61.0395 412.297C61.0088 412.158 60.9256 412.035 60.8071 411.956C56.9287 408.658 54.1983 404.213 53.0096 399.264C52.9747 399.127 52.8882 399.01 52.7683 398.936C52.6484 398.862 52.5045 398.838 52.3671 398.868C52.2296 398.899 52.1092 398.981 52.0314 399.098C51.9536 399.216 51.9244 399.359 51.95 399.497L51.95 399.497Z" fill="white"/>
<path d="M61.6131 506.342L61.7722 506.468C61.5842 506.403 61.3926 506.335 61.2045 506.266C60.897 506.161 60.5933 506.049 60.2894 505.933C48.4011 501.44 37.7881 494.117 29.3703 484.597C27.7211 482.75 26.1635 480.829 24.6976 478.834C18.9966 471.152 14.7841 462.47 12.2777 453.239C11.4139 450.213 10.9864 447.079 11.0084 443.932C11.0228 443.476 11.0481 443.024 11.0915 442.573C11.2811 439.759 12.3387 437.073 14.1188 434.886C14.7852 434.102 15.5568 433.415 16.4117 432.843C16.7082 432.64 17.0121 432.456 17.3231 432.282C19.305 431.272 21.474 430.682 23.6945 430.549C25.915 430.416 28.1391 430.743 30.2275 431.509C33.3308 432.672 36.1745 434.435 38.5964 436.697C38.8315 436.907 39.063 437.12 39.291 437.337C40.889 438.873 42.3858 440.511 43.772 442.24C57.9458 459.722 65.4179 484.163 61.6131 506.342Z" fill="#F2F2F2"/>
<path d="M16.4431 432.923C21.2266 442.98 26.3861 452.846 31.9217 462.522C37.4537 472.187 43.3472 481.633 49.6021 490.861C53.1018 496.023 56.7104 501.109 60.4278 506.119C60.8391 506.673 61.7813 506.133 61.3647 505.571C54.7296 496.626 48.4396 487.439 42.4947 478.01C36.5568 468.588 30.9822 458.95 25.7708 449.096C22.8555 443.583 20.0585 438.01 17.3799 432.376C17.0802 431.746 16.1445 432.296 16.4431 432.923Z" fill="white"/>
<path d="M38.1966 437.507C41.2209 444.739 41.272 452.871 38.3389 460.14C37.5206 462.168 36.4701 464.094 35.2083 465.88C34.8056 466.452 35.7459 466.995 36.1452 466.428C40.7558 459.732 42.5384 451.488 41.106 443.486C40.7039 441.242 40.042 439.051 39.1335 436.96C38.8576 436.32 37.9226 436.872 38.1966 437.507Z" fill="white"/>
<path d="M47.2112 489.67C45.2848 489.85 43.344 489.805 41.428 489.536C37.058 488.927 32.9116 487.228 29.37 484.597C27.7208 482.75 26.1632 480.829 24.6973 478.834C24.8047 478.825 24.9126 478.845 25.0103 478.89C25.108 478.936 25.192 479.006 25.2542 479.094C26.377 480.551 27.6646 481.872 29.0915 483.032C34.176 487.174 40.678 489.167 47.2112 488.585C47.2857 488.573 47.3621 488.581 47.433 488.607C47.5039 488.633 47.5669 488.676 47.6161 488.734C47.6772 488.817 47.7155 488.915 47.7271 489.017C47.7387 489.12 47.7232 489.223 47.6823 489.318C47.6414 489.413 47.5763 489.495 47.4937 489.557C47.411 489.619 47.3136 489.658 47.2112 489.67Z" fill="white"/>
<path d="M10.4922 443.45C14.3711 447.172 19.3368 449.559 24.6667 450.264C24.9596 450.303 25.2064 449.987 25.2092 449.721C25.2058 449.579 25.1476 449.443 25.0466 449.342C24.9455 449.241 24.8095 449.182 24.6667 449.179C19.6221 448.488 14.9274 446.214 11.2594 442.683C10.7565 442.199 9.98826 442.965 10.4921 443.45H10.4922Z" fill="white"/>
<path d="M135.67 363.281C136.73 362.555 137.617 361.605 138.27 360.499C138.923 359.393 139.325 358.157 139.448 356.879C139.572 355.601 139.413 354.311 138.984 353.1C138.555 351.89 137.865 350.788 136.964 349.873L140.373 273.808L123.019 275.755L124.027 350.157C122.59 351.773 121.795 353.859 121.793 356.022C121.791 358.184 122.583 360.272 124.018 361.889C125.453 363.507 127.432 364.542 129.58 364.799C131.727 365.055 133.894 364.515 135.67 363.281Z" fill="#FFB8B8"/>
<path d="M167.328 492.042L177.205 493.777L186.967 456.518L174.026 453.956L167.328 492.042Z" fill="#FFB8B8"/>
<path d="M194.641 506.294L163.599 500.838L165.708 488.848L184.756 492.196C186.331 492.473 187.836 493.057 189.185 493.915C190.534 494.774 191.701 495.889 192.619 497.198C193.537 498.507 194.188 499.984 194.535 501.545C194.881 503.106 194.918 504.719 194.641 506.294Z" fill="#2F2E41"/>
<path d="M140.219 496.984L150.247 496.983L155.018 458.314L140.217 458.315L140.219 496.984Z" fill="#FFB8B8"/>
<path d="M169.588 506.292L138.071 506.294L138.07 494.12L157.41 494.119C160.64 494.119 163.737 495.401 166.021 497.684C168.305 499.967 169.588 503.064 169.588 506.292L169.588 506.292Z" fill="#2F2E41"/>
<path d="M182.878 486.395C182.722 486.395 182.565 486.386 182.41 486.367L170.607 485.396C170.069 485.333 169.55 485.161 169.081 484.891C168.612 484.622 168.203 484.259 167.879 483.826C167.554 483.394 167.321 482.899 167.193 482.374C167.066 481.848 167.046 481.302 167.136 480.768L178.036 419.698L170.671 380.877C170.611 380.562 170.439 380.279 170.186 380.08C169.934 379.882 169.618 379.781 169.298 379.797C168.977 379.813 168.673 379.944 168.441 380.167C168.21 380.389 168.066 380.688 168.038 381.008L158.831 484.557C158.73 485.596 158.229 486.555 157.434 487.232C156.639 487.909 155.612 488.251 154.57 488.185L143.449 487.771C142.475 487.702 141.559 487.279 140.876 486.581C140.192 485.883 139.788 484.959 139.739 483.984L138.991 359.877L196.643 352.673L200.67 414.855L200.654 414.921L186.756 483.345C186.545 484.214 186.048 484.987 185.344 485.54C184.641 486.093 183.773 486.394 182.878 486.395Z" fill="#2F2E41"/>
<path d="M157.999 224.517C169.094 224.517 178.089 215.525 178.089 204.433C178.089 193.34 169.094 184.348 157.999 184.348C146.903 184.348 137.908 193.34 137.908 204.433C137.908 215.525 146.903 224.517 157.999 224.517Z" fill="#FFB8B8"/>
<path d="M176.929 368.948C173.787 368.967 170.705 368.085 168.048 366.408C158.317 360.328 147.263 362.744 141.54 364.726C140.972 364.925 140.367 364.993 139.769 364.925C139.171 364.857 138.597 364.654 138.088 364.333C137.585 364.017 137.16 363.592 136.845 363.089C136.53 362.586 136.333 362.019 136.269 361.429L125.862 268.512C124.118 252.944 133.498 238.308 148.166 233.709C148.717 233.537 149.278 233.373 149.847 233.218C154.412 231.981 159.192 231.758 163.852 232.567C168.511 233.375 172.937 235.195 176.817 237.897C180.77 240.63 184.076 244.195 186.502 248.342C188.928 252.489 190.415 257.117 190.86 261.901L199.62 355.44C199.68 356.045 199.598 356.657 199.382 357.225C199.165 357.794 198.819 358.304 198.371 358.717C195.3 361.557 186.387 368.947 176.929 368.948Z" fill="#039BE5"/>
<path d="M145.24 288.438L121.761 285.857C121.093 285.783 120.449 285.567 119.872 285.222C119.295 284.877 118.8 284.412 118.419 283.858C118.038 283.305 117.781 282.676 117.665 282.014C117.55 281.352 117.578 280.673 117.749 280.023L123.725 257.252C124.12 253.837 125.854 250.719 128.546 248.58C131.237 246.441 134.668 245.456 138.084 245.842C141.501 246.228 144.626 247.952 146.772 250.637C148.919 253.322 149.914 256.749 149.537 260.166L150.424 283.615C150.45 284.286 150.33 284.955 150.073 285.576C149.816 286.197 149.429 286.755 148.937 287.213C148.445 287.671 147.86 288.017 147.222 288.228C146.584 288.44 145.908 288.511 145.24 288.437V288.438Z" fill="#039BE5"/>
<path d="M199.526 360.024C200.49 359.175 201.257 358.126 201.772 356.949C202.286 355.772 202.537 354.497 202.505 353.213C202.473 351.929 202.16 350.668 201.588 349.518C201.016 348.368 200.199 347.358 199.194 346.558L193.409 270.637L176.404 274.463L186.386 348.399C185.153 350.176 184.616 352.343 184.875 354.489C185.134 356.636 186.171 358.613 187.791 360.046C189.411 361.479 191.5 362.268 193.663 362.264C195.826 362.26 197.912 361.463 199.526 360.024V360.024Z" fill="#FFB8B8"/>
<path d="M169.885 283.665C169.393 283.207 169.005 282.649 168.749 282.028C168.492 281.407 168.372 280.738 168.398 280.067L169.285 256.618C168.909 253.201 169.903 249.774 172.05 247.089C174.197 244.404 177.321 242.68 180.738 242.294C184.155 241.908 187.585 242.893 190.277 245.032C192.969 247.171 194.702 250.289 195.097 253.704L201.074 276.475C201.244 277.125 201.273 277.804 201.157 278.466C201.041 279.128 200.784 279.757 200.404 280.311C200.023 280.864 199.527 281.329 198.95 281.674C198.373 282.019 197.729 282.235 197.061 282.309L173.582 284.89C172.914 284.963 172.238 284.892 171.6 284.681C170.962 284.469 170.377 284.123 169.885 283.665Z" fill="#039BE5"/>
<path d="M156.804 225.274C156.447 225.274 156.091 225.232 155.744 225.15L155.642 225.126C137.978 222.424 134.074 212.196 133.217 207.924C132.331 203.502 133.34 199.233 135.622 197.575C134.378 193.648 134.578 190.166 136.217 187.221C139.076 182.085 145.281 180.349 146.114 180.136C151.069 176.481 156.998 178.921 158.077 179.416C167.662 175.871 171.326 178.822 171.988 179.481C176.273 180.25 178.885 181.905 179.752 184.4C181.381 189.086 176.23 194.916 176.01 195.162L175.896 195.289L168.223 195.654C167.495 195.689 166.783 195.877 166.132 196.204C165.481 196.532 164.906 196.993 164.445 197.557C163.983 198.121 163.646 198.776 163.454 199.479C163.262 200.182 163.22 200.918 163.331 201.638C163.538 202.567 163.801 203.483 164.116 204.382C165.427 208.476 166.409 211.973 165.142 213.303C164.855 213.56 164.502 213.731 164.122 213.797C163.742 213.863 163.352 213.821 162.995 213.675C161.795 213.355 160.981 213.422 160.575 213.875C159.945 214.578 160.137 216.356 161.116 218.884C161.424 219.683 161.506 220.551 161.356 221.394C161.205 222.237 160.826 223.022 160.261 223.665C159.835 224.167 159.306 224.571 158.709 224.849C158.112 225.126 157.463 225.272 156.804 225.274Z" fill="#2F2E41"/>
<path d="M394.068 289.481H295.093C291.406 289.476 287.871 288.01 285.264 285.404C282.658 282.798 281.191 279.265 281.187 275.579V126.888C281.191 123.202 282.658 119.669 285.264 117.062C287.871 114.456 291.406 112.99 295.093 112.986H394.068C397.754 112.99 401.289 114.456 403.896 117.062C406.503 119.669 407.969 123.202 407.973 126.888V275.579C407.969 279.265 406.503 282.798 403.896 285.404C401.289 288.01 397.754 289.476 394.068 289.481ZM295.093 114.622C291.84 114.625 288.721 115.919 286.421 118.218C284.12 120.518 282.827 123.636 282.823 126.888V275.579C282.827 278.831 284.12 281.949 286.421 284.248C288.721 286.548 291.84 287.841 295.093 287.845H394.068C397.321 287.841 400.439 286.548 402.74 284.248C405.04 281.949 406.334 278.831 406.337 275.579V126.888C406.334 123.636 405.04 120.518 402.74 118.218C400.439 115.919 397.321 114.625 394.068 114.622H295.093Z" fill="#3F3D56"/>
<path d="M378.935 184.47H310.225C308.382 184.468 306.615 183.735 305.311 182.432C304.008 181.129 303.275 179.362 303.272 177.519V144.809C303.275 142.967 304.008 141.2 305.311 139.897C306.615 138.594 308.382 137.861 310.225 137.859H378.935C380.779 137.861 382.546 138.594 383.849 139.897C385.153 141.2 385.886 142.967 385.888 144.809V177.519C385.886 179.362 385.153 181.129 383.849 182.432C382.546 183.735 380.779 184.468 378.935 184.47Z" fill="#039BE5"/>
<path d="M374.027 215.135H315.133C313.398 215.135 311.733 214.446 310.506 213.219C309.279 211.992 308.589 210.328 308.589 208.593C308.589 206.858 309.279 205.194 310.506 203.967C311.733 202.74 313.398 202.051 315.133 202.051H374.027C375.763 202.051 377.427 202.74 378.655 203.967C379.882 205.194 380.571 206.858 380.571 208.593C380.571 210.328 379.882 211.992 378.655 213.219C377.427 214.446 375.763 215.135 374.027 215.135Z" fill="#CCCCCC"/>
<path d="M374.027 239.667H315.133C313.398 239.667 311.733 238.978 310.506 237.751C309.279 236.524 308.589 234.86 308.589 233.125C308.589 231.39 309.279 229.726 310.506 228.5C311.733 227.273 313.398 226.583 315.133 226.583H374.027C375.763 226.583 377.427 227.273 378.655 228.5C379.882 229.726 380.571 231.39 380.571 233.125C380.571 234.86 379.882 236.524 378.655 237.751C377.427 238.978 375.763 239.667 374.027 239.667Z" fill="#CCCCCC"/>
<path d="M374.027 264.2H315.133C313.398 264.2 311.733 263.51 310.506 262.284C309.279 261.057 308.589 259.393 308.589 257.658C308.589 255.923 309.279 254.259 310.506 253.032C311.733 251.805 313.398 251.116 315.133 251.116H374.027C375.763 251.116 377.427 251.805 378.655 253.032C379.882 254.259 380.571 255.923 380.571 257.658C380.571 259.393 379.882 261.057 378.655 262.284C377.427 263.51 375.763 264.2 374.027 264.2Z" fill="#CCCCCC"/>
<path d="M635.37 372.89H536.395C532.709 372.886 529.174 371.42 526.567 368.814C523.96 366.208 522.494 362.674 522.49 358.989V210.297C522.494 206.612 523.96 203.078 526.567 200.472C529.174 197.866 532.709 196.4 536.395 196.396H635.37C639.057 196.4 642.592 197.866 645.199 200.472C647.805 203.078 649.272 206.612 649.276 210.297V358.989C649.272 362.674 647.805 366.208 645.199 368.814C642.592 371.42 639.057 372.886 635.37 372.89ZM536.395 198.031C533.142 198.035 530.024 199.328 527.723 201.628C525.423 203.928 524.129 207.045 524.126 210.297V358.989C524.129 362.241 525.423 365.358 527.723 367.658C530.024 369.958 533.142 371.251 536.395 371.255H635.37C638.623 371.251 641.742 369.958 644.042 367.658C646.342 365.358 647.636 362.241 647.64 358.989V210.297C647.636 207.045 646.342 203.928 644.042 201.628C641.742 199.328 638.623 198.035 635.37 198.031H536.395Z" fill="#3F3D56"/>
<path d="M615.33 233.125H556.436C554.7 233.125 553.036 232.436 551.809 231.209C550.582 229.982 549.892 228.319 549.892 226.583C549.892 224.848 550.582 223.184 551.809 221.958C553.036 220.731 554.7 220.042 556.436 220.042H615.33C617.066 220.042 618.73 220.731 619.957 221.958C621.185 223.184 621.874 224.848 621.874 226.583C621.874 228.319 621.185 229.982 619.957 231.209C618.73 232.436 617.066 233.125 615.33 233.125Z" fill="#CCCCCC"/>
<path d="M615.33 257.658H556.436C554.7 257.658 553.036 256.968 551.809 255.742C550.582 254.515 549.892 252.851 549.892 251.116C549.892 249.381 550.582 247.717 551.809 246.49C553.036 245.263 554.7 244.574 556.436 244.574H615.33C617.066 244.574 618.73 245.263 619.957 246.49C621.185 247.717 621.874 249.381 621.874 251.116C621.874 252.851 621.185 254.515 619.957 255.742C618.73 256.968 617.066 257.658 615.33 257.658Z" fill="#CCCCCC"/>
<path d="M620.238 320.215H551.528C549.685 320.212 547.918 319.479 546.615 318.176C545.311 316.873 544.578 315.107 544.576 313.264V280.554C544.578 278.711 545.311 276.945 546.615 275.642C547.918 274.339 549.685 273.606 551.528 273.603H620.238C622.082 273.606 623.849 274.339 625.152 275.642C626.456 276.945 627.189 278.711 627.191 280.554V313.264C627.189 315.107 626.456 316.873 625.152 318.176C623.849 319.479 622.082 320.212 620.238 320.215Z" fill="#E6E6E6"/>
<path d="M615.33 349.245H556.436C554.7 349.245 553.036 348.556 551.809 347.329C550.582 346.102 549.892 344.438 549.892 342.703C549.892 340.968 550.582 339.304 551.809 338.077C553.036 336.85 554.7 336.161 556.436 336.161H615.33C617.066 336.161 618.73 336.85 619.957 338.077C621.185 339.304 621.874 340.968 621.874 342.703C621.874 344.438 621.185 346.102 619.957 347.329C618.73 348.556 617.066 349.245 615.33 349.245Z" fill="#CCCCCC"/>
<path d="M574.84 136.563H475.865C472.178 136.559 468.644 135.093 466.037 132.487C463.43 129.88 461.964 126.347 461.959 122.661V30.3942C461.964 26.7085 463.43 23.175 466.037 20.5688C468.644 17.9627 472.178 16.4967 475.865 16.4926H574.84C578.527 16.4967 582.061 17.9627 584.668 20.5688C587.275 23.175 588.742 26.7085 588.746 30.3942V122.661C588.742 126.347 587.275 129.88 584.668 132.487C582.061 135.093 578.527 136.559 574.84 136.563ZM475.865 18.128C472.612 18.1317 469.493 19.4252 467.193 21.7248C464.893 24.0243 463.599 27.1421 463.595 30.3942V122.661C463.599 125.913 464.893 129.031 467.193 131.331C469.493 133.63 472.612 134.924 475.865 134.927H574.84C578.093 134.924 581.212 133.63 583.512 131.331C585.812 129.031 587.106 125.913 587.11 122.661V30.3942C587.106 27.1421 585.812 24.0243 583.512 21.7248C581.212 19.4252 578.093 18.1317 574.84 18.128H475.865Z" fill="#3F3D56"/>
<path d="M554.8 107.602H495.906C494.171 107.602 492.506 106.913 491.279 105.686C490.052 104.459 489.362 102.795 489.362 101.06C489.362 99.3251 490.052 97.6611 491.279 96.4343C492.506 95.2074 494.171 94.5182 495.906 94.5182H554.8C556.536 94.5182 558.2 95.2074 559.428 96.4343C560.655 97.6611 561.344 99.3251 561.344 101.06C561.344 102.795 560.655 104.459 559.428 105.686C558.2 106.913 556.536 107.602 554.8 107.602Z" fill="#CCCCCC"/>
<path d="M554.8 83.0698H495.906C494.171 83.0698 492.506 82.3806 491.279 81.1537C490.052 79.9269 489.362 78.2629 489.362 76.5279C489.362 74.7928 490.052 73.1289 491.279 71.902C492.506 70.6752 494.171 69.9859 495.906 69.9859H554.8C556.536 69.9859 558.2 70.6752 559.428 71.902C560.655 73.1289 561.344 74.7928 561.344 76.5279C561.344 78.2629 560.655 79.9269 559.428 81.1537C558.2 82.3806 556.536 83.0698 554.8 83.0698Z" fill="#CCCCCC"/>
<path d="M554.8 58.5375H495.906C494.171 58.5375 492.506 57.8483 491.279 56.6214C490.052 55.3946 489.362 53.7306 489.362 51.9956C489.362 50.2605 490.052 48.5966 491.279 47.3697C492.506 46.1429 494.171 45.4536 495.906 45.4536H554.8C556.536 45.4536 558.2 46.1429 559.428 47.3697C560.655 48.5966 561.344 50.2605 561.344 51.9956C561.344 53.7306 560.655 55.3946 559.428 56.6214C558.2 57.8483 556.536 58.5375 554.8 58.5375Z" fill="#CCCCCC"/>
<path d="M399.793 135.745C410.184 135.745 418.607 127.324 418.607 116.937C418.607 106.55 410.184 98.129 399.793 98.129C389.403 98.129 380.98 106.55 380.98 116.937C380.98 127.324 389.403 135.745 399.793 135.745Z" fill="#039BE5"/>
<path d="M397.929 124.112C397.505 124.113 397.093 123.976 396.755 123.722L396.734 123.706L392.312 120.322C392.106 120.166 391.934 119.97 391.804 119.747C391.674 119.523 391.589 119.277 391.555 119.02C391.52 118.764 391.537 118.504 391.603 118.254C391.67 118.004 391.785 117.77 391.942 117.565C392.099 117.36 392.296 117.188 392.52 117.058C392.743 116.929 392.991 116.845 393.247 116.812C393.503 116.779 393.764 116.796 394.013 116.863C394.263 116.931 394.497 117.047 394.702 117.205L397.565 119.4L404.333 110.577C404.49 110.372 404.686 110.2 404.909 110.071C405.132 109.942 405.379 109.858 405.635 109.825C405.89 109.791 406.15 109.808 406.399 109.874C406.649 109.941 406.882 110.056 407.087 110.213L407.045 110.27L407.088 110.214C407.501 110.531 407.771 110.999 407.839 111.515C407.907 112.032 407.768 112.554 407.452 112.967L399.491 123.346C399.307 123.585 399.07 123.778 398.799 123.911C398.528 124.044 398.23 124.113 397.929 124.112Z" fill="white"/>
<path d="M645.187 219.973C655.577 219.973 664 211.552 664 201.165C664 190.777 655.577 182.356 645.187 182.356C634.796 182.356 626.373 190.777 626.373 201.165C626.373 211.552 634.796 219.973 645.187 219.973Z" fill="#3F3D56"/>
<path d="M643.322 208.339C642.898 208.34 642.486 208.203 642.148 207.95L642.127 207.934L637.705 204.55C637.5 204.393 637.327 204.198 637.197 203.974C637.067 203.751 636.982 203.504 636.948 203.248C636.913 202.992 636.93 202.731 636.996 202.481C637.063 202.232 637.178 201.997 637.335 201.792C637.492 201.587 637.689 201.415 637.913 201.286C638.137 201.157 638.384 201.073 638.64 201.039C638.897 201.006 639.157 201.023 639.407 201.091C639.656 201.158 639.89 201.274 640.095 201.432L642.958 203.627L649.726 194.804C649.883 194.599 650.079 194.428 650.302 194.299C650.525 194.17 650.772 194.086 651.028 194.052C651.283 194.018 651.543 194.035 651.792 194.102C652.042 194.169 652.275 194.284 652.48 194.441L652.438 194.498L652.481 194.441C652.894 194.759 653.164 195.227 653.232 195.743C653.3 196.259 653.161 196.781 652.845 197.195L644.884 207.573C644.7 207.812 644.464 208.006 644.193 208.139C643.922 208.272 643.623 208.34 643.322 208.339Z" fill="white"/>
<path d="M585.474 37.6161C595.864 37.6161 604.288 29.1955 604.288 18.8081C604.288 8.42066 595.864 0 585.474 0C575.084 0 566.661 8.42066 566.661 18.8081C566.661 29.1955 575.084 37.6161 585.474 37.6161Z" fill="#3F3D56"/>
<path d="M583.609 25.983C583.186 25.9838 582.774 25.8469 582.435 25.5931L582.414 25.5773L577.993 22.1932C577.787 22.0368 577.614 21.8412 577.484 21.6178C577.354 21.3944 577.27 21.1476 577.235 20.8914C577.201 20.6352 577.217 20.3748 577.284 20.125C577.35 19.8753 577.466 19.6411 577.623 19.4359C577.78 19.2307 577.976 19.0586 578.2 18.9294C578.424 18.8002 578.671 18.7165 578.928 18.683C579.184 18.6496 579.445 18.667 579.694 18.7344C579.944 18.8018 580.178 18.9178 580.382 19.0757L583.246 21.271L590.014 12.4476C590.171 12.243 590.366 12.0712 590.59 11.9422C590.813 11.8132 591.06 11.7294 591.315 11.6957C591.571 11.6619 591.831 11.6788 592.08 11.7455C592.329 11.8122 592.563 11.9273 592.768 12.0842L592.726 12.1413L592.769 12.085C593.182 12.4023 593.452 12.8703 593.52 13.3865C593.588 13.9026 593.449 14.4247 593.132 14.8382L585.172 25.2166C584.988 25.4558 584.751 25.6493 584.48 25.7822C584.209 25.9151 583.911 25.9838 583.609 25.983Z" fill="white"/>
<path d="M312.467 507H0.817976C0.601035 507 0.392979 506.914 0.239579 506.761C0.0861787 506.607 0 506.399 0 506.182C0 505.965 0.0861787 505.757 0.239579 505.604C0.392979 505.451 0.601035 505.365 0.817976 505.365H312.467C312.684 505.365 312.892 505.451 313.045 505.604C313.199 505.757 313.285 505.965 313.285 506.182C313.285 506.399 313.199 506.607 313.045 506.761C312.892 506.914 312.684 507 312.467 507Z" fill="#3F3D56"/>
</g>
<defs>
<clipPath id="clip0">
<rect width="664" height="507" fill="white"/>
</clipPath>
</defs>
</svg>
