<svg width="20" height="20" viewBox="0 0 20 20" fill="none" xmlns="http://www.w3.org/2000/svg">
<path d="M2.5 6.66665C2.5 7.12498 2.875 7.49998 3.33333 7.49998C3.79167 7.49998 4.16667 7.12498 4.16667 6.66665V4.99998H5.83333C6.29167 4.99998 6.66667 4.62498 6.66667 4.16665C6.66667 3.70831 6.29167 3.33331 5.83333 3.33331H4.16667V1.66665C4.16667 1.20831 3.79167 0.833313 3.33333 0.833313C2.875 0.833313 2.5 1.20831 2.5 1.66665V3.33331H0.833333C0.375 3.33331 0 3.70831 0 4.16665C0 4.62498 0.375 4.99998 0.833333 4.99998H2.5V6.66665Z" fill="white"/>
<path d="M10.833 14.1667C12.2137 14.1667 13.333 13.0474 13.333 11.6667C13.333 10.286 12.2137 9.16669 10.833 9.16669C9.4523 9.16669 8.33301 10.286 8.33301 11.6667C8.33301 13.0474 9.4523 14.1667 10.833 14.1667Z" fill="white"/>
<path d="M17.5 4.99998H14.8583L13.825 3.87498C13.6697 3.70447 13.4805 3.56824 13.2696 3.47497C13.0587 3.3817 12.8306 3.33345 12.6 3.33331H7.26667C7.40833 3.58331 7.5 3.85831 7.5 4.16665C7.5 5.08331 6.75 5.83331 5.83333 5.83331H5V6.66665C5 7.58331 4.25 8.33331 3.33333 8.33331C3.025 8.33331 2.75 8.24165 2.5 8.09998V16.6666C2.5 17.5833 3.25 18.3333 4.16667 18.3333H17.5C18.4167 18.3333 19.1667 17.5833 19.1667 16.6666V6.66665C19.1667 5.74998 18.4167 4.99998 17.5 4.99998ZM10.8333 15.8333C8.53333 15.8333 6.66667 13.9666 6.66667 11.6666C6.66667 9.36665 8.53333 7.49998 10.8333 7.49998C13.1333 7.49998 15 9.36665 15 11.6666C15 13.9666 13.1333 15.8333 10.8333 15.8333Z" fill="white"/>
</svg>
