<svg width="16" height="16" viewBox="0 0 16 16" fill="none" xmlns="http://www.w3.org/2000/svg">
<rect width="16" height="16" rx="2" fill="#F2FBFF"/>
<path d="M11.104 7.95544L10.1071 7.16872C10.0988 7.16216 10.0888 7.15808 10.0782 7.15695C10.0677 7.15582 10.057 7.15769 10.0475 7.16234C10.0379 7.16699 10.0299 7.17423 10.0243 7.18323C10.0187 7.19224 10.0157 7.20264 10.0157 7.21325V7.71872H8.28134V5.98435H8.78759C8.83447 5.98435 8.86103 5.92966 8.83213 5.89294L8.04463 4.89607C8.03941 4.88932 8.03273 4.88386 8.02507 4.8801C8.01742 4.87634 8.00901 4.87439 8.00049 4.87439C7.99196 4.87439 7.98355 4.87634 7.9759 4.8801C7.96825 4.88386 7.96156 4.88932 7.95634 4.89607L7.16884 5.89294C7.16228 5.90128 7.15821 5.9113 7.15708 5.92185C7.15595 5.9324 7.15781 5.94306 7.16246 5.9526C7.16711 5.96214 7.17435 5.97018 7.18335 5.97579C7.19236 5.98141 7.20276 5.98437 7.21338 5.98435H7.71884V7.71872H5.98447V7.21247C5.98447 7.1656 5.92978 7.13903 5.89306 7.16794L4.89619 7.95544C4.88944 7.96065 4.88398 7.96734 4.88022 7.97499C4.87647 7.98265 4.87451 7.99106 4.87451 7.99958C4.87451 8.00811 4.87647 8.01652 4.88022 8.02417C4.88398 8.03182 4.88944 8.03851 4.89619 8.04372L5.89228 8.83122C5.929 8.86013 5.98369 8.83435 5.98369 8.78669V8.28122H7.71806V10.0156H7.21181C7.16494 10.0156 7.13838 10.0703 7.16728 10.107L7.95478 11.1031C7.97744 11.132 8.02119 11.132 8.04306 11.1031L8.83056 10.107C8.85947 10.0703 8.83369 10.0156 8.78603 10.0156H8.28134V8.28122H10.0157V8.78747C10.0157 8.83435 10.0704 8.86091 10.1071 8.832L11.1032 8.0445C11.1099 8.03922 11.1154 8.03249 11.1192 8.02481C11.1229 8.01714 11.1249 8.00871 11.125 8.00016C11.1251 7.99161 11.1232 7.98315 11.1196 7.97541C11.116 7.96767 11.1106 7.96084 11.104 7.95544Z" fill="#039BE5"/>
</svg>
