<svg width="24" height="24" viewBox="0 0 24 24" fill="none" xmlns="http://www.w3.org/2000/svg">
<path fill-rule="evenodd" clip-rule="evenodd" d="M12 18L19.5 22.5V4.5C19.5 3.70435 19.1839 2.94129 18.6213 2.37868C18.0587 1.81607 17.2956 1.5 16.5 1.5H7.5C6.70435 1.5 5.94129 1.81607 5.37868 2.37868C4.81607 2.94129 4.5 3.70435 4.5 4.5V22.5L12 18ZM6 19.851L12 16.251L18 19.851V4.5C18 4.10218 17.842 3.72064 17.5607 3.43934C17.2794 3.15804 16.8978 3 16.5 3H7.5C7.10218 3 6.72064 3.15804 6.43934 3.43934C6.15804 3.72064 6 4.10218 6 4.5V19.851Z" fill="#039BE5"/>
</svg>
