<svg width="375" height="110" viewBox="0 0 375 110" fill="none" xmlns="http://www.w3.org/2000/svg">
<mask id="mask0" mask-type="alpha" maskUnits="userSpaceOnUse" x="0" y="0" width="375" height="110">
<rect width="375" height="110" fill="#C4C4C4"/>
</mask>
<g mask="url(#mask0)">
<path d="M746.27 -615.78H-1328.54V767.425H746.27V-615.78Z" fill="url(#paint0_linear)"/>
<path d="M576.412 -488.525L51.0709 36.8164L-474.271 -488.525L51.0709 -1013.87L576.412 -488.525Z" fill="url(#paint1_linear)"/>
<path d="M170.302 -615.78L-547.304 102.104L-1265.19 -615.78L-547.304 -1333.66L170.302 -615.78Z" fill="url(#paint2_linear)"/>
<path d="M1182.81 632.701L464.926 1350.58L-252.681 632.701L464.926 -84.9055L1182.81 632.701Z" fill="url(#paint3_linear)"/>
<path d="M826.496 -34.2802L516.382 275.834L206.544 -34.2802L516.382 -344.118L826.496 -34.2802Z" fill="url(#paint4_linear)"/>
<path d="M50.9676 67.554L-424.176 542.698L50.9677 1017.84L526.111 542.698L50.9676 67.554Z" stroke="url(#paint5_linear)" stroke-width="2.76641" stroke-miterlimit="10"/>
<path d="M521.89 -90.4225L153.356 278.112L521.89 646.647L890.425 278.112L521.89 -90.4225Z" stroke="url(#paint6_linear)" stroke-width="2.76641" stroke-miterlimit="10"/>
<path d="M206.747 37.0894L161.169 82.6672L206.747 128.245L252.325 82.6672L206.747 37.0894Z" stroke="#BDE5F4" stroke-width="2.76641" stroke-miterlimit="10"/>
<path d="M264.933 -21.3624L219.355 24.2153L264.933 69.7931L310.51 24.2154L264.933 -21.3624Z" stroke="#BDE5F4" stroke-width="2.76641" stroke-miterlimit="10"/>
<path d="M323.12 -79.4133L277.542 -33.8355L323.12 11.7423L368.698 -33.8355L323.12 -79.4133Z" stroke="#BDE5F4" stroke-width="2.76641" stroke-miterlimit="10"/>
<path d="M-390.508 -1049.73L-951.721 -488.517L-390.508 72.6968L170.706 -488.517L-390.508 -1049.73Z" stroke="url(#paint7_linear)" stroke-width="2.76641" stroke-miterlimit="10"/>
</g>
<defs>
<linearGradient id="paint0_linear" x1="842.011" y1="-1572.39" x2="-1156.56" y2="1334.63" gradientUnits="userSpaceOnUse">
<stop stop-color="#3DC7FC"/>
<stop offset="0.2855" stop-color="#28B7F4"/>
<stop offset="0.7359" stop-color="#0DA3E9"/>
<stop offset="1" stop-color="#039BE5"/>
</linearGradient>
<linearGradient id="paint1_linear" x1="676.406" y1="-1130.59" x2="-1034.52" y2="625.841" gradientUnits="userSpaceOnUse">
<stop offset="0.00214947" stop-color="#3DC7FC"/>
<stop offset="0.1956" stop-color="#2FBDF7"/>
<stop offset="0.7137" stop-color="#0FA4EA"/>
<stop offset="1" stop-color="#039BE5"/>
</linearGradient>
<linearGradient id="paint2_linear" x1="220.004" y1="-1347.57" x2="-1643.77" y2="429.881" gradientUnits="userSpaceOnUse">
<stop stop-color="#3DC7FC"/>
<stop offset="0.2843" stop-color="#28B7F4"/>
<stop offset="0.7357" stop-color="#0DA3E9"/>
<stop offset="1" stop-color="#039BE5"/>
</linearGradient>
<linearGradient id="paint3_linear" x1="1586.82" y1="-518.845" x2="-338.751" y2="1457.94" gradientUnits="userSpaceOnUse">
<stop offset="0.00214947" stop-color="#3DC7FC"/>
<stop offset="0.2871" stop-color="#28B7F4"/>
<stop offset="0.7365" stop-color="#0DA3E9"/>
<stop offset="1" stop-color="#039BE5"/>
</linearGradient>
<linearGradient id="paint4_linear" x1="957.663" y1="-487.132" x2="-302.807" y2="806.863" gradientUnits="userSpaceOnUse">
<stop offset="0.00214947" stop-color="#3DC7FC"/>
<stop offset="0.2871" stop-color="#28B7F4"/>
<stop offset="0.7365" stop-color="#0DA3E9"/>
<stop offset="1" stop-color="#039BE5"/>
</linearGradient>
<linearGradient id="paint5_linear" x1="-350.947" y1="323.672" x2="452.931" y2="761.556" gradientUnits="userSpaceOnUse">
<stop offset="0.00214947" stop-color="#05DDE2"/>
<stop offset="0.2675" stop-color="#18D6EB"/>
<stop offset="0.7293" stop-color="#33CBF7"/>
<stop offset="1" stop-color="#3DC7FC"/>
</linearGradient>
<linearGradient id="paint6_linear" x1="209.851" y1="108.077" x2="834.074" y2="448.1" gradientUnits="userSpaceOnUse">
<stop offset="0.00214947" stop-color="#05DDE2"/>
<stop offset="0.2675" stop-color="#18D6EB"/>
<stop offset="0.7293" stop-color="#33CBF7"/>
<stop offset="1" stop-color="#3DC7FC"/>
</linearGradient>
<linearGradient id="paint7_linear" x1="-865.024" y1="-746.916" x2="83.5956" y2="-230.189" gradientUnits="userSpaceOnUse">
<stop offset="0.00214947" stop-color="#05DDE2"/>
<stop offset="0.2675" stop-color="#18D6EB"/>
<stop offset="0.7293" stop-color="#33CBF7"/>
<stop offset="1" stop-color="#3DC7FC"/>
</linearGradient>
</defs>
</svg>
