<svg width="341" height="1024" viewBox="0 0 341 1024" fill="none" xmlns="http://www.w3.org/2000/svg">
<mask id="mask0" mask-type="alpha" maskUnits="userSpaceOnUse" x="0" y="0" width="341" height="1024">
<rect width="341" height="1024" fill="#C4C4C4"/>
</mask>
<g mask="url(#mask0)">
<path d="M802.27 -6.77979H-1272.54V1376.43H802.27V-6.77979Z" fill="url(#paint0_linear)"/>
<path d="M632.412 120.475L107.071 645.816L-418.271 120.475L107.071 -404.866L632.412 120.475Z" fill="url(#paint1_linear)"/>
<path d="M226.302 -6.78009L-491.304 711.103L-1209.19 -6.78009L-491.304 -724.664L226.302 -6.78009Z" fill="url(#paint2_linear)"/>
<path d="M1238.81 1241.7L520.926 1959.58L-196.681 1241.7L520.926 524.094L1238.81 1241.7Z" fill="url(#paint3_linear)"/>
<path d="M882.496 574.72L572.382 884.834L262.544 574.72L572.382 264.882L882.496 574.72Z" fill="url(#paint4_linear)"/>
<path d="M29.8885 1001.58C32.3783 1004.07 32.3783 1008.22 29.8885 1010.71C27.3988 1013.2 23.2492 1013.2 20.7594 1010.71C18.2696 1008.22 18.2696 1004.07 20.7594 1001.58C23.2492 999.087 27.3988 999.087 29.8885 1001.58Z" fill="#BDE5F4"/>
<path d="M106.968 676.554L-368.176 1151.7L106.968 1626.84L582.112 1151.7L106.968 676.554Z" stroke="url(#paint5_linear)" stroke-width="2.76641" stroke-miterlimit="10"/>
<path d="M577.89 518.577L209.356 887.112L577.89 1255.65L946.425 887.112L577.89 518.577Z" stroke="url(#paint6_linear)" stroke-width="2.76641" stroke-miterlimit="10"/>
<path d="M262.747 646.089L217.169 691.667L262.747 737.245L308.325 691.667L262.747 646.089Z" stroke="#BDE5F4" stroke-width="2.76641" stroke-miterlimit="10"/>
<path d="M320.933 587.638L275.355 633.215L320.933 678.793L366.51 633.215L320.933 587.638Z" stroke="#BDE5F4" stroke-width="2.76641" stroke-miterlimit="10"/>
<path d="M379.12 529.587L333.542 575.165L379.12 620.742L424.698 575.165L379.12 529.587Z" stroke="#BDE5F4" stroke-width="2.76641" stroke-miterlimit="10"/>
<path d="M-334.508 -440.73L-895.721 120.483L-334.508 681.697L226.706 120.483L-334.508 -440.73Z" stroke="url(#paint7_linear)" stroke-width="2.76641" stroke-miterlimit="10"/>
<path d="M205.352 -184.532L-111.345 132.165L205.352 448.862L522.049 132.165L205.352 -184.532Z" stroke="url(#paint8_linear)" stroke-width="2.76641" stroke-miterlimit="10"/>
</g>
<defs>
<linearGradient id="paint0_linear" x1="898.011" y1="-963.39" x2="-1100.56" y2="1943.63" gradientUnits="userSpaceOnUse">
<stop stop-color="#3DC7FC"/>
<stop offset="0.2855" stop-color="#28B7F4"/>
<stop offset="0.7359" stop-color="#0DA3E9"/>
<stop offset="1" stop-color="#039BE5"/>
</linearGradient>
<linearGradient id="paint1_linear" x1="732.406" y1="-521.589" x2="-978.519" y2="1234.84" gradientUnits="userSpaceOnUse">
<stop offset="0.00214947" stop-color="#3DC7FC"/>
<stop offset="0.1956" stop-color="#2FBDF7"/>
<stop offset="0.7137" stop-color="#0FA4EA"/>
<stop offset="1" stop-color="#039BE5"/>
</linearGradient>
<linearGradient id="paint2_linear" x1="276.004" y1="-738.569" x2="-1587.77" y2="1038.88" gradientUnits="userSpaceOnUse">
<stop stop-color="#3DC7FC"/>
<stop offset="0.2843" stop-color="#28B7F4"/>
<stop offset="0.7357" stop-color="#0DA3E9"/>
<stop offset="1" stop-color="#039BE5"/>
</linearGradient>
<linearGradient id="paint3_linear" x1="1642.82" y1="90.1554" x2="-282.751" y2="2066.94" gradientUnits="userSpaceOnUse">
<stop offset="0.00214947" stop-color="#3DC7FC"/>
<stop offset="0.2871" stop-color="#28B7F4"/>
<stop offset="0.7365" stop-color="#0DA3E9"/>
<stop offset="1" stop-color="#039BE5"/>
</linearGradient>
<linearGradient id="paint4_linear" x1="1013.66" y1="121.868" x2="-246.807" y2="1415.86" gradientUnits="userSpaceOnUse">
<stop offset="0.00214947" stop-color="#3DC7FC"/>
<stop offset="0.2871" stop-color="#28B7F4"/>
<stop offset="0.7365" stop-color="#0DA3E9"/>
<stop offset="1" stop-color="#039BE5"/>
</linearGradient>
<linearGradient id="paint5_linear" x1="-294.947" y1="932.672" x2="508.931" y2="1370.56" gradientUnits="userSpaceOnUse">
<stop offset="0.00214947" stop-color="#05DDE2"/>
<stop offset="0.2675" stop-color="#18D6EB"/>
<stop offset="0.7293" stop-color="#33CBF7"/>
<stop offset="1" stop-color="#3DC7FC"/>
</linearGradient>
<linearGradient id="paint6_linear" x1="265.851" y1="717.077" x2="890.074" y2="1057.1" gradientUnits="userSpaceOnUse">
<stop offset="0.00214947" stop-color="#05DDE2"/>
<stop offset="0.2675" stop-color="#18D6EB"/>
<stop offset="0.7293" stop-color="#33CBF7"/>
<stop offset="1" stop-color="#3DC7FC"/>
</linearGradient>
<linearGradient id="paint7_linear" x1="-809.024" y1="-137.916" x2="139.595" y2="378.811" gradientUnits="userSpaceOnUse">
<stop offset="0.00214947" stop-color="#05DDE2"/>
<stop offset="0.2675" stop-color="#18D6EB"/>
<stop offset="0.7293" stop-color="#33CBF7"/>
<stop offset="1" stop-color="#3DC7FC"/>
</linearGradient>
<linearGradient id="paint8_linear" x1="-63.1487" y1="-13.9513" x2="473.721" y2="278.49" gradientUnits="userSpaceOnUse">
<stop offset="0.00214947" stop-color="#05DDE2"/>
<stop offset="0.2675" stop-color="#18D6EB"/>
<stop offset="0.7293" stop-color="#33CBF7"/>
<stop offset="1" stop-color="#3DC7FC"/>
</linearGradient>
</defs>
</svg>
