<svg width="900" height="900" viewBox="0 0 900 900" fill="none" xmlns="http://www.w3.org/2000/svg">
<mask id="mask0" mask-type="alpha" maskUnits="userSpaceOnUse" x="0" y="0" width="900" height="901">
<rect width="900" height="901" fill="#C4C4C4"/>
</mask>
<g mask="url(#mask0)">
<path d="M900.273 -16.5154H-476V901H900.273V-16.5154Z" fill="url(#paint0_linear)"/>
<path d="M1354.81 -563.905H723.009V67.896H1354.81V-563.905Z" stroke="white" stroke-width="0.917515" stroke-miterlimit="10"/>
<path d="M1387.11 -531.609H755.306V100.192H1387.11V-531.609Z" stroke="white" stroke-width="0.917515" stroke-miterlimit="10"/>
<path d="M1419.4 -499.312H787.602V132.489H1419.4V-499.312Z" stroke="white" stroke-width="0.917515" stroke-miterlimit="10"/>
<path d="M1451.7 -467.015H819.898V164.786H1451.7V-467.015Z" stroke="white" stroke-width="0.917515" stroke-miterlimit="10"/>
<path d="M787.602 67.8961L439.13 416.368L90.6572 67.8961L439.13 -280.576L787.602 67.8961Z" fill="url(#paint1_linear)"/>
<path d="M518.219 -16.5154L42.2126 459.675L-433.978 -16.5154L42.2126 -492.706L518.219 -16.5154Z" fill="url(#paint2_linear)"/>
<path d="M1189.84 811.634L713.65 1287.82L237.643 811.634L713.65 335.627L1189.84 811.634Z" fill="url(#paint3_linear)"/>
<path d="M212.136 968.713L-264.054 1444.9L-740.061 968.713L-264.054 492.706L212.136 968.713Z" fill="url(#paint4_linear)"/>
<path d="M953.489 369.208L747.782 574.915L542.259 369.208L747.782 163.685L953.489 369.208Z" fill="url(#paint5_linear)"/>
<path d="M519.504 896.779C521.156 898.431 521.156 901.183 519.504 902.835C517.853 904.486 515.1 904.486 513.449 902.835C511.797 901.183 511.797 898.431 513.449 896.779C515.1 894.944 517.853 894.944 519.504 896.779Z" fill="#BDE5F4"/>
<path d="M538.405 877.879C540.057 879.53 540.057 882.283 538.405 883.934C536.754 885.586 534.001 885.586 532.349 883.934C530.698 882.283 530.698 879.53 532.349 877.879C534.001 876.227 536.754 876.227 538.405 877.879Z" fill="#BDE5F4"/>
<path d="M557.122 859.161C558.774 860.813 558.774 863.565 557.122 865.217C555.471 866.868 552.718 866.868 551.067 865.217C549.415 863.565 549.415 860.813 551.067 859.161C552.718 857.51 555.471 857.51 557.122 859.161Z" fill="#BDE5F4"/>
<path d="M576.023 840.26C577.675 841.912 577.675 844.664 576.023 846.316C574.372 847.968 571.619 847.968 569.968 846.316C568.316 844.664 568.316 841.912 569.968 840.26C571.436 838.609 574.188 838.609 576.023 840.26Z" fill="#BDE5F4"/>
<path d="M482.07 896.779C483.721 898.431 483.721 901.183 482.07 902.835C480.418 904.486 477.666 904.486 476.014 902.835C474.363 901.183 474.363 898.431 476.014 896.779C477.482 894.944 480.235 894.944 482.07 896.779Z" fill="#BDE5F4"/>
<path d="M500.787 877.879C502.438 879.53 502.438 882.283 500.787 883.934C499.135 885.586 496.383 885.586 494.731 883.934C493.08 882.283 493.08 879.53 494.731 877.879C496.383 876.227 499.135 876.227 500.787 877.879Z" fill="#BDE5F4"/>
<path d="M519.504 859.161C521.156 860.813 521.156 863.565 519.504 865.217C517.853 866.868 515.1 866.868 513.449 865.217C511.797 863.565 511.797 860.813 513.449 859.161C515.1 857.51 517.853 857.51 519.504 859.161Z" fill="#BDE5F4"/>
<path d="M538.405 840.26C540.057 841.912 540.057 844.664 538.405 846.316C536.754 847.968 534.001 847.968 532.349 846.316C530.698 844.664 530.698 841.912 532.349 840.26C534.001 838.609 536.754 838.609 538.405 840.26Z" fill="#BDE5F4"/>
<path d="M557.122 821.543C558.774 823.195 558.774 825.947 557.122 827.599C555.471 829.25 552.718 829.25 551.067 827.599C549.415 825.947 549.415 823.195 551.067 821.543C552.718 819.892 555.471 819.892 557.122 821.543Z" fill="#BDE5F4"/>
<path d="M441.332 904.119C443.764 904.119 445.736 902.148 445.736 899.715C445.736 897.283 443.764 895.311 441.332 895.311C438.899 895.311 436.928 897.283 436.928 899.715C436.928 902.148 438.899 904.119 441.332 904.119Z" fill="#BDE5F4"/>
<path d="M463.169 877.879C464.821 879.53 464.821 882.283 463.169 883.934C461.517 885.586 458.765 885.586 457.113 883.934C455.462 882.283 455.462 879.53 457.113 877.879C458.765 876.227 461.517 876.227 463.169 877.879Z" fill="#BDE5F4"/>
<path d="M482.07 859.161C483.721 860.813 483.721 863.565 482.07 865.217C480.418 866.868 477.666 866.868 476.014 865.217C474.363 863.565 474.363 860.813 476.014 859.161C477.482 857.51 480.235 857.51 482.07 859.161Z" fill="#BDE5F4"/>
<path d="M497.667 847.784C500.1 847.784 502.072 845.812 502.072 843.38C502.072 840.948 500.1 838.976 497.667 838.976C495.235 838.976 493.263 840.948 493.263 843.38C493.263 845.812 495.235 847.784 497.667 847.784Z" fill="#BDE5F4"/>
<path d="M519.504 821.543C521.156 823.195 521.156 825.947 519.504 827.599C517.853 829.25 515.1 829.25 513.449 827.599C511.797 825.947 511.797 823.195 513.449 821.543C515.1 819.892 517.853 819.892 519.504 821.543Z" fill="#BDE5F4"/>
<path d="M538.405 802.826C540.057 804.477 540.057 807.23 538.405 808.881C536.754 810.533 534.001 810.533 532.349 808.881C530.698 807.23 530.698 804.477 532.349 802.826C534.001 800.991 536.754 800.991 538.405 802.826Z" fill="#BDE5F4"/>
<path d="M406.833 896.779C408.485 898.431 408.485 901.183 406.833 902.835C405.182 904.486 402.429 904.486 400.778 902.835C399.126 901.183 399.126 898.431 400.778 896.779C402.429 894.944 405.182 894.944 406.833 896.779Z" fill="#BDE5F4"/>
<path d="M425.551 877.879C427.202 879.53 427.202 882.283 425.551 883.934C423.899 885.586 421.147 885.586 419.495 883.934C417.844 882.283 417.844 879.53 419.495 877.879C421.147 876.227 423.899 876.227 425.551 877.879Z" fill="#BDE5F4"/>
<path d="M444.452 859.161C446.103 860.813 446.103 863.565 444.452 865.217C442.8 866.868 440.047 866.868 438.396 865.217C436.744 863.565 436.744 860.813 438.396 859.161C440.047 857.51 442.616 857.51 444.452 859.161Z" fill="#BDE5F4"/>
<path d="M463.169 840.26C464.821 841.912 464.821 844.664 463.169 846.316C461.517 847.968 458.765 847.968 457.113 846.316C455.462 844.664 455.462 841.912 457.113 840.26C458.765 838.609 461.517 838.609 463.169 840.26Z" fill="#BDE5F4"/>
<path d="M482.07 821.543C483.721 823.195 483.721 825.947 482.07 827.599C480.418 829.25 477.666 829.25 476.014 827.599C474.363 825.947 474.363 823.195 476.014 821.543C477.482 819.892 480.235 819.892 482.07 821.543Z" fill="#BDE5F4"/>
<path d="M500.787 802.826C502.438 804.477 502.438 807.23 500.787 808.881C499.135 810.533 496.383 810.533 494.731 808.881C493.08 807.23 493.08 804.477 494.731 802.826C496.383 800.991 499.135 800.991 500.787 802.826Z" fill="#BDE5F4"/>
<path d="M519.504 783.925C521.156 785.577 521.156 788.329 519.504 789.981C517.853 791.632 515.1 791.632 513.449 789.981C511.797 788.329 511.797 785.577 513.449 783.925C515.1 782.273 517.853 782.273 519.504 783.925Z" fill="#BDE5F4"/>
<path d="M369.215 896.779C370.867 898.431 370.867 901.183 369.215 902.835C367.564 904.486 364.811 904.486 363.16 902.835C361.508 901.183 361.508 898.431 363.16 896.779C364.811 894.944 367.564 894.944 369.215 896.779Z" fill="#BDE5F4"/>
<path d="M387.933 877.879C389.584 879.53 389.584 882.283 387.933 883.934C386.281 885.586 383.529 885.586 381.877 883.934C380.226 882.283 380.226 879.53 381.877 877.879C383.529 876.227 386.281 876.227 387.933 877.879Z" fill="#BDE5F4"/>
<path d="M406.833 859.161C408.485 860.813 408.485 863.565 406.833 865.217C405.182 866.868 402.429 866.868 400.778 865.217C399.126 863.565 399.126 860.813 400.778 859.161C402.429 857.51 405.182 857.51 406.833 859.161Z" fill="#BDE5F4"/>
<path d="M425.551 840.26C427.202 841.912 427.202 844.664 425.551 846.316C423.899 847.968 421.147 847.968 419.495 846.316C417.844 844.664 417.844 841.912 419.495 840.26C421.147 838.609 423.899 838.609 425.551 840.26Z" fill="#BDE5F4"/>
<path d="M444.452 821.543C446.103 823.195 446.103 825.947 444.452 827.599C442.8 829.25 440.047 829.25 438.396 827.599C436.744 825.947 436.744 823.195 438.396 821.543C440.047 819.892 442.616 819.892 444.452 821.543Z" fill="#BDE5F4"/>
<path d="M463.169 802.826C464.821 804.477 464.821 807.23 463.169 808.881C461.517 810.533 458.765 810.533 457.113 808.881C455.462 807.23 455.462 804.477 457.113 802.826C458.765 800.991 461.517 800.991 463.169 802.826Z" fill="#BDE5F4"/>
<path d="M482.07 783.925C483.721 785.577 483.721 788.329 482.07 789.981C480.418 791.632 477.666 791.632 476.014 789.981C474.363 788.329 474.363 785.577 476.014 783.925C477.482 782.273 480.235 782.273 482.07 783.925Z" fill="#BDE5F4"/>
<path d="M500.787 765.208C502.438 766.859 502.438 769.612 500.787 771.263C499.135 772.915 496.383 772.915 494.731 771.263C493.08 769.612 493.08 766.859 494.731 765.208C496.383 763.556 499.135 763.556 500.787 765.208Z" fill="#BDE5F4"/>
<path d="M331.597 896.779C333.249 898.431 333.249 901.183 331.597 902.835C329.945 904.486 327.193 904.486 325.541 902.835C323.89 901.183 323.89 898.431 325.541 896.779C327.193 894.944 329.945 894.944 331.597 896.779Z" fill="#BDE5F4"/>
<path d="M350.498 877.879C352.15 879.53 352.15 882.283 350.498 883.934C348.847 885.586 346.094 885.586 344.443 883.934C342.791 882.283 342.791 879.53 344.443 877.879C346.094 876.227 348.663 876.227 350.498 877.879Z" fill="#BDE5F4"/>
<path d="M369.215 859.161C370.867 860.813 370.867 863.565 369.215 865.217C367.564 866.868 364.811 866.868 363.16 865.217C361.508 863.565 361.508 860.813 363.16 859.161C364.811 857.51 367.564 857.51 369.215 859.161Z" fill="#BDE5F4"/>
<path d="M387.933 840.26C389.584 841.912 389.584 844.664 387.933 846.316C386.281 847.968 383.529 847.968 381.877 846.316C380.226 844.664 380.226 841.912 381.877 840.26C383.529 838.609 386.281 838.609 387.933 840.26Z" fill="#BDE5F4"/>
<path d="M406.833 821.543C408.485 823.195 408.485 825.947 406.833 827.599C405.182 829.25 402.429 829.25 400.778 827.599C399.126 825.947 399.126 823.195 400.778 821.543C402.429 819.892 405.182 819.892 406.833 821.543Z" fill="#BDE5F4"/>
<path d="M425.551 802.826C427.202 804.477 427.202 807.23 425.551 808.881C423.899 810.533 421.147 810.533 419.495 808.881C417.844 807.23 417.844 804.477 419.495 802.826C421.147 801.174 423.899 800.991 425.551 802.826Z" fill="#BDE5F4"/>
<path d="M444.452 783.925C446.103 785.577 446.103 788.329 444.452 789.981C442.8 791.632 440.047 791.632 438.396 789.981C436.744 788.329 436.744 785.577 438.396 783.925C440.047 782.273 442.616 782.273 444.452 783.925Z" fill="#BDE5F4"/>
<path d="M463.169 765.208C464.821 766.859 464.821 769.612 463.169 771.263C461.517 772.915 458.765 772.915 457.113 771.263C455.462 769.612 455.462 766.859 457.113 765.208C458.765 763.556 461.517 763.556 463.169 765.208Z" fill="#BDE5F4"/>
<path d="M482.07 746.307C483.721 747.958 483.721 750.711 482.07 752.362C480.418 754.014 477.666 754.014 476.014 752.362C474.363 750.711 474.363 747.958 476.014 746.307C477.482 744.655 480.235 744.655 482.07 746.307Z" fill="#BDE5F4"/>
<path d="M291.043 904.119C293.475 904.119 295.447 902.148 295.447 899.715C295.447 897.283 293.475 895.311 291.043 895.311C288.611 895.311 286.639 897.283 286.639 899.715C286.639 902.148 288.611 904.119 291.043 904.119Z" fill="#BDE5F4"/>
<path d="M312.88 877.879C314.531 879.53 314.531 882.283 312.88 883.934C311.228 885.586 308.476 885.586 306.824 883.934C305.173 882.283 305.173 879.53 306.824 877.879C308.476 876.227 311.228 876.227 312.88 877.879Z" fill="#BDE5F4"/>
<path d="M331.597 859.161C333.249 860.813 333.249 863.565 331.597 865.217C329.945 866.868 327.193 866.868 325.541 865.217C323.89 863.565 323.89 860.813 325.541 859.161C327.193 857.51 329.945 857.51 331.597 859.161Z" fill="#BDE5F4"/>
<path d="M347.378 847.784C349.811 847.784 351.783 845.812 351.783 843.38C351.783 840.948 349.811 838.976 347.378 838.976C344.946 838.976 342.974 840.948 342.974 843.38C342.974 845.812 344.946 847.784 347.378 847.784Z" fill="#BDE5F4"/>
<path d="M369.215 821.543C370.867 823.195 370.867 825.947 369.215 827.599C367.564 829.25 364.811 829.25 363.16 827.599C361.508 825.947 361.508 823.195 363.16 821.543C364.811 819.892 367.564 819.892 369.215 821.543Z" fill="#BDE5F4"/>
<path d="M387.933 802.826C389.584 804.477 389.584 807.23 387.933 808.881C386.281 810.533 383.529 810.533 381.877 808.881C380.226 807.23 380.226 804.477 381.877 802.826C383.529 800.991 386.281 800.991 387.933 802.826Z" fill="#BDE5F4"/>
<path d="M406.833 783.925C408.485 785.577 408.485 788.329 406.833 789.981C405.182 791.632 402.429 791.632 400.778 789.981C399.126 788.329 399.126 785.577 400.778 783.925C402.429 782.273 405.182 782.273 406.833 783.925Z" fill="#BDE5F4"/>
<path d="M425.551 765.208C427.202 766.859 427.202 769.612 425.551 771.263C423.899 772.915 421.147 772.915 419.495 771.263C417.844 769.612 417.844 766.859 419.495 765.208C421.147 763.556 423.899 763.556 425.551 765.208Z" fill="#BDE5F4"/>
<path d="M441.332 753.83C443.764 753.83 445.736 751.859 445.736 749.426C445.736 746.994 443.764 745.022 441.332 745.022C438.899 745.022 436.928 746.994 436.928 749.426C436.928 751.859 438.899 753.83 441.332 753.83Z" fill="#BDE5F4"/>
<path d="M463.169 727.589C464.821 729.241 464.821 731.994 463.169 733.645C461.517 735.297 458.765 735.297 457.113 733.645C455.462 731.994 455.462 729.241 457.113 727.589C458.765 725.938 461.517 725.938 463.169 727.589Z" fill="#BDE5F4"/>
<path d="M275.262 877.879C276.913 879.53 276.913 882.283 275.262 883.934C273.61 885.586 270.858 885.586 269.206 883.934C267.555 882.283 267.555 879.53 269.206 877.879C270.858 876.227 273.61 876.227 275.262 877.879Z" fill="#BDE5F4"/>
<path d="M293.979 859.161C295.631 860.813 295.631 863.565 293.979 865.217C292.328 866.868 289.575 866.868 287.923 865.217C286.272 863.565 286.272 860.813 287.923 859.161C289.575 857.51 292.328 857.51 293.979 859.161Z" fill="#BDE5F4"/>
<path d="M312.88 840.26C314.531 841.912 314.531 844.664 312.88 846.316C311.228 847.968 308.476 847.968 306.824 846.316C305.173 844.664 305.173 841.912 306.824 840.26C308.476 838.609 311.228 838.609 312.88 840.26Z" fill="#BDE5F4"/>
<path d="M331.597 821.543C333.249 823.195 333.249 825.947 331.597 827.599C329.945 829.25 327.193 829.25 325.541 827.599C323.89 825.947 323.89 823.195 325.541 821.543C327.193 819.892 329.945 819.892 331.597 821.543Z" fill="#BDE5F4"/>
<path d="M350.498 802.826C352.15 804.477 352.15 807.23 350.498 808.881C348.847 810.533 346.094 810.533 344.443 808.881C342.791 807.23 342.791 804.477 344.443 802.826C346.094 801.174 348.663 800.991 350.498 802.826Z" fill="#BDE5F4"/>
<path d="M369.215 783.925C370.867 785.577 370.867 788.329 369.215 789.981C367.564 791.632 364.811 791.632 363.16 789.981C361.508 788.329 361.508 785.577 363.16 783.925C364.811 782.273 367.564 782.273 369.215 783.925Z" fill="#BDE5F4"/>
<path d="M387.933 765.208C389.584 766.859 389.584 769.612 387.933 771.263C386.281 772.915 383.529 772.915 381.877 771.263C380.226 769.612 380.226 766.859 381.877 765.208C383.529 763.556 386.281 763.556 387.933 765.208Z" fill="#BDE5F4"/>
<path d="M406.833 746.307C408.485 747.958 408.485 750.711 406.833 752.362C405.182 754.014 402.429 754.014 400.778 752.362C399.126 750.711 399.126 747.958 400.778 746.307C402.429 744.655 405.182 744.655 406.833 746.307Z" fill="#BDE5F4"/>
<path d="M425.551 727.589C427.202 729.241 427.202 731.994 425.551 733.645C423.899 735.297 421.147 735.297 419.495 733.645C417.844 731.994 417.844 729.241 419.495 727.589C421.147 725.938 423.899 725.938 425.551 727.589Z" fill="#BDE5F4"/>
<path d="M444.452 708.872C446.103 710.524 446.103 713.276 444.452 714.928C442.8 716.579 440.047 716.579 438.396 714.928C436.744 713.276 436.744 710.524 438.396 708.872C440.047 707.037 442.616 707.037 444.452 708.872Z" fill="#BDE5F4"/>
<path d="M256.545 859.161C258.196 860.813 258.196 863.565 256.545 865.217C254.893 866.868 252.14 866.868 250.489 865.217C248.837 863.565 248.837 860.813 250.489 859.161C251.957 857.51 254.709 857.51 256.545 859.161Z" fill="#BDE5F4"/>
<path d="M275.262 840.26C276.913 841.912 276.913 844.664 275.262 846.316C273.61 847.968 270.858 847.968 269.206 846.316C267.555 844.664 267.555 841.912 269.206 840.26C270.858 838.609 273.61 838.609 275.262 840.26Z" fill="#BDE5F4"/>
<path d="M293.979 821.543C295.631 823.195 295.631 825.947 293.979 827.599C292.328 829.25 289.575 829.25 287.923 827.599C286.272 825.947 286.272 823.195 287.923 821.543C289.575 819.892 292.328 819.892 293.979 821.543Z" fill="#BDE5F4"/>
<path d="M312.88 802.826C314.531 804.477 314.531 807.23 312.88 808.881C311.228 810.533 308.476 810.533 306.824 808.881C305.173 807.23 305.173 804.477 306.824 802.826C308.476 801.174 311.228 800.991 312.88 802.826Z" fill="#BDE5F4"/>
<path d="M331.597 783.925C333.249 785.577 333.249 788.329 331.597 789.981C329.945 791.632 327.193 791.632 325.541 789.981C323.89 788.329 323.89 785.577 325.541 783.925C327.193 782.273 329.945 782.273 331.597 783.925Z" fill="#BDE5F4"/>
<path d="M350.498 765.208C352.15 766.859 352.15 769.612 350.498 771.263C348.847 772.915 346.094 772.915 344.443 771.263C342.791 769.612 342.791 766.859 344.443 765.208C346.094 763.556 348.663 763.556 350.498 765.208Z" fill="#BDE5F4"/>
<path d="M369.215 746.307C370.867 747.958 370.867 750.711 369.215 752.362C367.564 754.014 364.811 754.014 363.16 752.362C361.508 750.711 361.508 747.958 363.16 746.307C364.811 744.655 367.564 744.655 369.215 746.307Z" fill="#BDE5F4"/>
<path d="M387.933 727.589C389.584 729.241 389.584 731.994 387.933 733.645C386.281 735.297 383.529 735.297 381.877 733.645C380.226 731.994 380.226 729.241 381.877 727.589C383.529 725.938 386.281 725.938 387.933 727.589Z" fill="#BDE5F4"/>
<path d="M406.833 708.872C408.485 710.524 408.485 713.276 406.833 714.928C405.182 716.579 402.429 716.579 400.778 714.928C399.126 713.276 399.126 710.524 400.778 708.872C402.429 707.221 405.182 707.037 406.833 708.872Z" fill="#BDE5F4"/>
<path d="M425.551 689.971C427.202 691.623 427.202 694.375 425.551 696.027C423.899 697.679 421.147 697.679 419.495 696.027C417.844 694.375 417.844 691.623 419.495 689.971C421.147 688.32 423.899 688.32 425.551 689.971Z" fill="#BDE5F4"/>
<path d="M234.708 847.784C237.14 847.784 239.112 845.812 239.112 843.38C239.112 840.948 237.14 838.976 234.708 838.976C232.275 838.976 230.303 840.948 230.303 843.38C230.303 845.812 232.275 847.784 234.708 847.784Z" fill="#BDE5F4"/>
<path d="M256.545 821.543C258.196 823.195 258.196 825.947 256.545 827.599C254.893 829.25 252.14 829.25 250.489 827.599C248.837 825.947 248.837 823.195 250.489 821.543C251.957 819.892 254.709 819.892 256.545 821.543Z" fill="#BDE5F4"/>
<path d="M275.262 802.826C276.913 804.477 276.913 807.23 275.262 808.881C273.61 810.533 270.858 810.533 269.206 808.881C267.555 807.23 267.555 804.477 269.206 802.826C270.858 800.991 273.61 800.991 275.262 802.826Z" fill="#BDE5F4"/>
<path d="M293.979 783.925C295.631 785.577 295.631 788.329 293.979 789.981C292.328 791.632 289.575 791.632 287.923 789.981C286.272 788.329 286.272 785.577 287.923 783.925C289.575 782.273 292.328 782.273 293.979 783.925Z" fill="#BDE5F4"/>
<path d="M312.88 765.208C314.531 766.859 314.531 769.612 312.88 771.263C311.228 772.915 308.476 772.915 306.824 771.263C305.173 769.612 305.173 766.859 306.824 765.208C308.476 763.556 311.228 763.556 312.88 765.208Z" fill="#BDE5F4"/>
<path d="M331.597 746.307C333.249 747.958 333.249 750.711 331.597 752.362C329.945 754.014 327.193 754.014 325.541 752.362C323.89 750.711 323.89 747.958 325.541 746.307C327.193 744.655 329.945 744.655 331.597 746.307Z" fill="#BDE5F4"/>
<path d="M347.378 735.113C349.811 735.113 351.783 733.141 351.783 730.709C351.783 728.277 349.811 726.305 347.378 726.305C344.946 726.305 342.974 728.277 342.974 730.709C342.974 733.141 344.946 735.113 347.378 735.113Z" fill="#BDE5F4"/>
<path d="M369.215 708.872C370.867 710.524 370.867 713.276 369.215 714.928C367.564 716.579 364.811 716.579 363.16 714.928C361.508 713.276 361.508 710.524 363.16 708.872C364.811 707.037 367.564 707.037 369.215 708.872Z" fill="#BDE5F4"/>
<path d="M387.933 689.971C389.584 691.623 389.584 694.375 387.933 696.027C386.281 697.679 383.529 697.679 381.877 696.027C380.226 694.375 380.226 691.623 381.877 689.971C383.529 688.32 386.281 688.32 387.933 689.971Z" fill="#BDE5F4"/>
<path d="M406.833 671.254C408.485 672.906 408.485 675.658 406.833 677.31C405.182 678.961 402.429 678.961 400.778 677.31C399.126 675.658 399.126 672.906 400.778 671.254C402.429 669.602 405.182 669.602 406.833 671.254Z" fill="#BDE5F4"/>
<path d="M218.926 821.543C220.578 823.195 220.578 825.947 218.926 827.599C217.275 829.25 214.522 829.25 212.871 827.599C211.219 825.947 211.219 823.195 212.871 821.543C214.522 819.892 217.275 819.892 218.926 821.543Z" fill="#BDE5F4"/>
<path d="M237.644 802.826C239.295 804.477 239.295 807.23 237.644 808.881C235.992 810.533 233.24 810.533 231.588 808.881C229.936 807.23 229.936 804.477 231.588 802.826C233.24 801.174 235.992 800.991 237.644 802.826Z" fill="#BDE5F4"/>
<path d="M256.545 783.925C258.196 785.577 258.196 788.329 256.545 789.981C254.893 791.632 252.14 791.632 250.489 789.981C248.837 788.329 248.837 785.577 250.489 783.925C251.957 782.273 254.709 782.273 256.545 783.925Z" fill="#BDE5F4"/>
<path d="M275.262 765.208C276.913 766.859 276.913 769.612 275.262 771.263C273.61 772.915 270.858 772.915 269.206 771.263C267.555 769.612 267.555 766.859 269.206 765.208C270.858 763.556 273.61 763.556 275.262 765.208Z" fill="#BDE5F4"/>
<path d="M291.043 753.83C293.475 753.83 295.447 751.859 295.447 749.426C295.447 746.994 293.475 745.022 291.043 745.022C288.611 745.022 286.639 746.994 286.639 749.426C286.639 751.859 288.611 753.83 291.043 753.83Z" fill="#BDE5F4"/>
<path d="M312.88 727.589C314.531 729.241 314.531 731.994 312.88 733.645C311.228 735.297 308.476 735.297 306.824 733.645C305.173 731.994 305.173 729.241 306.824 727.589C308.476 725.938 311.228 725.938 312.88 727.589Z" fill="#BDE5F4"/>
<path d="M331.597 708.872C333.249 710.524 333.249 713.276 331.597 714.928C329.945 716.579 327.193 716.579 325.541 714.928C323.89 713.276 323.89 710.524 325.541 708.872C327.193 707.221 329.945 707.037 331.597 708.872Z" fill="#BDE5F4"/>
<path d="M350.498 689.971C352.15 691.623 352.15 694.375 350.498 696.027C348.847 697.679 346.094 697.679 344.443 696.027C342.791 694.375 342.791 691.623 344.443 689.971C346.094 688.32 348.663 688.32 350.498 689.971Z" fill="#BDE5F4"/>
<path d="M369.215 671.254C370.867 672.906 370.867 675.658 369.215 677.31C367.564 678.961 364.811 678.961 363.16 677.31C361.508 675.658 361.508 672.906 363.16 671.254C364.811 669.602 367.564 669.602 369.215 671.254Z" fill="#BDE5F4"/>
<path d="M387.933 652.353C389.584 654.005 389.584 656.757 387.933 658.409C386.281 660.06 383.529 660.06 381.877 658.409C380.226 656.757 380.226 654.005 381.877 652.353C383.529 650.702 386.281 650.702 387.933 652.353Z" fill="#BDE5F4"/>
<path d="M250.305 896.779C251.957 895.128 254.709 895.128 256.361 896.779C258.012 898.431 258.012 901.183 256.361 902.835C254.709 904.486 251.957 904.486 250.305 902.835C248.654 901.183 248.654 898.431 250.305 896.779Z" fill="#BDE5F4"/>
<path d="M231.588 877.879C233.24 876.227 235.992 876.227 237.644 877.879C239.295 879.53 239.295 882.283 237.644 883.934C235.992 885.586 233.24 885.586 231.588 883.934C229.936 882.283 229.936 879.53 231.588 877.879Z" fill="#BDE5F4"/>
<path d="M212.687 859.161C214.339 857.51 217.091 857.51 218.743 859.161C220.394 860.813 220.394 863.565 218.743 865.217C217.091 866.868 214.339 866.868 212.687 865.217C211.036 863.565 211.036 860.813 212.687 859.161Z" fill="#BDE5F4"/>
<path d="M193.97 840.26C195.621 838.609 198.374 838.609 200.025 840.26C201.677 841.912 201.677 844.664 200.025 846.316C198.374 847.968 195.621 847.968 193.97 846.316C192.318 844.848 192.318 842.095 193.97 840.26Z" fill="#BDE5F4"/>
<path d="M-0.91061 707.404C0.740917 709.056 0.740917 711.808 -0.91061 713.46C-2.56214 715.111 -5.31466 715.111 -6.96619 713.46C-8.61772 711.808 -8.61772 709.056 -6.96619 707.404C-5.49816 705.753 -2.74564 705.753 -0.91061 707.404Z" fill="#11B2F2"/>
<path d="M17.8067 688.687C19.4583 690.338 19.4583 693.091 17.8067 694.743C16.1552 696.394 13.4026 696.394 11.7511 694.743C10.0996 693.091 10.0996 690.338 11.7511 688.687C13.4026 687.035 16.1552 687.035 17.8067 688.687Z" fill="#11B2F2"/>
<path d="M36.5242 669.786C38.1757 671.438 38.1757 674.19 36.5242 675.842C34.8727 677.493 32.1202 677.493 30.4686 675.842C28.8171 674.19 28.8171 671.438 30.4686 669.786C32.1202 668.135 34.8727 668.135 36.5242 669.786Z" fill="#11B2F2"/>
<path d="M55.4249 651.069C57.0764 652.72 57.0764 655.473 55.4249 657.124C53.7734 658.776 51.0208 658.776 49.3693 657.124C47.7177 655.473 47.7177 652.72 49.3693 651.069C51.0208 649.417 53.7734 649.417 55.4249 651.069Z" fill="#11B2F2"/>
<path d="M74.1424 632.351C75.7939 634.003 75.7939 636.756 74.1424 638.407C72.4908 640.059 69.7383 640.059 68.0868 638.407C66.4353 636.756 66.4353 634.003 68.0868 632.351C69.7383 630.516 72.4908 630.516 74.1424 632.351Z" fill="#11B2F2"/>
<path d="M93.0431 613.451C94.6946 615.102 94.6946 617.855 93.0431 619.506C91.3915 621.158 88.639 621.158 86.9874 619.506C85.3359 617.855 85.3359 615.102 86.9874 613.451C88.4554 611.799 91.208 611.799 93.0431 613.451Z" fill="#11B2F2"/>
<path d="M108.641 602.074C111.073 602.074 113.045 600.102 113.045 597.669C113.045 595.237 111.073 593.265 108.641 593.265C106.209 593.265 104.237 595.237 104.237 597.669C104.237 600.102 106.209 602.074 108.641 602.074Z" fill="#11B2F2"/>
<path d="M130.478 575.833C132.129 577.484 132.129 580.237 130.478 581.888C128.826 583.54 126.074 583.54 124.422 581.888C122.77 580.237 122.77 577.484 124.422 575.833C126.074 574.181 128.826 574.181 130.478 575.833Z" fill="#11B2F2"/>
<path d="M149.379 557.115C151.03 558.767 151.03 561.519 149.379 563.171C147.727 564.822 144.975 564.822 143.323 563.171C141.672 561.519 141.672 558.767 143.323 557.115C144.975 555.464 147.727 555.464 149.379 557.115Z" fill="#11B2F2"/>
<path d="M168.096 538.398C169.747 540.049 169.747 542.802 168.096 544.454C166.444 546.105 163.692 546.105 162.04 544.454C160.389 542.802 160.389 540.049 162.04 538.398C163.692 536.563 166.444 536.563 168.096 538.398Z" fill="#11B2F2"/>
<path d="M186.997 519.497C188.648 521.149 188.648 523.901 186.997 525.553C185.345 527.204 182.593 527.204 180.941 525.553C179.29 523.901 179.29 521.149 180.941 519.497C182.593 517.846 185.162 517.846 186.997 519.497Z" fill="#11B2F2"/>
<path d="M-0.91061 669.786C0.740917 671.438 0.740917 674.19 -0.91061 675.842C-2.56214 677.493 -5.31466 677.493 -6.96619 675.842C-8.61772 674.19 -8.61772 671.438 -6.96619 669.786C-5.49816 668.135 -2.74564 668.135 -0.91061 669.786Z" fill="#11B2F2"/>
<path d="M17.8067 651.069C19.4583 652.72 19.4583 655.473 17.8067 657.124C16.1552 658.776 13.4026 658.776 11.7511 657.124C10.0996 655.473 10.0996 652.72 11.7511 651.069C13.4026 649.417 16.1552 649.417 17.8067 651.069Z" fill="#11B2F2"/>
<path d="M36.5242 632.351C38.1757 634.003 38.1757 636.756 36.5242 638.407C34.8727 640.059 32.1202 640.059 30.4686 638.407C28.8171 636.756 28.8171 634.003 30.4686 632.351C32.1202 630.516 34.8727 630.516 36.5242 632.351Z" fill="#11B2F2"/>
<path d="M55.4249 613.451C57.0764 615.102 57.0764 617.855 55.4249 619.506C53.7734 621.158 51.0208 621.158 49.3693 619.506C47.7177 617.855 47.7177 615.102 49.3693 613.451C51.0208 611.799 53.7734 611.799 55.4249 613.451Z" fill="#11B2F2"/>
<path d="M74.1424 594.733C75.7939 596.385 75.7939 599.137 74.1424 600.789C72.4908 602.441 69.7383 602.441 68.0868 600.789C66.4353 599.137 66.4353 596.385 68.0868 594.733C69.7383 593.082 72.4908 593.082 74.1424 594.733Z" fill="#11B2F2"/>
<path d="M93.0431 575.833C94.6946 577.484 94.6946 580.237 93.0431 581.888C91.3915 583.54 88.639 583.54 86.9874 581.888C85.3359 580.237 85.3359 577.484 86.9874 575.833C88.4554 574.181 91.208 574.181 93.0431 575.833Z" fill="#11B2F2"/>
<path d="M111.76 557.115C113.412 558.767 113.412 561.519 111.76 563.171C110.109 564.822 107.356 564.822 105.705 563.171C104.053 561.519 104.053 558.767 105.705 557.115C107.356 555.464 110.109 555.464 111.76 557.115Z" fill="#11B2F2"/>
<path d="M130.478 538.398C132.129 540.049 132.129 542.802 130.478 544.454C128.826 546.105 126.074 546.105 124.422 544.454C122.77 542.802 122.77 540.049 124.422 538.398C126.074 536.563 128.826 536.563 130.478 538.398Z" fill="#11B2F2"/>
<path d="M149.379 519.497C151.03 521.149 151.03 523.901 149.379 525.553C147.727 527.204 144.975 527.204 143.323 525.553C141.672 523.901 141.672 521.149 143.323 519.497C144.975 517.846 147.727 517.846 149.379 519.497Z" fill="#11B2F2"/>
<path d="M168.096 500.78C169.747 502.431 169.747 505.184 168.096 506.835C166.444 508.487 163.692 508.487 162.04 506.835C160.389 505.184 160.389 502.431 162.04 500.78C163.692 499.128 166.444 499.128 168.096 500.78Z" fill="#11B2F2"/>
<path d="M-4.02999 639.692C-1.59769 639.692 0.374069 637.72 0.374069 635.288C0.374069 632.855 -1.59769 630.883 -4.02999 630.883C-6.46229 630.883 -8.43408 632.855 -8.43408 635.288C-8.43408 637.72 -6.46229 639.692 -4.02999 639.692Z" fill="#11B2F2"/>
<path d="M17.8067 613.451C19.4583 615.102 19.4583 617.855 17.8067 619.506C16.1552 621.158 13.4026 621.158 11.7511 619.506C10.0996 617.855 10.0996 615.102 11.7511 613.451C13.4026 611.799 16.1552 611.799 17.8067 613.451Z" fill="#11B2F2"/>
<path d="M36.5242 594.733C38.1757 596.385 38.1757 599.137 36.5242 600.789C34.8727 602.441 32.1202 602.441 30.4686 600.789C28.8171 599.137 28.8171 596.385 30.4686 594.733C32.1202 593.082 34.8727 593.082 36.5242 594.733Z" fill="#11B2F2"/>
<path d="M52.3054 583.356C54.7377 583.356 56.7095 581.384 56.7095 578.952C56.7095 576.52 54.7377 574.548 52.3054 574.548C49.8731 574.548 47.9014 576.52 47.9014 578.952C47.9014 581.384 49.8731 583.356 52.3054 583.356Z" fill="#11B2F2"/>
<path d="M74.1424 557.115C75.7939 558.767 75.7939 561.519 74.1424 563.171C72.4908 564.822 69.7383 564.822 68.0868 563.171C66.4353 561.519 66.4353 558.767 68.0868 557.115C69.7383 555.464 72.4908 555.464 74.1424 557.115Z" fill="#11B2F2"/>
<path d="M93.0431 538.398C94.6946 540.049 94.6946 542.802 93.0431 544.454C91.3915 546.105 88.639 546.105 86.9874 544.454C85.3359 542.802 85.3359 540.049 86.9874 538.398C88.4554 536.563 91.208 536.563 93.0431 538.398Z" fill="#11B2F2"/>
<path d="M111.76 519.497C113.412 521.149 113.412 523.901 111.76 525.553C110.109 527.204 107.356 527.204 105.705 525.553C104.053 523.901 104.053 521.149 105.705 519.497C107.356 517.846 110.109 517.846 111.76 519.497Z" fill="#11B2F2"/>
<path d="M130.478 500.78C132.129 502.431 132.129 505.184 130.478 506.835C128.826 508.487 126.074 508.487 124.422 506.835C122.77 505.184 122.77 502.431 124.422 500.78C126.074 499.128 128.826 499.128 130.478 500.78Z" fill="#11B2F2"/>
<path d="M146.259 489.403C148.691 489.403 150.663 487.431 150.663 484.999C150.663 482.566 148.691 480.594 146.259 480.594C143.827 480.594 141.855 482.566 141.855 484.999C141.855 487.431 143.827 489.403 146.259 489.403Z" fill="#11B2F2"/>
<path d="M-4.02999 602.074C-1.59769 602.074 0.374069 600.102 0.374069 597.669C0.374069 595.237 -1.59769 593.265 -4.02999 593.265C-6.46229 593.265 -8.43408 595.237 -8.43408 597.669C-8.43408 600.102 -6.46229 602.074 -4.02999 602.074Z" fill="#11B2F2"/>
<path d="M17.8067 575.833C19.4583 577.484 19.4583 580.237 17.8067 581.888C16.1552 583.54 13.4026 583.54 11.7511 581.888C10.0996 580.237 10.0996 577.484 11.7511 575.833C13.4026 574.181 16.1552 574.181 17.8067 575.833Z" fill="#11B2F2"/>
<path d="M36.5242 557.115C38.1757 558.767 38.1757 561.519 36.5242 563.171C34.8727 564.822 32.1202 564.822 30.4686 563.171C28.8171 561.519 28.8171 558.767 30.4686 557.115C32.1202 555.464 34.8727 555.464 36.5242 557.115Z" fill="#11B2F2"/>
<path d="M55.4249 538.398C57.0764 540.049 57.0764 542.802 55.4249 544.454C53.7734 546.105 51.0208 546.105 49.3693 544.454C47.7177 542.802 47.7177 540.049 49.3693 538.398C51.0208 536.563 53.7734 536.563 55.4249 538.398Z" fill="#11B2F2"/>
<path d="M74.1424 519.497C75.7939 521.149 75.7939 523.901 74.1424 525.553C72.4908 527.204 69.7383 527.204 68.0868 525.553C66.4353 523.901 66.4353 521.149 68.0868 519.497C69.7383 517.846 72.4908 517.846 74.1424 519.497Z" fill="#11B2F2"/>
<path d="M93.0431 500.78C94.6946 502.431 94.6946 505.184 93.0431 506.835C91.3915 508.487 88.639 508.487 86.9874 506.835C85.3359 505.184 85.3359 502.431 86.9874 500.78C88.4554 499.128 91.208 499.128 93.0431 500.78Z" fill="#11B2F2"/>
<path d="M108.641 489.403C111.073 489.403 113.045 487.431 113.045 484.999C113.045 482.566 111.073 480.594 108.641 480.594C106.209 480.594 104.237 482.566 104.237 484.999C104.237 487.431 106.209 489.403 108.641 489.403Z" fill="#11B2F2"/>
<path d="M130.478 463.162C132.129 464.813 132.129 467.566 130.478 469.217C128.826 470.869 126.074 470.869 124.422 469.217C122.77 467.566 122.77 464.813 124.422 463.162C126.074 461.51 128.826 461.51 130.478 463.162Z" fill="#11B2F2"/>
<path d="M-0.91061 557.115C0.740917 558.767 0.740917 561.519 -0.91061 563.171C-2.56214 564.822 -5.31466 564.822 -6.96619 563.171C-8.61772 561.519 -8.61772 558.767 -6.96619 557.115C-5.49816 555.464 -2.74564 555.464 -0.91061 557.115Z" fill="#11B2F2"/>
<path d="M17.8067 538.398C19.4583 540.049 19.4583 542.802 17.8067 544.454C16.1552 546.105 13.4026 546.105 11.7511 544.454C10.0996 542.802 10.0996 540.049 11.7511 538.398C13.4026 536.563 16.1552 536.563 17.8067 538.398Z" fill="#11B2F2"/>
<path d="M36.5242 519.497C38.1757 521.149 38.1757 523.901 36.5242 525.553C34.8727 527.204 32.1202 527.204 30.4686 525.553C28.8171 523.901 28.8171 521.149 30.4686 519.497C32.1202 517.846 34.8727 517.846 36.5242 519.497Z" fill="#11B2F2"/>
<path d="M55.4249 500.78C57.0764 502.431 57.0764 505.184 55.4249 506.835C53.7734 508.487 51.0208 508.487 49.3693 506.835C47.7177 505.184 47.7177 502.431 49.3693 500.78C51.0208 499.128 53.7734 499.128 55.4249 500.78Z" fill="#11B2F2"/>
<path d="M74.1424 481.879C75.7939 483.531 75.7939 486.283 74.1424 487.935C72.4908 489.586 69.7383 489.586 68.0868 487.935C66.4353 486.283 66.4353 483.531 68.0868 481.879C69.7383 480.227 72.4908 480.227 74.1424 481.879Z" fill="#11B2F2"/>
<path d="M93.0431 463.162C94.6946 464.813 94.6946 467.566 93.0431 469.217C91.3915 470.869 88.639 470.869 86.9874 469.217C85.3359 467.566 85.3359 464.813 86.9874 463.162C88.4554 461.51 91.208 461.51 93.0431 463.162Z" fill="#11B2F2"/>
<path d="M111.76 444.444C113.412 446.096 113.412 448.848 111.76 450.5C110.109 452.152 107.356 452.152 105.705 450.5C104.053 448.848 104.053 446.096 105.705 444.444C107.356 442.609 110.109 442.609 111.76 444.444Z" fill="#11B2F2"/>
<path d="M-0.91061 519.497C0.740917 521.149 0.740917 523.901 -0.91061 525.553C-2.56214 527.204 -5.31466 527.204 -6.96619 525.553C-8.61772 523.901 -8.61772 521.149 -6.96619 519.497C-5.49816 517.846 -2.74564 517.846 -0.91061 519.497Z" fill="#11B2F2"/>
<path d="M17.8067 500.78C19.4583 502.431 19.4583 505.184 17.8067 506.835C16.1552 508.487 13.4026 508.487 11.7511 506.835C10.0996 505.184 10.0996 502.431 11.7511 500.78C13.4026 499.128 16.1552 499.128 17.8067 500.78Z" fill="#11B2F2"/>
<path d="M36.5242 481.879C38.1757 483.531 38.1757 486.283 36.5242 487.935C34.8727 489.586 32.1202 489.586 30.4686 487.935C28.8171 486.283 28.8171 483.531 30.4686 481.879C32.1202 480.227 34.8727 480.227 36.5242 481.879Z" fill="#11B2F2"/>
<path d="M55.4249 463.162C57.0764 464.813 57.0764 467.566 55.4249 469.217C53.7734 470.869 51.0208 470.869 49.3693 469.217C47.7177 467.566 47.7177 464.813 49.3693 463.162C51.0208 461.51 53.7734 461.51 55.4249 463.162Z" fill="#11B2F2"/>
<path d="M74.1424 444.444C75.7939 446.096 75.7939 448.848 74.1424 450.5C72.4908 452.152 69.7383 452.152 68.0868 450.5C66.4353 448.848 66.4353 446.096 68.0868 444.444C69.7383 442.609 72.4908 442.609 74.1424 444.444Z" fill="#11B2F2"/>
<path d="M93.0431 425.544C94.6946 427.195 94.6946 429.948 93.0431 431.599C91.3915 433.251 88.639 433.251 86.9874 431.599C85.3359 429.948 85.3359 427.195 86.9874 425.544C88.4554 423.892 91.208 423.892 93.0431 425.544Z" fill="#11B2F2"/>
<path d="M-4.02999 489.403C-1.59769 489.403 0.374069 487.431 0.374069 484.999C0.374069 482.566 -1.59769 480.594 -4.02999 480.594C-6.46229 480.594 -8.43408 482.566 -8.43408 484.999C-8.43408 487.431 -6.46229 489.403 -4.02999 489.403Z" fill="#11B2F2"/>
<path d="M17.8067 463.162C19.4583 464.813 19.4583 467.566 17.8067 469.217C16.1552 470.869 13.4026 470.869 11.7511 469.217C10.0996 467.566 10.0996 464.813 11.7511 463.162C13.4026 461.51 16.1552 461.51 17.8067 463.162Z" fill="#11B2F2"/>
<path d="M36.5242 444.444C38.1757 446.096 38.1757 448.848 36.5242 450.5C34.8727 452.152 32.1202 452.152 30.4686 450.5C28.8171 448.848 28.8171 446.096 30.4686 444.444C32.1202 442.609 34.8727 442.609 36.5242 444.444Z" fill="#11B2F2"/>
<path d="M52.3054 433.067C54.7377 433.067 56.7095 431.095 56.7095 428.663C56.7095 426.231 54.7377 424.259 52.3054 424.259C49.8731 424.259 47.9014 426.231 47.9014 428.663C47.9014 431.095 49.8731 433.067 52.3054 433.067Z" fill="#11B2F2"/>
<path d="M74.1424 406.826C75.7939 408.478 75.7939 411.23 74.1424 412.882C72.4908 414.533 69.7383 414.533 68.0868 412.882C66.4353 411.23 66.4353 408.478 68.0868 406.826C69.7383 404.991 72.4908 404.991 74.1424 406.826Z" fill="#11B2F2"/>
<path d="M-0.91061 444.444C0.740917 446.096 0.740917 448.848 -0.91061 450.5C-2.56214 452.152 -5.31466 452.152 -6.96619 450.5C-8.61772 448.848 -8.61772 446.096 -6.96619 444.444C-5.49816 442.609 -2.74564 442.609 -0.91061 444.444Z" fill="#11B2F2"/>
<path d="M17.8067 425.544C19.4583 427.195 19.4583 429.948 17.8067 431.599C16.1552 433.251 13.4026 433.251 11.7511 431.599C10.0996 429.948 10.0996 427.195 11.7511 425.544C13.4026 423.892 16.1552 423.892 17.8067 425.544Z" fill="#11B2F2"/>
<path d="M36.5242 406.826C38.1757 408.478 38.1757 411.23 36.5242 412.882C34.8727 414.533 32.1202 414.533 30.4686 412.882C28.8171 411.23 28.8171 408.478 30.4686 406.826C32.1202 404.991 34.8727 404.991 36.5242 406.826Z" fill="#11B2F2"/>
<path d="M55.4249 387.925C57.0764 389.577 57.0764 392.329 55.4249 393.981C53.7734 395.633 51.0208 395.633 49.3693 393.981C47.7177 392.329 47.7177 389.577 49.3693 387.925C51.0208 386.274 53.7734 386.274 55.4249 387.925Z" fill="#11B2F2"/>
<path d="M-0.91061 406.826C0.740917 408.478 0.740917 411.23 -0.91061 412.882C-2.56214 414.533 -5.31466 414.533 -6.96619 412.882C-8.61772 411.23 -8.61772 408.478 -6.96619 406.826C-5.49816 404.991 -2.74564 404.991 -0.91061 406.826Z" fill="#11B2F2"/>
<path d="M17.8067 387.925C19.4583 389.577 19.4583 392.329 17.8067 393.981C16.1552 395.633 13.4026 395.633 11.7511 393.981C10.0996 392.329 10.0996 389.577 11.7511 387.925C13.4026 386.274 16.1552 386.274 17.8067 387.925Z" fill="#11B2F2"/>
<path d="M36.5242 369.208C38.1757 370.86 38.1757 373.612 36.5242 375.264C34.8727 376.915 32.1202 376.915 30.4686 375.264C28.8171 373.612 28.8171 370.86 30.4686 369.208C32.1202 367.557 34.8727 367.557 36.5242 369.208Z" fill="#11B2F2"/>
<path d="M-4.02999 376.732C-1.59769 376.732 0.374069 374.76 0.374069 372.328C0.374069 369.895 -1.59769 367.924 -4.02999 367.924C-6.46229 367.924 -8.43408 369.895 -8.43408 372.328C-8.43408 374.76 -6.46229 376.732 -4.02999 376.732Z" fill="#11B2F2"/>
<path d="M17.8067 350.307C19.4583 351.959 19.4583 354.711 17.8067 356.363C16.1552 358.014 13.4026 358.014 11.7511 356.363C10.0996 354.711 10.0996 351.959 11.7511 350.307C13.4026 348.656 16.1552 348.656 17.8067 350.307Z" fill="#11B2F2"/>
<path d="M-0.91061 331.59C0.740917 333.241 0.740917 335.994 -0.91061 337.646C-2.56214 339.297 -5.31466 339.297 -6.96619 337.646C-8.61772 335.994 -8.61772 333.241 -6.96619 331.59C-5.49816 329.938 -2.74564 329.938 -0.91061 331.59Z" fill="#11B2F2"/>
<path d="M204.429 144.417C206.081 146.068 206.081 148.821 204.429 150.472C202.778 152.124 200.025 152.124 198.374 150.472C196.722 148.821 196.722 146.068 198.374 144.417C200.025 142.765 202.778 142.765 204.429 144.417Z" fill="#BDE5F4"/>
<path d="M223.33 125.699C224.982 127.351 224.982 130.104 223.33 131.755C221.679 133.407 218.926 133.407 217.275 131.755C215.623 130.104 215.623 127.351 217.275 125.699C218.743 124.048 221.495 124.048 223.33 125.699Z" fill="#BDE5F4"/>
<path d="M242.047 106.982C243.699 108.634 243.699 111.386 242.047 113.038C240.396 114.689 237.643 114.689 235.992 113.038C234.34 111.386 234.34 108.634 235.992 106.982C237.643 105.147 240.396 105.147 242.047 106.982Z" fill="#BDE5F4"/>
<path d="M260.765 88.0814C262.416 89.7329 262.416 92.4855 260.765 94.137C259.113 95.7885 256.361 95.7885 254.709 94.137C253.058 92.4855 253.058 89.7329 254.709 88.0814C256.361 86.4299 259.113 86.4299 260.765 88.0814Z" fill="#BDE5F4"/>
<path d="M276.546 76.8877C278.978 76.8877 280.95 74.916 280.95 72.4837C280.95 70.0514 278.978 68.0796 276.546 68.0796C274.114 68.0796 272.142 70.0514 272.142 72.4837C272.142 74.916 274.114 76.8877 276.546 76.8877Z" fill="#BDE5F4"/>
<path d="M298.383 50.4633C300.034 52.1148 300.034 54.8673 298.383 56.5189C296.731 58.1704 293.979 58.1704 292.327 56.5189C290.676 54.8673 290.676 52.1148 292.327 50.4633C293.979 48.8117 296.731 48.8117 298.383 50.4633Z" fill="#BDE5F4"/>
<path d="M317.284 31.746C318.935 33.3975 318.935 36.15 317.284 37.8016C315.632 39.4531 312.88 39.4531 311.228 37.8016C309.577 36.15 309.577 33.3975 311.228 31.746C312.696 30.0944 315.449 30.0944 317.284 31.746Z" fill="#BDE5F4"/>
<path d="M336.001 13.0286C337.653 14.6801 337.653 17.4327 336.001 19.0842C334.349 20.7357 331.597 20.7357 329.945 19.0842C328.294 17.4327 328.294 14.6801 329.945 13.0286C331.597 11.1936 334.349 11.1936 336.001 13.0286Z" fill="#BDE5F4"/>
<path d="M354.719 -5.87219C356.37 -4.22067 356.37 -1.46812 354.719 0.183407C353.067 1.83493 350.314 1.83493 348.663 0.183407C347.011 -1.46812 347.011 -4.22067 348.663 -5.87219C350.314 -7.52372 353.067 -7.52372 354.719 -5.87219Z" fill="#BDE5F4"/>
<path d="M204.429 106.982C206.081 108.634 206.081 111.386 204.429 113.038C202.778 114.689 200.025 114.689 198.374 113.038C196.722 111.386 196.722 108.634 198.374 106.982C200.025 105.147 202.778 105.147 204.429 106.982Z" fill="#BDE5F4"/>
<path d="M223.33 88.0814C224.982 89.7329 224.982 92.4855 223.33 94.137C221.679 95.7885 218.926 95.7885 217.275 94.137C215.623 92.4855 215.623 89.7329 217.275 88.0814C218.743 86.4299 221.495 86.4299 223.33 88.0814Z" fill="#BDE5F4"/>
<path d="M242.047 69.364C243.699 71.0155 243.699 73.7681 242.047 75.4196C240.396 77.0711 237.643 77.0711 235.992 75.4196C234.34 73.7681 234.34 71.0155 235.992 69.364C237.643 67.7125 240.396 67.7125 242.047 69.364Z" fill="#BDE5F4"/>
<path d="M260.765 50.4633C262.416 52.1148 262.416 54.8673 260.765 56.5189C259.113 58.1704 256.361 58.1704 254.709 56.5189C253.058 54.8673 253.058 52.1148 254.709 50.4633C256.361 48.8117 259.113 48.8117 260.765 50.4633Z" fill="#BDE5F4"/>
<path d="M279.666 31.746C281.317 33.3975 281.317 36.15 279.666 37.8016C278.014 39.4531 275.262 39.4531 273.61 37.8016C271.958 36.15 271.958 33.3975 273.61 31.746C275.262 30.0944 278.014 30.0944 279.666 31.746Z" fill="#BDE5F4"/>
<path d="M298.383 13.0286C300.034 14.6801 300.034 17.4327 298.383 19.0842C296.731 20.7357 293.979 20.7357 292.327 19.0842C290.676 17.4327 290.676 14.6801 292.327 13.0286C293.979 11.1936 296.731 11.1936 298.383 13.0286Z" fill="#BDE5F4"/>
<path d="M317.284 -5.87219C318.935 -4.22067 318.935 -1.46812 317.284 0.183407C315.632 1.83493 312.88 1.83493 311.228 0.183407C309.577 -1.46812 309.577 -4.22067 311.228 -5.87219C312.696 -7.52372 315.449 -7.52372 317.284 -5.87219Z" fill="#BDE5F4"/>
<path d="M185.712 88.0814C187.364 89.7329 187.364 92.4855 185.712 94.137C184.061 95.7885 181.308 95.7885 179.657 94.137C178.005 92.4855 178.005 89.7329 179.657 88.0814C181.308 86.4299 184.061 86.4299 185.712 88.0814Z" fill="#BDE5F4"/>
<path d="M204.429 69.364C206.081 71.0155 206.081 73.7681 204.429 75.4196C202.778 77.0711 200.025 77.0711 198.374 75.4196C196.722 73.7681 196.722 71.0155 198.374 69.364C200.025 67.7125 202.778 67.7125 204.429 69.364Z" fill="#BDE5F4"/>
<path d="M223.33 50.4633C224.982 52.1148 224.982 54.8673 223.33 56.5189C221.679 58.1704 218.926 58.1704 217.275 56.5189C215.623 54.8673 215.623 52.1148 217.275 50.4633C218.743 48.8117 221.495 48.8117 223.33 50.4633Z" fill="#BDE5F4"/>
<path d="M242.047 31.746C243.699 33.3975 243.699 36.15 242.047 37.8016C240.396 39.4531 237.643 39.4531 235.992 37.8016C234.34 36.15 234.34 33.3975 235.992 31.746C237.643 30.0944 240.396 30.0944 242.047 31.746Z" fill="#BDE5F4"/>
<path d="M260.765 13.0286C262.416 14.6801 262.416 17.4327 260.765 19.0842C259.113 20.7357 256.361 20.7357 254.709 19.0842C253.058 17.4327 253.058 14.6801 254.709 13.0286C256.361 11.1936 259.113 11.1936 260.765 13.0286Z" fill="#BDE5F4"/>
<path d="M279.666 -5.87219C281.317 -4.22067 281.317 -1.46812 279.666 0.183407C278.014 1.83493 275.262 1.83493 273.61 0.183407C271.958 -1.46812 271.958 -4.22067 273.61 -5.87219C275.262 -7.52372 278.014 -7.52372 279.666 -5.87219Z" fill="#BDE5F4"/>
<path d="M163.875 76.8877C166.308 76.8877 168.279 74.916 168.279 72.4837C168.279 70.0514 166.308 68.0796 163.875 68.0796C161.443 68.0796 159.471 70.0514 159.471 72.4837C159.471 74.916 161.443 76.8877 163.875 76.8877Z" fill="#BDE5F4"/>
<path d="M182.593 57.9869C185.025 57.9869 186.997 56.0151 186.997 53.5828C186.997 51.1505 185.025 49.1787 182.593 49.1787C180.16 49.1787 178.188 51.1505 178.188 53.5828C178.188 56.0151 180.16 57.9869 182.593 57.9869Z" fill="#BDE5F4"/>
<path d="M204.429 31.746C206.081 33.3975 206.081 36.15 204.429 37.8016C202.778 39.4531 200.025 39.4531 198.374 37.8016C196.722 36.15 196.722 33.3975 198.374 31.746C200.025 30.0944 202.778 30.0944 204.429 31.746Z" fill="#BDE5F4"/>
<path d="M223.33 13.0286C224.982 14.6801 224.982 17.4327 223.33 19.0842C221.679 20.7357 218.926 20.7357 217.275 19.0842C215.623 17.4327 215.623 14.6801 217.275 13.0286C218.743 11.1936 221.495 11.1936 223.33 13.0286Z" fill="#BDE5F4"/>
<path d="M242.047 -5.87219C243.699 -4.22067 243.699 -1.46812 242.047 0.183407C240.396 1.83493 237.643 1.83493 235.992 0.183407C234.34 -1.46812 234.34 -4.22067 235.992 -5.87219C237.643 -7.52372 240.396 -7.52372 242.047 -5.87219Z" fill="#BDE5F4"/>
<path d="M148.094 50.4633C149.746 52.1148 149.746 54.8673 148.094 56.5189C146.443 58.1704 143.69 58.1704 142.038 56.5189C140.387 54.8673 140.387 52.1148 142.038 50.4633C143.69 48.8117 146.443 48.8117 148.094 50.4633Z" fill="#BDE5F4"/>
<path d="M166.811 31.746C168.463 33.3975 168.463 36.15 166.811 37.8016C165.16 39.4531 162.407 39.4531 160.756 37.8016C159.104 36.15 159.104 33.3975 160.756 31.746C162.407 30.0944 165.16 30.0944 166.811 31.746Z" fill="#BDE5F4"/>
<path d="M185.712 13.0286C187.364 14.6801 187.364 17.4327 185.712 19.0842C184.061 20.7357 181.308 20.7357 179.657 19.0842C178.005 17.4327 178.005 14.6801 179.657 13.0286C181.308 11.1936 184.061 11.1936 185.712 13.0286Z" fill="#BDE5F4"/>
<path d="M204.429 -5.87219C206.081 -4.22067 206.081 -1.46812 204.429 0.183407C202.778 1.83493 200.025 1.83493 198.374 0.183407C196.722 -1.46812 196.722 -4.22067 198.374 -5.87219C200.025 -7.52372 202.778 -7.52372 204.429 -5.87219Z" fill="#BDE5F4"/>
<path d="M129.376 31.746C131.028 33.3975 131.028 36.15 129.376 37.8016C127.725 39.4531 124.972 39.4531 123.321 37.8016C121.669 36.15 121.669 33.3975 123.321 31.746C124.789 30.0944 127.541 30.0944 129.376 31.746Z" fill="#BDE5F4"/>
<path d="M148.094 13.0286C149.746 14.6801 149.746 17.4327 148.094 19.0842C146.443 20.7357 143.69 20.7357 142.038 19.0842C140.387 17.4327 140.387 14.6801 142.038 13.0286C143.69 11.1936 146.443 11.1936 148.094 13.0286Z" fill="#BDE5F4"/>
<path d="M166.811 -5.87219C168.463 -4.22067 168.463 -1.46812 166.811 0.183407C165.16 1.83493 162.407 1.83493 160.756 0.183407C159.104 -1.46812 159.104 -4.22067 160.756 -5.87219C162.407 -7.52372 165.16 -7.52372 166.811 -5.87219Z" fill="#BDE5F4"/>
<path d="M110.476 13.0286C112.127 14.6801 112.127 17.4327 110.476 19.0842C108.824 20.7357 106.072 20.7357 104.42 19.0842C102.769 17.4327 102.769 14.6801 104.42 13.0286C106.072 11.1936 108.824 11.1936 110.476 13.0286Z" fill="#BDE5F4"/>
<path d="M129.376 -5.87219C131.028 -4.22067 131.028 -1.46812 129.376 0.183407C127.725 1.83493 124.972 1.83493 123.321 0.183407C121.669 -1.46812 121.669 -4.22067 123.321 -5.87219C124.789 -7.52372 127.541 -7.52372 129.376 -5.87219Z" fill="#BDE5F4"/>
<path d="M91.7586 -5.87219C93.4101 -4.22067 93.4101 -1.46812 91.7586 0.183407C90.1071 1.83493 87.3545 1.83493 85.703 0.183407C84.0515 -1.46812 84.0515 -4.22067 85.703 -5.87219C87.3545 -7.52372 89.9235 -7.52372 91.7586 -5.87219Z" fill="#BDE5F4"/>
<path d="M179.473 125.699C181.125 124.048 183.877 124.048 185.529 125.699C187.18 127.351 187.18 130.104 185.529 131.755C183.877 133.407 181.125 133.407 179.473 131.755C177.821 130.104 177.821 127.351 179.473 125.699Z" fill="#BDE5F4"/>
<path d="M163.875 114.322C166.308 114.322 168.279 112.351 168.279 109.918C168.279 107.486 166.308 105.514 163.875 105.514C161.443 105.514 159.471 107.486 159.471 109.918C159.471 112.351 161.443 114.322 163.875 114.322Z" fill="#BDE5F4"/>
<path d="M142.038 88.0814C143.69 86.4299 146.442 86.4299 148.094 88.0814C149.746 89.7329 149.746 92.4855 148.094 94.137C146.442 95.7885 143.69 95.7885 142.038 94.137C140.387 92.4855 140.203 89.7329 142.038 88.0814Z" fill="#BDE5F4"/>
<path d="M123.138 69.364C124.789 67.7125 127.542 67.7125 129.193 69.364C130.845 71.0155 130.845 73.7681 129.193 75.4196C127.542 77.0711 124.789 77.0711 123.138 75.4196C121.486 73.7681 121.486 71.0155 123.138 69.364Z" fill="#BDE5F4"/>
<path d="M104.42 50.4633C106.072 48.8117 108.824 48.8117 110.476 50.4633C112.127 52.1148 112.127 54.8673 110.476 56.5189C108.824 58.1704 106.072 58.1704 104.42 56.5189C102.769 55.0508 102.769 52.2983 104.42 50.4633Z" fill="#BDE5F4"/>
<path d="M85.5194 31.746C87.1709 30.0944 89.9235 30.0944 91.575 31.746C93.2265 33.3975 93.2265 36.15 91.575 37.8016C89.9235 39.4531 87.1709 39.4531 85.5194 37.8016C83.8679 36.15 83.8679 33.3975 85.5194 31.746Z" fill="#BDE5F4"/>
<path d="M66.8021 13.0286C68.4536 11.377 71.2062 11.377 72.8578 13.0286C74.5093 14.6801 74.5093 17.4326 72.8578 19.0842C71.2062 20.7357 68.4536 20.7357 66.8021 19.0842C65.1506 17.4326 65.1506 14.6801 66.8021 13.0286Z" fill="#BDE5F4"/>
<path d="M48.0848 -5.87219C49.7363 -7.52372 52.4888 -7.52372 54.1403 -5.87219C55.7919 -4.22067 55.7919 -1.46812 54.1403 0.183407C52.4888 1.83493 49.7363 1.83493 48.0848 0.183407C46.2497 -1.46812 46.2497 -4.22067 48.0848 -5.87219Z" fill="#BDE5F4"/>
<path d="M455.462 861.914L276.546 1040.83L97.6306 861.914L276.546 682.998L455.462 861.914Z" fill="url(#paint6_linear)"/>
<path d="M94.3274 187.173L-161.476 442.976L-417.279 187.173L-161.476 -68.8137L94.3274 187.173Z" fill="url(#paint7_linear)"/>
<path d="M439.061 436.757L123.886 751.932L439.061 1067.11L754.236 751.932L439.061 436.757Z" stroke="url(#paint8_linear)" stroke-width="1.83503" stroke-miterlimit="10"/>
<path d="M751.436 331.967L506.978 576.426L751.436 820.884L995.895 576.426L751.436 331.967Z" stroke="url(#paint9_linear)" stroke-width="1.83503" stroke-miterlimit="10"/>
<path d="M542.394 416.549L512.161 446.782L542.394 477.015L572.627 446.782L542.394 416.549Z" stroke="#BDE5F4" stroke-width="1.83503" stroke-miterlimit="10"/>
<path d="M580.989 377.777L550.757 408.01L580.99 438.243L611.222 408.01L580.989 377.777Z" stroke="#BDE5F4" stroke-width="1.83503" stroke-miterlimit="10"/>
<path d="M619.587 339.27L589.354 369.503L619.587 399.736L649.82 369.503L619.587 339.27Z" stroke="#BDE5F4" stroke-width="1.83503" stroke-miterlimit="10"/>
<path d="M658.184 300.76L627.951 330.993L658.184 361.226L688.417 330.993L658.184 300.76Z" stroke="#BDE5F4" stroke-width="1.83503" stroke-miterlimit="10"/>
<path d="M696.781 261.991L666.548 292.224L696.781 322.457L727.013 292.224L696.781 261.991Z" stroke="#BDE5F4" stroke-width="1.83503" stroke-miterlimit="10"/>
<path d="M735.377 223.481L705.144 253.714L735.377 283.947L765.61 253.714L735.377 223.481Z" stroke="#BDE5F4" stroke-width="1.83503" stroke-miterlimit="10"/>
<path d="M146.219 -304.366L-226.048 67.9015L146.219 440.169L518.486 67.9015L146.219 -304.366Z" stroke="url(#paint10_linear)" stroke-width="1.83503" stroke-miterlimit="10"/>
<path d="M504.322 -134.423L294.249 75.6501L504.322 285.723L714.395 75.6501L504.322 -134.423Z" stroke="url(#paint11_linear)" stroke-width="1.83503" stroke-miterlimit="10"/>
</g>
<defs>
<linearGradient id="paint0_linear" x1="963.78" y1="-651.059" x2="-361.925" y2="1277.24" gradientUnits="userSpaceOnUse">
<stop stop-color="#3DC7FC"/>
<stop offset="0.2855" stop-color="#28B7F4"/>
<stop offset="0.7359" stop-color="#0DA3E9"/>
<stop offset="1" stop-color="#039BE5"/>
</linearGradient>
<linearGradient id="paint1_linear" x1="853.93" y1="-358.001" x2="-280.97" y2="807.084" gradientUnits="userSpaceOnUse">
<stop offset="0.00214947" stop-color="#3DC7FC"/>
<stop offset="0.1956" stop-color="#2FBDF7"/>
<stop offset="0.7137" stop-color="#0FA4EA"/>
<stop offset="1" stop-color="#039BE5"/>
</linearGradient>
<linearGradient id="paint2_linear" x1="551.188" y1="-501.93" x2="-685.102" y2="677.098" gradientUnits="userSpaceOnUse">
<stop stop-color="#3DC7FC"/>
<stop offset="0.2843" stop-color="#28B7F4"/>
<stop offset="0.7357" stop-color="#0DA3E9"/>
<stop offset="1" stop-color="#039BE5"/>
</linearGradient>
<linearGradient id="paint3_linear" x1="1457.83" y1="47.7841" x2="180.55" y2="1359.04" gradientUnits="userSpaceOnUse">
<stop offset="0.00214947" stop-color="#3DC7FC"/>
<stop offset="0.2871" stop-color="#28B7F4"/>
<stop offset="0.7365" stop-color="#0DA3E9"/>
<stop offset="1" stop-color="#039BE5"/>
</linearGradient>
<linearGradient id="paint4_linear" x1="865.142" y1="-190.349" x2="-412.14" y2="1120.9" gradientUnits="userSpaceOnUse">
<stop offset="0.00214947" stop-color="#3DC7FC"/>
<stop offset="0.2871" stop-color="#28B7F4"/>
<stop offset="0.7365" stop-color="#0DA3E9"/>
<stop offset="1" stop-color="#039BE5"/>
</linearGradient>
<linearGradient id="paint5_linear" x1="1040.49" y1="68.8197" x2="204.393" y2="927.159" gradientUnits="userSpaceOnUse">
<stop offset="0.00214947" stop-color="#3DC7FC"/>
<stop offset="0.2871" stop-color="#28B7F4"/>
<stop offset="0.7365" stop-color="#0DA3E9"/>
<stop offset="1" stop-color="#039BE5"/>
</linearGradient>
<linearGradient id="paint6_linear" x1="735.894" y1="390.361" x2="8.41146" y2="1137.19" gradientUnits="userSpaceOnUse">
<stop offset="0.00214947" stop-color="#3DC7FC"/>
<stop offset="0.2871" stop-color="#28B7F4"/>
<stop offset="0.7365" stop-color="#0DA3E9"/>
<stop offset="1" stop-color="#039BE5"/>
</linearGradient>
<linearGradient id="paint7_linear" x1="157.425" y1="-131.742" x2="-525.352" y2="551.035" gradientUnits="userSpaceOnUse">
<stop offset="0.00214947" stop-color="#3DC7FC"/>
<stop offset="0.2871" stop-color="#28B7F4"/>
<stop offset="0.7365" stop-color="#0DA3E9"/>
<stop offset="1" stop-color="#039BE5"/>
</linearGradient>
<linearGradient id="paint8_linear" x1="172.461" y1="606.647" x2="705.694" y2="897.107" gradientUnits="userSpaceOnUse">
<stop offset="0.00214947" stop-color="#05DDE2"/>
<stop offset="0.2675" stop-color="#18D6EB"/>
<stop offset="0.7293" stop-color="#33CBF7"/>
<stop offset="1" stop-color="#3DC7FC"/>
</linearGradient>
<linearGradient id="paint9_linear" x1="544.453" y1="463.637" x2="958.516" y2="689.183" gradientUnits="userSpaceOnUse">
<stop offset="0.00214947" stop-color="#05DDE2"/>
<stop offset="0.2675" stop-color="#18D6EB"/>
<stop offset="0.7293" stop-color="#33CBF7"/>
<stop offset="1" stop-color="#3DC7FC"/>
</linearGradient>
<linearGradient id="paint10_linear" x1="-168.539" y1="-103.501" x2="460.704" y2="239.257" gradientUnits="userSpaceOnUse">
<stop offset="0.00214947" stop-color="#05DDE2"/>
<stop offset="0.2675" stop-color="#18D6EB"/>
<stop offset="0.7293" stop-color="#33CBF7"/>
<stop offset="1" stop-color="#3DC7FC"/>
</linearGradient>
<linearGradient id="paint11_linear" x1="326.218" y1="-21.2726" x2="682.338" y2="172.711" gradientUnits="userSpaceOnUse">
<stop offset="0.00214947" stop-color="#05DDE2"/>
<stop offset="0.2675" stop-color="#18D6EB"/>
<stop offset="0.7293" stop-color="#33CBF7"/>
<stop offset="1" stop-color="#3DC7FC"/>
</linearGradient>
</defs>
</svg>
