<svg width="280" height="280" viewBox="0 0 280 280" fill="none" xmlns="http://www.w3.org/2000/svg">
<path d="M245.952 76.3281C233.24 57.0081 209.048 45.5841 185.696 47.7681C162.344 49.9521 140.84 65.6881 132.104 87.0241C127.624 97.8881 126.224 110.152 119.56 119.896C112.728 129.864 101.304 135.856 90.1043 140.84C78.9043 145.824 67.1443 150.416 58.3523 158.76C49.5043 167.104 44.2963 180.544 49.5603 191.464C54.8803 202.552 68.2643 206.976 77.9523 214.704C87.6403 222.432 93.8003 233.8 103.656 241.248C112.784 248.136 124.544 251.216 136.08 251.16C147.616 251.16 158.984 248.248 169.792 244.216C203.224 231.728 234.752 208.488 248.08 176.008C272.776 115.696 245.952 76.3281 245.952 76.3281Z" fill="#039BE5"/>
<g opacity="0.7">
<path opacity="0.7" d="M245.952 76.3281C233.24 57.0081 209.048 45.5841 185.696 47.7681C162.344 49.9521 140.84 65.6881 132.104 87.0241C127.624 97.8881 126.224 110.152 119.56 119.896C112.728 129.864 101.304 135.856 90.1043 140.84C78.9043 145.824 67.1443 150.416 58.3523 158.76C49.5043 167.104 44.2963 180.544 49.5603 191.464C54.8803 202.552 68.2643 206.976 77.9523 214.704C87.6403 222.432 93.8003 233.8 103.656 241.248C112.784 248.136 124.544 251.216 136.08 251.16C147.616 251.16 158.984 248.248 169.792 244.216C203.224 231.728 234.752 208.488 248.08 176.008C272.776 115.696 245.952 76.3281 245.952 76.3281Z" fill="white"/>
</g>
<path d="M200.984 227.808C200.984 227.808 209.104 227.752 218.12 215.208C226.016 204.232 211.064 170.296 202.664 162.456C194.264 154.672 177.968 197.288 179.872 208.096C182.616 223.552 194.208 227.416 200.984 227.808Z" fill="#039BE5"/>
<path d="M214.2 206.696L201.712 219.128L202.944 250.768H198.8C198.744 250.544 198.912 228.76 199.024 203.28L189.448 194.096C190.176 194.096 188.888 192.864 188.72 192.752L199.024 199.92C199.08 184.016 199.192 171.248 199.192 171.248L200.144 170.072L200.648 187.096L209.496 180.712C209.384 180.824 208.04 182.056 208.768 182.056L200.704 190.064L201.432 214.536L215.096 204.736C214.984 204.904 213.136 206.696 214.2 206.696Z" stroke="#263238" stroke-width="0.56" stroke-miterlimit="10"/>
<path d="M238.168 238.112C238.168 238.112 248.024 237.384 252.952 228.032C258.272 217.896 245.28 193.872 238.672 192.08C231.392 190.12 219.912 209.328 222.264 224.224C223.888 234.416 233.576 237.832 238.168 238.112Z" fill="#039BE5"/>
<path d="M245.56 219.744L238.672 225.232C238.448 212.408 238.28 202.104 238.28 202.104L237.384 201.152L237.048 214.256V214.536L231.224 209.944C231.224 209.944 232.176 210.896 231.672 210.896L236.992 216.664L236.656 231.728L227.808 224.784C227.808 224.784 229.152 226.128 228.48 226.128L236.6 234.92L236.544 236.656L236.488 238.504L236.208 250.432L239.064 250.376C239.008 246.568 238.952 242.536 238.896 238.504C238.84 235.088 238.784 231.672 238.728 228.368C238.728 228.144 238.728 227.92 238.728 227.64L245.056 220.696C244.496 220.864 245.56 219.744 245.56 219.744Z" stroke="#263238" stroke-width="0.56" stroke-miterlimit="10"/>
<path d="M225.848 245.448C224.952 244.72 223.272 244.72 221.816 244.776C221.928 243.824 222.32 242.928 222.432 242.032C222.544 241.08 222.32 240.128 221.424 239.456C219.856 238.336 217.056 238.784 214.816 239.4C215.096 237.216 212.8 235.088 209.72 234.752C206.64 234.416 203.168 235.928 202.272 238.056C201.04 236.88 198.52 236.376 196.448 236.936C194.376 237.496 192.864 239.064 192.976 240.576C191.352 240.464 189.56 240.408 188.272 241.08C186.312 242.088 186.48 244.16 184.968 245.504C183.96 245.224 182.84 245.784 182.336 246.456C181.832 247.128 181.72 247.912 181.44 248.584C180.824 250.04 178.752 250.208 176.736 250.824L226.464 251.216C227.528 250.88 228.48 250.152 228.424 249.312C228.368 248.528 227.024 247.856 226.016 248.248C226.352 248.36 226.912 246.344 225.848 245.448Z" fill="#039BE5"/>
<path d="M248.192 247.632C247.632 247.184 246.624 247.184 245.728 247.24C245.784 246.68 246.008 246.12 246.12 245.56C246.176 245 246.064 244.384 245.504 243.992C244.552 243.32 242.816 243.544 241.472 243.992C241.64 242.648 240.24 241.36 238.336 241.136C236.432 240.912 234.304 241.864 233.744 243.152C232.96 242.424 231.448 242.144 230.16 242.48C228.872 242.816 227.976 243.768 228.032 244.72C227.024 244.664 225.96 244.608 225.12 245.056C223.944 245.672 224 246.96 223.104 247.744C222.488 247.576 221.816 247.912 221.48 248.36C221.144 248.752 221.088 249.256 220.92 249.648C220.528 250.544 219.24 250.656 218.064 250.992L248.584 251.216C249.256 250.992 249.816 250.544 249.76 250.04C249.76 249.536 248.92 249.144 248.248 249.368C248.528 249.424 248.864 248.192 248.192 247.632Z" fill="#039BE5"/>
<path d="M125.048 150.92C123.592 149.912 121.8 149.296 119.896 149.296C114.856 149.296 110.768 153.384 110.768 158.424V158.48C110.208 157.752 109.256 157.248 108.248 157.248C107.352 157.248 106.568 157.584 106.008 158.144C105.616 154.56 102.592 151.76 98.84 151.76C94.864 151.76 91.672 154.952 91.672 158.872C91.336 158.592 90.888 158.48 90.44 158.48C89.376 158.48 88.48 159.264 88.312 160.272H139.216C139.216 156.744 136.36 153.832 132.776 153.832C131.208 153.832 129.752 154.392 128.632 155.4C128.296 154.504 127.904 153.664 127.344 152.936" stroke="#263238" stroke-width="0.56" stroke-miterlimit="10" stroke-linecap="round" stroke-linejoin="round"/>
<path d="M212.52 83.944C213.696 83.552 214.928 83.328 216.216 83.328C222.32 83.328 227.304 88.312 227.304 94.416V94.472C228.032 93.576 229.096 92.96 230.384 92.96C231.448 92.96 232.4 93.408 233.128 94.08C233.632 89.712 237.328 86.296 241.808 86.296C246.624 86.296 250.488 90.16 250.544 94.92C250.992 94.584 251.496 94.416 252.056 94.416C253.344 94.416 254.464 95.368 254.632 96.6H192.808C192.808 92.288 196.28 88.816 200.592 88.816C202.552 88.816 204.288 89.544 205.632 90.72C206.192 89.096 207.144 87.64 208.32 86.464" stroke="#263238" stroke-width="0.56" stroke-miterlimit="10" stroke-linecap="round" stroke-linejoin="round"/>
<path d="M22.96 71.0639H84.728C84.728 66.7519 81.256 63.2799 76.944 63.2799C75.04 63.2799 73.248 64.0079 71.904 65.1279C70.392 60.7599 66.304 57.6799 61.432 57.6799C55.328 57.6799 50.344 62.6639 50.344 68.7679V68.8239C49.616 67.9279 48.552 67.3119 47.264 67.3119C46.2 67.3119 45.248 67.7599 44.52 68.4319C44.016 64.0639 40.32 60.6479 35.84 60.6479C31.024 60.6479 27.16 64.5119 27.104 69.2719C26.656 68.9359 26.152 68.7679 25.592 68.7679C24.248 68.8239 23.184 69.7759 22.96 71.0639Z" fill="white" stroke="#263238" stroke-width="0.56" stroke-miterlimit="10"/>
<path d="M105.28 92.9039L107.184 104.832" stroke="#039BE5" stroke-width="0.56" stroke-miterlimit="10"/>
<path d="M98.0562 97.104L106.008 106.792" stroke="#039BE5" stroke-width="0.56" stroke-miterlimit="10"/>
<path d="M96.7681 105.28L104.216 108.248" stroke="#039BE5" stroke-width="0.56" stroke-miterlimit="10"/>
<path d="M58.9683 126.168V116.928" stroke="#263238" stroke-width="0.56" stroke-miterlimit="10" stroke-linecap="round" stroke-linejoin="round"/>
<path d="M37.1968 126.158H58.9248V119.382H37.1968V126.158Z" fill="white" stroke="#263238" stroke-width="0.56" stroke-miterlimit="10" stroke-linecap="round" stroke-linejoin="round"/>
<path d="M37.2407 126.168V116.928" stroke="#263238" stroke-width="0.56" stroke-miterlimit="10" stroke-linecap="round" stroke-linejoin="round"/>
<path d="M113.644 250.932H157.548V174.492H113.644V250.932Z" fill="white" stroke="#263238" stroke-width="0.56" stroke-miterlimit="10" stroke-linecap="round" stroke-linejoin="round"/>
<path d="M69.8846 250.933H113.789L113.789 146.157H69.8846L69.8846 250.933Z" fill="white" stroke="#263238" stroke-width="0.56" stroke-miterlimit="10" stroke-linecap="round" stroke-linejoin="round"/>
<path d="M25.7518 250.946H69.6558L69.6558 125.954H25.7518L25.7518 250.946Z" fill="white" stroke="#263238" stroke-width="0.56" stroke-miterlimit="10" stroke-linecap="round" stroke-linejoin="round"/>
<path d="M61.5439 133.84V246.176" stroke="#039BE5" stroke-width="0.56" stroke-miterlimit="10" stroke-linecap="round" stroke-linejoin="round"/>
<path d="M51.9121 133.84V246.176" stroke="#039BE5" stroke-width="0.56" stroke-miterlimit="10" stroke-linecap="round" stroke-linejoin="round"/>
<path d="M42.3359 133.84V246.176" stroke="#039BE5" stroke-width="0.56" stroke-miterlimit="10" stroke-linecap="round" stroke-linejoin="round"/>
<path d="M32.7041 133.84V246.176" stroke="#039BE5" stroke-width="0.56" stroke-miterlimit="10" stroke-linecap="round" stroke-linejoin="round"/>
<path d="M106.512 151.592V162.008V172.48V182.952V193.368V203.84V214.312V224.728V235.2V245.672V245.84" stroke="#039BE5" stroke-width="0.56" stroke-miterlimit="10" stroke-linecap="round" stroke-linejoin="round"/>
<path d="M96.8804 151.592V162.008V172.48V182.952V193.368V203.84V214.312V224.728V235.2V245.672V245.84" stroke="#039BE5" stroke-width="0.56" stroke-miterlimit="10" stroke-linecap="round" stroke-linejoin="round"/>
<path d="M87.3042 151.592V162.008V172.48V182.952V193.368V203.84V214.312V224.728V235.2V245.672V245.84" stroke="#039BE5" stroke-width="0.56" stroke-miterlimit="10" stroke-linecap="round" stroke-linejoin="round"/>
<path d="M77.6724 151.592V162.008V172.48V182.952V193.368V203.84V214.312V224.728V235.2V245.672V245.84" stroke="#039BE5" stroke-width="0.56" stroke-miterlimit="10" stroke-linecap="round" stroke-linejoin="round"/>
<path d="M106.512 151.592H104.608H95.6484H86.6884H77.6724" stroke="#039BE5" stroke-width="0.56" stroke-miterlimit="10" stroke-linecap="round" stroke-linejoin="round"/>
<path d="M106.512 162.008H104.608H95.6484H86.6884H77.6724" stroke="#039BE5" stroke-width="0.56" stroke-miterlimit="10" stroke-linecap="round" stroke-linejoin="round"/>
<path d="M106.512 172.48H104.608H95.6484H86.6884H77.6724" stroke="#039BE5" stroke-width="0.56" stroke-miterlimit="10" stroke-linecap="round" stroke-linejoin="round"/>
<path d="M106.512 182.952H104.608H95.6484H86.6884H77.6724" stroke="#039BE5" stroke-width="0.56" stroke-miterlimit="10" stroke-linecap="round" stroke-linejoin="round"/>
<path d="M106.512 193.368H104.608H95.6484H86.6884H77.6724" stroke="#039BE5" stroke-width="0.56" stroke-miterlimit="10" stroke-linecap="round" stroke-linejoin="round"/>
<path d="M106.512 203.84H104.608H95.6484H86.6884H77.6724" stroke="#039BE5" stroke-width="0.56" stroke-miterlimit="10" stroke-linecap="round" stroke-linejoin="round"/>
<path d="M106.512 214.312H104.608H95.6484H86.6884H77.6724" stroke="#039BE5" stroke-width="0.56" stroke-miterlimit="10" stroke-linecap="round" stroke-linejoin="round"/>
<path d="M106.512 224.728H104.608H95.6484H86.6884H77.6724" stroke="#039BE5" stroke-width="0.56" stroke-miterlimit="10" stroke-linecap="round" stroke-linejoin="round"/>
<path d="M106.512 235.2H104.608H95.6484H86.6884H77.6724" stroke="#039BE5" stroke-width="0.56" stroke-miterlimit="10" stroke-linecap="round" stroke-linejoin="round"/>
<path d="M106.512 245.672H104.608H95.6484H86.6884H77.6724" stroke="#039BE5" stroke-width="0.56" stroke-miterlimit="10" stroke-linecap="round" stroke-linejoin="round"/>
<path d="M153.216 180.824H120.064" stroke="#039BE5" stroke-width="0.56" stroke-miterlimit="10" stroke-linecap="round" stroke-linejoin="round"/>
<path d="M153.216 191.24H120.064" stroke="#039BE5" stroke-width="0.56" stroke-miterlimit="10" stroke-linecap="round" stroke-linejoin="round"/>
<path d="M153.216 201.712H120.064" stroke="#039BE5" stroke-width="0.56" stroke-miterlimit="10" stroke-linecap="round" stroke-linejoin="round"/>
<path d="M153.216 212.184H120.064" stroke="#039BE5" stroke-width="0.56" stroke-miterlimit="10" stroke-linecap="round" stroke-linejoin="round"/>
<path d="M153.216 222.6H120.064" stroke="#039BE5" stroke-width="0.56" stroke-miterlimit="10" stroke-linecap="round" stroke-linejoin="round"/>
<path d="M153.216 233.072H120.064" stroke="#039BE5" stroke-width="0.56" stroke-miterlimit="10" stroke-linecap="round" stroke-linejoin="round"/>
<path d="M153.216 243.544H120.064" stroke="#039BE5" stroke-width="0.56" stroke-miterlimit="10" stroke-linecap="round" stroke-linejoin="round"/>
<path d="M254.576 251.272H234.528H232.176H22.96" stroke="#263238" stroke-width="0.56" stroke-miterlimit="10" stroke-linecap="round" stroke-linejoin="round"/>
<path d="M99.232 250.6C98.952 250.712 96.768 250.824 94.024 250.88C88.424 250.992 80.36 250.936 80.36 250.936C80.36 250.936 79.912 250.936 79.744 248.752C79.576 246.568 80.64 244.832 80.752 243.936C81.312 239.736 79.856 238 79.856 237.72C79.856 237.384 87.696 237.216 87.696 237.216L90.272 237.048L89.712 240.744C89.656 240.968 89.656 241.192 89.656 241.36C89.544 244.048 91.336 246.456 94.024 247.016C94.08 247.016 94.136 247.016 94.136 247.016C94.304 246.848 97.496 245.392 98.784 247.408C99.568 248.472 99.232 250.6 99.232 250.6Z" fill="#263238"/>
<path opacity="0.2" d="M99.232 250.6C98.952 250.712 96.768 250.824 94.024 250.88C88.424 250.992 80.36 250.936 80.36 250.936C80.36 250.936 79.912 250.936 79.744 248.752C79.576 246.568 80.64 244.832 80.752 243.936C81.312 239.736 79.856 238 79.856 237.72C79.856 237.384 87.696 237.216 87.696 237.216L90.272 237.048L89.712 240.744C89.656 240.968 89.656 241.192 89.656 241.36C89.544 244.048 91.336 246.456 94.024 247.016C94.08 247.016 94.136 247.016 94.136 247.016C94.304 246.848 97.496 245.392 98.784 247.408C99.568 248.472 99.232 250.6 99.232 250.6Z" fill="white"/>
<path opacity="0.3" d="M94.024 250.88C88.424 250.992 80.36 250.936 80.36 250.936C80.36 250.936 79.912 250.936 79.744 248.752C79.576 246.568 80.64 244.832 80.752 243.936C81.312 239.736 79.856 238 79.856 237.72C79.856 237.384 87.696 237.216 87.696 237.216L90.272 237.048L89.712 240.744C89.656 240.968 89.656 241.192 89.656 241.36C87.864 242.816 86.464 243.992 86.464 243.992C86.464 243.992 93.744 246.344 94.024 250.88Z" fill="black"/>
<path d="M99.232 250.6C98.952 250.712 96.768 250.824 94.024 250.88C88.424 250.992 80.36 250.936 80.36 250.936C80.36 250.936 79.912 250.936 79.744 248.752C79.576 246.568 80.64 244.832 80.752 243.936C81.312 239.736 79.856 238 79.856 237.72C79.856 237.384 87.696 237.216 87.696 237.216L90.272 237.048L89.712 240.744C89.656 240.968 89.656 241.192 89.656 241.36C89.544 244.048 91.336 246.456 94.024 247.016C94.08 247.016 94.136 247.016 94.136 247.016C94.304 246.848 97.496 245.392 98.784 247.408C99.568 248.472 99.232 250.6 99.232 250.6Z" stroke="#263238" stroke-width="0.56" stroke-linecap="round" stroke-linejoin="round"/>
<path d="M92.0652 232.176C92.3452 233.576 92.9612 233.968 92.5692 234.64C92.5132 234.752 92.4572 234.864 92.4012 234.976C92.0652 235.648 91.7292 236.6 90.4412 236.992C88.9292 237.44 81.5932 237.832 80.0252 237.608C78.4572 237.384 77.5612 235.928 77.4492 234.696C77.3372 233.464 78.0652 232.68 77.9532 231.28C77.8412 229.88 76.7772 229.488 76.6652 228.536C76.6092 227.584 77.5052 226.24 77.5052 225.288C77.5052 223.328 77.5612 225.456 77.9532 214.256C78.1772 207.872 79.7452 206.472 77.9532 199.248C77.3372 196.616 70.4492 149.296 70.4492 149.296L91.6172 150.584C91.6172 150.584 91.9532 158.648 92.3452 168.168C92.8492 180.264 93.3532 194.768 93.4092 198.016C93.4652 204.624 92.8492 213.92 92.3452 222.152C92.1212 225.68 91.7852 228.088 92.3452 229.432C92.4012 229.6 92.4572 229.712 92.4572 229.88C92.4012 230.72 91.7852 230.776 92.0652 232.176Z" fill="#039BE5"/>
<path opacity="0.3" d="M92.3441 234.976C92.0081 235.648 91.6721 236.6 90.3841 236.992C88.8721 237.44 81.5361 237.832 79.9681 237.608C78.4001 237.384 77.5041 235.928 77.3921 234.696C77.2801 233.464 78.0081 232.68 77.8961 231.28C77.7841 229.88 76.7201 229.488 76.6081 228.536C76.5521 227.584 77.4481 226.24 77.4481 225.288C77.4481 223.328 77.5041 225.456 77.8961 214.256C78.1201 207.872 79.6881 206.472 77.8961 199.248C77.2801 196.616 70.3921 149.296 70.3921 149.296L91.5601 150.584C91.5601 150.584 91.8961 158.648 92.2881 168.168C89.7121 178.752 86.8001 190.4 85.6801 192.36L87.4161 195.384C87.4161 195.384 83.2161 205.072 83.2161 206.248C83.2161 207.424 84.6721 218.344 85.1201 220.64C85.5681 222.936 83.2161 221.312 83.2161 223.216C83.1601 224.952 82.9361 233.576 92.3441 234.976Z" fill="black"/>
<path d="M92.0652 232.176C92.3452 233.576 92.9612 233.968 92.5692 234.64C92.5132 234.752 92.4572 234.864 92.4012 234.976C92.0652 235.648 91.7292 236.6 90.4412 236.992C88.9292 237.44 81.5932 237.832 80.0252 237.608C78.4572 237.384 77.5612 235.928 77.4492 234.696C77.3372 233.464 78.0652 232.68 77.9532 231.28C77.8412 229.88 76.7772 229.488 76.6652 228.536C76.6092 227.584 77.5052 226.24 77.5052 225.288C77.5052 223.328 77.5612 225.456 77.9532 214.256C78.1772 207.872 79.7452 206.472 77.9532 199.248C77.3372 196.616 70.4492 149.296 70.4492 149.296L91.6172 150.584C91.6172 150.584 91.9532 158.648 92.3452 168.168C92.8492 180.264 93.3532 194.768 93.4092 198.016C93.4652 204.624 92.8492 213.92 92.3452 222.152C92.1212 225.68 91.7852 228.088 92.3452 229.432C92.4012 229.6 92.4572 229.712 92.4572 229.88C92.4012 230.72 91.7852 230.776 92.0652 232.176Z" stroke="#263238" stroke-width="0.56" stroke-linecap="round" stroke-linejoin="round"/>
<path d="M90.44 165.816C90.44 165.816 87.864 168.056 85.624 167.664" stroke="#263238" stroke-width="0.56" stroke-linecap="round" stroke-linejoin="round"/>
<path d="M90.1601 170.072C90.1601 170.072 85.7921 169.008 85.2881 168.112" stroke="#263238" stroke-width="0.56" stroke-linecap="round" stroke-linejoin="round"/>
<path d="M84.5601 190.008C84.5601 190.008 86.9121 196.168 89.5441 197.68" stroke="#263238" stroke-width="0.56" stroke-linecap="round" stroke-linejoin="round"/>
<path d="M89.6558 230.888C89.6558 230.888 84.3918 232.512 81.8158 231.336C79.1838 230.16 83.8878 234.024 88.7598 233.688" stroke="#263238" stroke-width="0.56" stroke-linecap="round" stroke-linejoin="round"/>
<path d="M82.2642 203C82.2642 203 82.3202 219.352 86.5762 222.656" stroke="#263238" stroke-width="0.56" stroke-linecap="round" stroke-linejoin="round"/>
<path d="M86.6318 239.736C86.6318 239.736 88.2558 239.064 89.8238 239.064" stroke="#263238" stroke-width="0.56" stroke-linecap="round" stroke-linejoin="round"/>
<path d="M86.7441 241.808C86.7441 241.808 88.2561 241.248 89.3761 241.024" stroke="#263238" stroke-width="0.56" stroke-linecap="round" stroke-linejoin="round"/>
<path d="M87.0239 243.88L89.4879 243.152" stroke="#263238" stroke-width="0.56" stroke-linecap="round" stroke-linejoin="round"/>
<path d="M88.1997 245.504L90.2157 244.72" stroke="#263238" stroke-width="0.56" stroke-linecap="round" stroke-linejoin="round"/>
<path d="M90.4961 246.96L91.6721 246.064" stroke="#263238" stroke-width="0.56" stroke-linecap="round" stroke-linejoin="round"/>
<path d="M87.1359 237.664C87.1359 237.664 86.9119 243.264 88.7039 245.112C90.4959 246.96 92.3439 247.016 92.1759 247.688" stroke="#263238" stroke-width="0.56" stroke-linecap="round" stroke-linejoin="round"/>
<path d="M71.0083 237.048C71.0083 237.048 63.1123 237.216 63.0563 237.552C63.0003 237.888 64.1763 239.624 62.8883 243.768C62.6083 244.664 61.2643 246.4 61.0403 248.584C60.8163 250.768 61.2643 250.768 61.2643 250.768C61.2643 250.768 79.1843 250.88 80.1923 250.432C80.1923 250.432 80.8643 248.304 80.3603 247.24C79.3523 245.112 75.6563 246.848 75.7683 246.848C75.8243 246.848 75.7123 246.848 75.6563 246.848C72.9123 246.232 71.5123 243.488 72.4643 240.576L73.6403 236.88L71.0083 237.048Z" fill="#263238"/>
<path opacity="0.25" d="M71.0083 237.048C71.0083 237.048 63.1123 237.216 63.0563 237.552C63.0003 237.888 64.1763 239.624 62.8883 243.768C62.6083 244.664 61.2643 246.4 61.0403 248.584C60.8163 250.768 61.2643 250.768 61.2643 250.768C61.2643 250.768 79.1843 250.88 80.1923 250.432C80.1923 250.432 80.8643 248.304 80.3603 247.24C79.3523 245.112 75.6563 246.848 75.7683 246.848C75.8243 246.848 75.7123 246.848 75.6563 246.848C72.9123 246.232 71.5123 243.488 72.4643 240.576L73.6403 236.88L71.0083 237.048Z" fill="white"/>
<path d="M71.0083 237.048C71.0083 237.048 63.1123 237.216 63.0563 237.552C63.0003 237.888 64.1763 239.624 62.8883 243.768C62.6083 244.664 61.2643 246.4 61.0403 248.584C60.8163 250.768 61.2643 250.768 61.2643 250.768C61.2643 250.768 79.1843 250.88 80.1923 250.432C80.1923 250.432 80.8643 248.304 80.3603 247.24C79.3523 245.112 75.6563 246.848 75.7683 246.848C75.8243 246.848 75.7123 246.848 75.6563 246.848C72.9123 246.232 71.5123 243.488 72.4643 240.576L73.6403 236.88L71.0083 237.048Z" stroke="#263238" stroke-width="0.56" stroke-linecap="round" stroke-linejoin="round"/>
<path d="M89.6 150.528L68.656 149.24C68.656 149.24 67.368 196.504 67.536 199.136C68.04 206.36 66.248 207.76 64.96 214.144C62.664 225.344 62.944 223.16 62.664 225.176C62.496 226.128 61.376 227.472 61.264 228.424C61.152 229.376 62.216 229.768 62.048 231.168C61.936 232.568 61.096 233.352 60.984 234.584C60.872 235.816 61.488 237.328 63.056 237.496C64.624 237.664 72.016 237.272 73.584 236.88C75.208 236.432 75.6 235.2 76.16 234.528C76.72 233.856 76.104 233.464 76.104 232.064C76.104 230.664 76.72 230.608 76.776 229.712C76.776 229.544 76.776 229.432 76.72 229.264C76.384 227.92 77.168 225.512 77.952 221.984C79.856 213.752 82.04 204.512 83.16 197.904C83.72 194.6 85.68 179.872 87.304 167.664C87.304 167.664 88.872 165.144 89.656 160.328" fill="#039BE5"/>
<path opacity="0.3" d="M68.6001 150.92L68.4321 157.976C68.4321 157.976 73.5841 158.48 79.0721 157.976C85.9601 157.36 90.1601 154.28 90.1601 154.28L89.6001 150.528C89.6001 150.528 81.7601 152.656 77.8961 152.32C74.0321 152.04 70.3921 151.592 68.6001 150.92Z" fill="black"/>
<path d="M89.6 150.528L68.656 149.24C68.656 149.24 67.368 196.504 67.536 199.136C68.04 206.36 66.248 207.76 64.96 214.144C62.664 225.344 62.944 223.16 62.664 225.176C62.496 226.128 61.376 227.472 61.264 228.424C61.152 229.376 62.216 229.768 62.048 231.168C61.936 232.568 61.096 233.352 60.984 234.584C60.872 235.816 61.488 237.328 63.056 237.496C64.624 237.664 72.016 237.272 73.584 236.88C75.208 236.432 75.6 235.2 76.16 234.528C76.72 233.856 76.104 233.464 76.104 232.064C76.104 230.664 76.72 230.608 76.776 229.712C76.776 229.544 76.776 229.432 76.72 229.264C76.384 227.92 77.168 225.512 77.952 221.984C79.856 213.752 82.04 204.512 83.16 197.904C83.72 194.6 85.68 179.872 87.304 167.664C87.304 167.664 88.872 165.144 89.656 160.328" stroke="#263238" stroke-width="0.56" stroke-linecap="round" stroke-linejoin="round"/>
<path d="M79.2401 207.704C79.2401 207.704 72.0161 220.024 64.8481 224.056" stroke="#263238" stroke-width="0.56" stroke-linecap="round" stroke-linejoin="round"/>
<path d="M64.792 230.888C67.368 231.224 69.944 231.56 72.576 231.896C73.136 231.952 73.864 232.176 73.808 232.792C73.752 233.296 73.136 233.632 72.632 233.856C70.84 234.528 68.936 234.64 67.2 234.192" stroke="#263238" stroke-width="0.56" stroke-linecap="round" stroke-linejoin="round"/>
<path d="M65.0161 227.192C67.7041 228.76 70.8401 229.6 74.2001 229.712" stroke="#263238" stroke-width="0.56" stroke-linecap="round" stroke-linejoin="round"/>
<path d="M69.8878 204.736C69.8878 204.736 73.8078 204.904 75.8238 204.68C74.3118 206.752 71.9038 207.648 69.5518 207.76" stroke="#263238" stroke-width="0.56" stroke-linecap="round" stroke-linejoin="round"/>
<path d="M72.8001 155.12C72.8001 155.12 72.2401 175.224 72.0161 183.624C71.8481 191.968 71.4561 201.768 71.4561 201.768C71.4561 201.768 70.7841 202.776 71.1201 203.784C71.4561 204.792 71.4561 204.792 71.4561 204.792L71.2881 207.704C71.2881 207.704 70.5041 208.6 70.7841 209.664C71.0641 210.728 68.8801 218.12 68.8801 218.12L68.4881 218.624C67.7041 219.632 67.4801 220.92 67.8721 221.984L67.0881 228.312C66.1921 229.152 66.0241 230.384 66.5841 231.224L65.8561 234.528C65.0721 235.256 64.9041 236.376 65.4081 237.16L65.5201 237.328" stroke="#263238" stroke-width="0.56" stroke-linecap="round" stroke-linejoin="round"/>
<path d="M109.032 117.992C108.472 119.224 103.712 122.472 103.712 122.472C103.712 121.912 103.824 121.408 104.048 120.904C104.384 120.4 104.608 119.896 104.832 119.56C104.888 118.72 104.608 117.88 104.048 117.208C103.376 116.48 102.872 118.272 102.592 119.504C102.312 120.68 100.408 122.528 100.52 123.424C100.688 124.432 100.912 125.44 101.136 126.448C101.136 126.448 93.1843 129.248 92.2883 127.568C90.4403 123.984 88.3683 120.456 86.1283 117.04C84.2243 119.672 85.7363 123.256 86.8003 127.736C87.8643 132.216 91.1123 138.432 91.1123 138.432C96.9363 135.632 103.6 128.352 103.6 128.352C103.6 128.352 105.168 127.68 107.072 127.008C108.976 126.336 108.696 125.776 109.032 123.872C109.368 121.968 110.936 119.392 110.88 118.44C110.712 117.432 109.592 116.76 109.032 117.992Z" fill="white" stroke="#263238" stroke-width="0.56" stroke-linecap="round" stroke-linejoin="round"/>
<path d="M90.1601 127.456C90.1041 131.488 90.8881 145.264 91.7841 150.696L68.0401 150.08V149.688C69.7761 143.248 68.6561 136.304 65.9121 130.2C64.4561 126.952 63.7841 122.864 63.0561 118.944C61.1521 109.032 65.9121 105.952 69.9441 105.56C71.5121 105.504 71.6241 104.44 72.7441 104.496C73.7521 104.552 74.4241 104.496 75.0401 104.216C75.5441 106.232 78.2881 112.224 79.2401 112.896C80.1921 113.568 81.5361 113.792 82.5441 113.12C83.4961 112.448 83.7761 111.16 84.0001 110.04C84.1121 109.424 84.2801 108.808 84.5041 108.248C85.9041 108.92 88.3681 109.76 90.1601 113.064C92.4001 120.288 91.1681 115.64 92.9041 126.224C93.1281 127.904 90.1601 127.456 90.1601 127.456Z" fill="white" stroke="#263238" stroke-width="0.56" stroke-linecap="round" stroke-linejoin="round"/>
<path d="M86.4083 108.696L84.1123 107.912C85.6803 113.232 84.3363 119.336 80.3603 116.928C76.4403 114.52 74.8723 107.632 73.6963 104.608C73.0803 104.44 70.5603 104.328 69.2723 105.336C70.6163 107.8 74.3123 112.728 73.8643 116.76C73.3603 121.24 69.8323 125.216 63.2803 120.736C64.1763 127.512 67.0323 132.44 67.5923 134.736C69.6083 143.136 68.2643 144.256 67.3123 152.6C76.8323 157.472 88.3683 155.064 93.4083 153.552C91.8963 145.04 92.5683 123.76 86.4083 108.696Z" fill="#039BE5"/>
<path opacity="0.3" d="M71.9043 144.368C71.9043 144.368 87.4163 151.144 89.6563 144.592C85.5683 145.488 81.3683 145.656 77.2243 145.096L71.9043 144.368Z" fill="black"/>
<path opacity="0.3" d="M66.416 129.696L77.672 120.736C77.672 120.736 79.912 126.896 73.92 130.424C69.888 132.832 66.416 129.696 66.416 129.696Z" fill="black"/>
<path d="M86.4083 108.696L84.1123 107.912C85.6803 113.232 84.3363 119.336 80.3603 116.928C76.4403 114.52 74.8723 107.632 73.6963 104.608C73.0803 104.44 70.5603 104.328 69.2723 105.336C70.6163 107.8 74.3123 112.728 73.8643 116.76C73.3603 121.24 69.8323 125.216 63.2803 120.736C64.1763 127.512 67.0323 132.44 67.5923 134.736C69.6083 143.136 68.2643 144.256 67.3123 152.6C76.8323 157.472 88.3683 155.064 93.4083 153.552C91.8963 145.04 92.5683 123.76 86.4083 108.696Z" stroke="#263238" stroke-width="0.56" stroke-linecap="round" stroke-linejoin="round"/>
<path d="M89.6559 144.312C89.4879 145.152 88.8719 145.88 88.0879 146.272" stroke="#263238" stroke-width="0.56" stroke-linecap="round" stroke-linejoin="round"/>
<path d="M85.5683 146.888C80.8643 147.336 76.0483 146.384 71.9043 144.144" stroke="#263238" stroke-width="0.56" stroke-linecap="round" stroke-linejoin="round"/>
<path d="M107.352 108.92L102.536 121.912C102.368 122.36 102.424 122.92 102.648 123.312L103.544 124.768C103.992 125.496 105.56 125.72 106.232 125.216C106.456 125.048 106.68 124.824 106.792 124.544L111.608 111.608C111.888 110.992 111.72 110.264 111.272 109.816L109.76 108.36C109.144 107.8 108.248 107.8 107.688 108.416C107.52 108.584 107.408 108.752 107.352 108.92Z" fill="#263238"/>
<path d="M63.3359 112.392C63.3359 112.392 63.3359 114.744 64.7359 117.992C67.0879 123.536 75.9919 137.368 77.9519 138.32C79.9119 139.272 99.9039 128.52 101.304 127.008C102.76 125.552 101.92 123.592 101.92 123.592C101.92 123.592 101.92 124.992 103.096 124.712C103.824 124.544 103.208 122.248 103.208 122.248C103.208 122.248 104.552 121.296 103.264 119.504C103.264 119.504 105.112 119.504 104.944 118.104C104.888 117.544 99.5119 117.488 98.6719 119C97.6639 120.904 96.6559 125.776 96.6559 125.776C96.6559 125.776 83.6639 129.136 80.9199 129.64L73.8079 114.184" fill="white"/>
<path d="M63.3359 112.392C63.3359 112.392 63.3359 114.744 64.7359 117.992C67.0879 123.536 75.9919 137.368 77.9519 138.32C79.9119 139.272 99.9039 128.52 101.304 127.008C102.76 125.552 101.92 123.592 101.92 123.592C101.92 123.592 101.92 124.992 103.096 124.712C103.824 124.544 103.208 122.248 103.208 122.248C103.208 122.248 104.552 121.296 103.264 119.504C103.264 119.504 105.112 119.504 104.944 118.104C104.888 117.544 99.5119 117.488 98.6719 119C97.6639 120.904 96.6559 125.776 96.6559 125.776C96.6559 125.776 83.6639 129.136 80.9199 129.64L73.8079 114.184" stroke="#263238" stroke-width="0.56" stroke-linecap="round" stroke-linejoin="round"/>
<path d="M101.472 127.848C101.864 126.84 102.592 125.944 103.488 125.328C104.552 124.824 106.008 124.656 107.128 124.432C107.128 124.432 108.024 120.624 108.528 120.736C110.04 121.072 108.864 124.544 108.864 124.544" fill="white"/>
<path d="M101.472 127.848C101.864 126.84 102.592 125.944 103.488 125.328C104.552 124.824 106.008 124.656 107.128 124.432C107.128 124.432 108.024 120.624 108.528 120.736C110.04 121.072 108.864 124.544 108.864 124.544" stroke="#263238" stroke-width="0.56" stroke-linecap="round" stroke-linejoin="round"/>
<path d="M110.656 119.392C110.264 119 109.648 118.944 109.2 119.336C108.472 120.008 107.408 121.856 106.232 122.808" stroke="#263238" stroke-width="0.56" stroke-linecap="round" stroke-linejoin="round"/>
<path d="M100.24 123.424C100.576 122.696 102.816 121.52 103.264 123.032" stroke="#263238" stroke-width="0.56" stroke-linecap="round" stroke-linejoin="round"/>
<path d="M100.24 121.52C100.24 121.52 102.872 120.064 103.376 121.856" stroke="#263238" stroke-width="0.56" stroke-linecap="round" stroke-linejoin="round"/>
<path d="M100.576 119.84C100.576 119.84 101.696 119.616 101.92 119.616C102.816 119.504 103.712 119.392 104.216 119.392" stroke="#263238" stroke-width="0.56" stroke-linecap="round" stroke-linejoin="round"/>
<path d="M87.3043 167.664C87.3043 167.664 83.8323 164.584 81.7603 163.968L87.3043 167.664Z" fill="#039BE5"/>
<path d="M87.3043 167.664C87.3043 167.664 83.8323 164.584 81.7603 163.968" stroke="#263238" stroke-width="0.56" stroke-linecap="round" stroke-linejoin="round"/>
<path d="M69.6641 239.736C69.6641 239.736 71.3441 239.064 72.9121 239.064" stroke="#263238" stroke-width="0.56" stroke-linecap="round" stroke-linejoin="round"/>
<path d="M69.5522 241.92C69.5522 241.92 71.1202 241.36 72.2402 241.136" stroke="#263238" stroke-width="0.56" stroke-linecap="round" stroke-linejoin="round"/>
<path d="M69.6641 243.992L72.1841 243.208" stroke="#263238" stroke-width="0.56" stroke-linecap="round" stroke-linejoin="round"/>
<path d="M70.728 245.672L72.8 244.832" stroke="#263238" stroke-width="0.56" stroke-linecap="round" stroke-linejoin="round"/>
<path d="M72.8564 247.128L74.1444 246.176" stroke="#263238" stroke-width="0.56" stroke-linecap="round" stroke-linejoin="round"/>
<path d="M70.336 237.664C70.336 237.664 69.664 243.376 71.288 245.224C72.912 247.072 74.76 247.128 74.536 247.856" stroke="#263238" stroke-width="0.56" stroke-linecap="round" stroke-linejoin="round"/>
<path d="M83.8883 107.688C83.8883 107.688 86.2403 116.928 82.4323 117.6C77.2803 118.552 73.6963 104.608 73.6963 104.608C74.4803 104.552 74.5923 104.216 75.2643 103.824C75.3203 103.824 81.0883 115.36 83.8883 107.688Z" fill="#263238"/>
<path d="M68.2079 105.896C68.2079 105.896 62.7759 106.96 62.7759 115.024C62.7759 122.976 66.3039 129.752 66.3039 129.752C66.3039 129.752 70.5039 129.416 73.1919 127.456C78.7919 123.368 77.8959 121.072 77.8959 121.072L74.9839 115.248C74.9839 115.248 74.0319 111.552 69.8319 105.616L68.2079 105.896Z" fill="#263238"/>
<path d="M86.7441 109.032C89.7121 117.376 89.8241 120.512 90.3281 124.376C90.3281 124.376 93.2401 123.816 93.6321 123.2C93.6321 123.2 92.2321 116.368 90.7201 112.84C89.8241 110.544 88.5361 109.76 86.7441 109.032Z" fill="#263238"/>
<path d="M83.888 99.512C83.888 99.512 83.44 107.184 83.496 107.8C83.552 108.976 84.392 110.488 83.608 111.384C82.824 112.28 81.424 112.336 80.36 111.888C79.296 111.44 78.456 110.544 77.728 109.648C76.384 108.024 75.264 106.232 74.312 104.384C74.592 104.16 75.32 103.32 75.656 102.144L75.824 101.472C76.048 99.904 75.992 98.28 75.768 96.712C75.376 93.576 74.424 91 74.424 91L83.888 99.512Z" fill="white" stroke="#263238" stroke-width="0.56" stroke-linecap="round" stroke-linejoin="round"/>
<path d="M75.936 106.848C77.56 107.408 78.792 107.968 79.8 108.472L75.936 106.848Z" fill="#263238"/>
<path d="M75.936 106.848C77.56 107.408 78.792 107.968 79.8 108.472" stroke="#263238" stroke-width="0.56" stroke-linecap="round" stroke-linejoin="round"/>
<path d="M74.7602 80.976C74.7602 80.976 70.0002 83.72 72.4642 90.832C74.9282 97.944 80.4162 105.896 85.4002 104.832C90.3842 103.768 91.6722 93.856 89.0402 87.248C86.4082 80.64 79.7442 77 74.7602 80.976Z" fill="white" stroke="#263238" stroke-width="0.56" stroke-linecap="round" stroke-linejoin="round"/>
<path d="M88.984 94.136C89.04 94.696 88.816 95.2 88.48 95.256C88.144 95.256 87.864 94.808 87.864 94.248C87.808 93.688 88.032 93.184 88.368 93.184C88.704 93.072 88.984 93.52 88.984 94.136Z" fill="#263238"/>
<path d="M84.112 93.912C84.168 94.472 83.944 94.976 83.608 94.976C83.272 94.976 82.992 94.528 82.992 93.968C82.936 93.408 83.16 92.904 83.496 92.848C83.832 92.848 84.112 93.296 84.112 93.912Z" fill="#263238"/>
<path d="M85.9602 82.208C82.7682 79.072 78.4002 78.1201 74.9282 80.9761C74.9282 80.9761 70.1682 83.72 72.6322 90.832C73.2482 92.512 73.9762 94.192 74.8162 95.76L74.9282 95.8161C74.9282 95.8161 73.3602 94.248 79.5762 90.832C81.5922 89.656 84.6162 82.488 85.9602 82.208Z" fill="#263238" stroke="#263238" stroke-width="0.56" stroke-linecap="round" stroke-linejoin="round"/>
<path d="M80.9761 84.5599C80.9761 84.5599 81.4241 79.5759 84.8401 79.4079C86.6321 79.2959 89.0401 81.7599 89.3201 82.9919C89.7121 84.7279 91.1121 86.1279 92.9041 86.4639C92.9041 86.4639 91.8961 89.8239 89.9361 90.0479C86.7441 90.4399 85.0641 89.7119 82.9921 86.8559C82.3761 86.0719 81.7601 85.2879 81.0321 84.5599H80.9761Z" fill="#263238" stroke="#263238" stroke-width="0.56" stroke-linecap="round" stroke-linejoin="round"/>
<path d="M75.824 94.08C75.824 94.08 73.92 90.216 72.24 94.472C71.176 97.16 75.376 99.288 76.832 98.56" fill="white"/>
<path d="M75.824 94.08C75.824 94.08 73.92 90.216 72.24 94.472C71.176 97.16 75.376 99.288 76.832 98.56" stroke="#263238" stroke-width="0.56" stroke-linecap="round" stroke-linejoin="round"/>
<path d="M87.0802 91.7279C86.4082 92.4559 86.1841 93.4079 86.3521 94.3599C86.5201 95.3679 86.8562 96.3759 87.3602 97.2159L84.9521 97.9999" stroke="#263238" stroke-width="0.56" stroke-linecap="round" stroke-linejoin="round"/>
<path d="M82.8242 99.736C83.6082 100.52 84.7282 100.744 85.7362 100.408" stroke="#263238" stroke-width="0.56" stroke-linecap="round" stroke-linejoin="round"/>
<path d="M80.1924 91.6719C80.1924 91.6719 81.8724 89.8239 83.8884 90.7199" stroke="#263238" stroke-width="0.56" stroke-linecap="round" stroke-linejoin="round"/>
<path d="M87.9761 91.168C87.9761 91.168 90.1601 90.496 89.8801 92.4" stroke="#263238" stroke-width="0.56" stroke-linecap="round" stroke-linejoin="round"/>
<path d="M75.8241 96.208C75.4321 96.264 75.0961 95.928 74.9281 95.592C74.7601 95.256 74.7041 94.864 74.5361 94.472C74.3681 94.136 74.0321 93.8 73.6401 93.856" fill="#263238"/>
<path d="M75.8241 96.208C75.4321 96.264 75.0961 95.928 74.9281 95.592C74.7601 95.256 74.7041 94.864 74.5361 94.472C74.3681 94.136 74.0321 93.8 73.6401 93.856" stroke="#263238" stroke-width="0.56" stroke-linecap="round" stroke-linejoin="round"/>
<path d="M82.7683 80.864C82.5443 79.856 82.1523 78.904 81.5923 78.008C81.5923 78.008 82.4883 77.784 82.9923 77.672C82.9923 78.624 82.8803 79.856 82.7683 80.864Z" fill="#263238" stroke="#263238" stroke-width="0.56" stroke-linecap="round" stroke-linejoin="round"/>
<path d="M83.7203 104.608L83.7763 106.288C83.4963 106.456 83.1043 106.512 82.6003 106.456C80.4723 106.232 78.2883 101.416 78.1763 101.136L78.2323 101.192C80.7523 103.992 82.6003 104.608 83.7203 104.608Z" fill="#263238"/>
<path d="M156.408 120.736H170.52" stroke="#263238" stroke-width="0.56" stroke-linecap="round" stroke-linejoin="round"/>
<path d="M140.167 120.736H154.503" stroke="#263238" stroke-width="0.56" stroke-linecap="round" stroke-linejoin="round"/>
<path d="M132.496 120.738H136.92" stroke="#263238" stroke-width="0.56" stroke-linecap="round" stroke-linejoin="round"/>
<path d="M144.144 128.408H170.464" stroke="#263238" stroke-width="0.56" stroke-linecap="round" stroke-linejoin="round"/>
<path d="M136.92 128.408H140.168" stroke="#263238" stroke-width="0.56" stroke-linecap="round" stroke-linejoin="round"/>
<path d="M155.903 136.136H170.407" stroke="#263238" stroke-width="0.56" stroke-linecap="round" stroke-linejoin="round"/>
<path d="M141.344 136.136H153.776" stroke="#263238" stroke-width="0.56" stroke-linecap="round" stroke-linejoin="round"/>
<path d="M153.943 143.808H170.351" stroke="#263238" stroke-width="0.56" stroke-linecap="round" stroke-linejoin="round"/>
<path d="M145.768 143.808H151.592" stroke="#263238" stroke-width="0.56" stroke-linecap="round" stroke-linejoin="round"/>
<path d="M202.272 144.088H161.056L163.128 120.456H204.344L202.272 144.088Z" fill="white" stroke="#263238" stroke-width="0.56" stroke-miterlimit="10" stroke-linecap="round" stroke-linejoin="round"/>
<path d="M204.344 120.456H163.128" stroke="#263238" stroke-width="0.56" stroke-miterlimit="10" stroke-linecap="round" stroke-linejoin="round"/>
<path d="M202.272 144.088H161.056L175.168 130.704L182.336 136.808L190.68 130.592L202.272 144.088Z" fill="white" stroke="#263238" stroke-width="0.56" stroke-miterlimit="10" stroke-linecap="round" stroke-linejoin="round"/>
<path d="M204.344 120.456L190.68 130.592L182.336 136.808L175.168 130.704L163.128 120.456H204.344Z" fill="white" stroke="#263238" stroke-width="0.56" stroke-miterlimit="10" stroke-linecap="round" stroke-linejoin="round"/>
<path d="M128.576 120.737H118.216" stroke="#263238" stroke-width="0.56" stroke-linecap="round" stroke-linejoin="round"/>
<path d="M168.168 93.6879C159.936 100.408 144.648 104.496 144.648 104.496L152.32 96.2639C145.264 93.9679 140.168 87.3599 140.168 79.5759C140.168 69.4399 148.736 61.3759 158.984 62.0479C167.776 62.6639 174.832 69.8879 175.28 78.6799C175.56 84.7839 172.76 90.2159 168.28 93.5759" fill="white"/>
<path d="M168.168 93.6879C159.936 100.408 144.648 104.496 144.648 104.496L152.32 96.2639C145.264 93.9679 140.168 87.3599 140.168 79.5759C140.168 69.4399 148.736 61.3759 158.984 62.0479C167.776 62.6639 174.832 69.8879 175.28 78.6799C175.56 84.7839 172.76 90.2159 168.28 93.5759" stroke="#263238" stroke-width="0.56" stroke-miterlimit="10" stroke-linecap="round" stroke-linejoin="round"/>
<path d="M168.616 71.96C171.461 71.96 173.768 69.6534 173.768 66.808C173.768 63.9626 171.461 61.656 168.616 61.656C165.771 61.656 163.464 63.9626 163.464 66.808C163.464 69.6534 165.771 71.96 168.616 71.96Z" fill="#039BE5" stroke="#263238" stroke-width="0.56" stroke-linecap="round" stroke-linejoin="round"/>
<path d="M165.592 65.688L168.616 69.048L175.392 60.984L175.168 60.704L168.616 66.36L166.88 64.512L165.592 65.688Z" fill="#263238" stroke="#263238" stroke-width="0.56" stroke-linecap="round" stroke-linejoin="round"/>
<path d="M148.68 75.3199H167.944" stroke="#263238" stroke-width="0.56" stroke-miterlimit="10" stroke-linecap="round" stroke-linejoin="round"/>
<path d="M148.232 80.3041H167.552" stroke="#263238" stroke-width="0.56" stroke-miterlimit="10" stroke-linecap="round" stroke-linejoin="round"/>
<path d="M147.784 85.2881H167.104" stroke="#263238" stroke-width="0.56" stroke-miterlimit="10" stroke-linecap="round" stroke-linejoin="round"/>
<path d="M208.6 31.3601V40.1521L232.736 21.5601L208.6 31.3601Z" fill="#039BE5" stroke="#263238" stroke-width="0.56" stroke-miterlimit="10" stroke-linecap="round" stroke-linejoin="round"/>
<path d="M208.6 31.36L233.296 21.224L199.528 24.752L208.6 31.36Z" fill="#039BE5" stroke="#263238" stroke-width="0.56" stroke-miterlimit="10" stroke-linecap="round" stroke-linejoin="round"/>
<path d="M211.512 33.152L223.16 41.776L233.296 21.224L211.512 33.152Z" fill="#039BE5" stroke="#263238" stroke-width="0.56" stroke-miterlimit="10" stroke-linecap="round" stroke-linejoin="round"/>
<path d="M211.512 33.1521L208.6 40.1521L214.76 35.6161L211.512 33.1521Z" fill="#039BE5" stroke="#263238" stroke-width="0.56" stroke-miterlimit="10" stroke-linecap="round" stroke-linejoin="round"/>
<path d="M115.92 107.24C115.976 107.072 116.032 106.904 116.088 106.736" stroke="#263238" stroke-width="0.56" stroke-linecap="round" stroke-linejoin="round"/>
<path d="M116.872 104.608C122.08 89.04 121.128 79.688 129.584 64.624C131.32 61.6 139.776 47.152 151.872 42C158.144 39.312 162.176 43.344 160.552 46.144C156.968 52.416 143.696 44.912 156.968 37.464C169.232 30.576 195.384 44.016 207.592 40.152" stroke="#263238" stroke-width="0.56" stroke-linecap="round" stroke-linejoin="round" stroke-dasharray="1.12 1.12"/>
<path d="M208.6 39.816C208.768 39.76 208.936 39.648 209.104 39.592" stroke="#263238" stroke-width="0.56" stroke-linecap="round" stroke-linejoin="round"/>
</svg>
